LondrinaOutline-Regular_ik.ufo
<glyph name="numbersign" format="1">
  <advance width="669"/>
  <unicode hex="0023"/>
  <outline>
    <contour>
      <point x="650" y="383" type="curve" name="hr01"/>
      <point x="651" y="391"/>
      <point x="651" y="400"/>
      <point x="651" y="409" type="curve" smooth="yes"/>
      <point x="651" y="438"/>
      <point x="647" y="469"/>
      <point x="639" y="487" type="curve"/>
      <point x="596" y="487" type="line"/>
      <point x="593" y="488"/>
      <point x="591" y="488"/>
      <point x="589" y="488" type="curve" smooth="yes"/>
      <point x="587" y="488"/>
      <point x="585" y="488"/>
      <point x="583" y="488" type="curve"/>
      <point x="595" y="531"/>
      <point x="622" y="589"/>
      <point x="622" y="635" type="curve"/>
      <point x="618" y="643"/>
      <point x="598" y="642"/>
      <point x="589" y="642" type="curve" smooth="yes" name="hr02"/>
      <point x="577" y="642"/>
      <point x="566" y="641"/>
      <point x="554" y="641" type="curve" smooth="yes"/>
      <point x="535" y="641"/>
      <point x="519" y="644"/>
      <point x="502" y="644" type="curve" name="hr03"/>
      <point x="500" y="643"/>
      <point x="499" y="641"/>
      <point x="497" y="640" type="curve"/>
      <point x="487" y="601"/>
      <point x="471" y="523"/>
      <point x="449" y="491" type="curve"/>
      <point x="413" y="491"/>
      <point x="375" y="489"/>
      <point x="339" y="491" type="curve"/>
      <point x="349" y="528"/>
      <point x="382" y="611"/>
      <point x="382" y="633" type="curve"/>
      <point x="352" y="645"/>
      <point x="294" y="637"/>
      <point x="261" y="642" type="curve" name="hr04"/>
      <point x="249" y="638"/>
      <point x="231" y="550"/>
      <point x="208" y="491" type="curve"/>
      <point x="156" y="489"/>
      <point x="77" y="490"/>
      <point x="31" y="485" type="curve"/>
      <point x="31" y="474"/>
      <point x="30" y="458"/>
      <point x="30" y="442" type="curve" smooth="yes"/>
      <point x="30" y="411"/>
      <point x="32" y="380"/>
      <point x="38" y="377" type="curve"/>
      <point x="82" y="377"/>
      <point x="125" y="378"/>
      <point x="169" y="378" type="curve"/>
      <point x="162" y="357"/>
      <point x="135" y="290"/>
      <point x="135" y="268" type="curve"/>
      <point x="132" y="262" type="line"/>
      <point x="96" y="258"/>
      <point x="61" y="266"/>
      <point x="26" y="266" type="curve"/>
      <point x="16" y="256"/>
      <point x="13" y="166"/>
      <point x="26" y="153" type="curve"/>
      <point x="26" y="152"/>
      <point x="27" y="151"/>
      <point x="27" y="151" type="curve"/>
      <point x="45" y="142"/>
      <point x="67" y="151"/>
      <point x="87" y="150" type="curve"/>
      <point x="67" y="101"/>
      <point x="47" y="53"/>
      <point x="38" y="1" type="curve"/>
      <point x="67" y="-12"/>
      <point x="109" y="1"/>
      <point x="144" y="-6" type="curve"/>
      <point x="145" y="-6"/>
      <point x="145" y="-6"/>
      <point x="146" y="-6" type="curve" smooth="yes"/>
      <point x="175" y="-6"/>
      <point x="203" y="102"/>
      <point x="222" y="152" type="curve" name="hr05"/>
      <point x="223" y="152"/>
      <point x="225" y="152"/>
      <point x="226" y="152" type="curve" smooth="yes"/>
      <point x="261" y="151"/>
      <point x="295" y="154"/>
      <point x="329" y="152" type="curve"/>
      <point x="314" y="101"/>
      <point x="291" y="53"/>
      <point x="280" y="2" type="curve"/>
      <point x="280" y="1"/>
      <point x="280" y="0"/>
      <point x="281" y="0" type="curve" smooth="yes" name="hr06"/>
      <point x="318" y="-8"/>
      <point x="364" y="-10"/>
      <point x="405" y="-2" type="curve"/>
      <point x="433" y="26"/>
      <point x="445" y="110"/>
      <point x="463" y="149" type="curve"/>
      <point x="520" y="155"/>
      <point x="585" y="140"/>
      <point x="637" y="158" type="curve"/>
      <point x="642" y="187"/>
      <point x="635" y="202"/>
      <point x="636" y="243" type="curve"/>
      <point x="631" y="262"/>
      <point x="608" y="261"/>
      <point x="589" y="261" type="curve" smooth="yes"/>
      <point x="572" y="261"/>
      <point x="552" y="259"/>
      <point x="532" y="259" type="curve" smooth="yes"/>
      <point x="523" y="259"/>
      <point x="514" y="260"/>
      <point x="505" y="261" type="curve"/>
      <point x="517" y="300"/>
      <point x="529" y="340"/>
      <point x="543" y="378" type="curve"/>
      <point x="578" y="379"/>
      <point x="616" y="382"/>
    </contour>
    <contour>
      <point x="540" y="388" type="curve"/>
      <point x="538" y="387"/>
      <point x="537" y="386"/>
      <point x="536" y="385" type="curve" smooth="yes"/>
      <point x="520" y="344"/>
      <point x="506" y="300"/>
      <point x="493" y="258" type="curve"/>
      <point x="530" y="239"/>
      <point x="579" y="256"/>
      <point x="620" y="248" type="curve"/>
      <point x="621" y="248"/>
      <point x="623" y="248"/>
      <point x="624" y="248" type="curve"/>
      <point x="624" y="247"/>
      <point x="625" y="247"/>
      <point x="625" y="246" type="curve" smooth="yes"/>
      <point x="626" y="218"/>
      <point x="628" y="189"/>
      <point x="630" y="162" type="curve"/>
      <point x="573" y="158"/>
      <point x="515" y="160"/>
      <point x="458" y="158" type="curve"/>
      <point x="437" y="137"/>
      <point x="436" y="49"/>
      <point x="399" y="6" type="curve"/>
      <point x="374" y="6"/>
      <point x="350" y="5"/>
      <point x="327" y="5" type="curve" smooth="yes" name="hr07"/>
      <point x="315" y="5"/>
      <point x="303" y="6"/>
      <point x="291" y="6" type="curve"/>
      <point x="299" y="59"/>
      <point x="338" y="112"/>
      <point x="336" y="162" type="curve"/>
      <point x="311" y="167"/>
      <point x="226" y="165"/>
      <point x="215" y="159" type="curve"/>
      <point x="192" y="110"/>
      <point x="173" y="55"/>
      <point x="154" y="5" type="curve"/>
      <point x="122" y="11"/>
      <point x="80" y="9"/>
      <point x="49" y="5" type="curve"/>
      <point x="54" y="58"/>
      <point x="91" y="111"/>
      <point x="94" y="160" type="curve"/>
      <point x="78" y="160"/>
      <point x="62" y="157"/>
      <point x="46" y="157" type="curve" smooth="yes"/>
      <point x="31" y="157"/>
      <point x="28" y="170"/>
      <point x="28" y="183" type="curve" smooth="yes"/>
      <point x="28" y="207"/>
      <point x="30" y="230"/>
      <point x="30" y="255" type="curve"/>
      <point x="44" y="250"/>
      <point x="56" y="249"/>
      <point x="71" y="249" type="curve" smooth="yes"/>
      <point x="152" y="249"/>
      <point x="141" y="255"/>
      <point x="149" y="280" type="curve" smooth="yes"/>
      <point x="160" y="314"/>
      <point x="169" y="356"/>
      <point x="180" y="389" type="curve"/>
      <point x="138" y="391"/>
      <point x="88" y="383"/>
      <point x="43" y="387" type="curve"/>
      <point x="42" y="419"/>
      <point x="43" y="443"/>
      <point x="42" y="475" type="curve"/>
      <point x="93" y="478"/>
      <point x="145" y="478"/>
      <point x="196" y="478" type="curve" smooth="yes"/>
      <point x="203" y="478"/>
      <point x="212" y="478"/>
      <point x="215" y="485" type="curve"/>
      <point x="215" y="484" type="line"/>
      <point x="224" y="493"/>
      <point x="255" y="586"/>
      <point x="262" y="631" type="curve"/>
      <point x="289" y="634"/>
      <point x="360" y="622"/>
      <point x="371" y="628" type="curve"/>
      <point x="368" y="593"/>
      <point x="338" y="522"/>
      <point x="329" y="490" type="curve"/>
      <point x="329" y="489"/>
      <point x="328" y="488"/>
      <point x="328" y="487" type="curve" name="hr08"/>
      <point x="369" y="481"/>
      <point x="415" y="476"/>
      <point x="456" y="483" type="curve"/>
      <point x="480" y="520"/>
      <point x="495" y="591"/>
      <point x="506" y="634" type="curve"/>
      <point x="540" y="624"/>
      <point x="584" y="642"/>
      <point x="612" y="627" type="curve"/>
      <point x="613" y="588"/>
      <point x="570" y="509"/>
      <point x="576" y="478" type="curve" name="hr09"/>
      <point x="591" y="478" type="line"/>
      <point x="596" y="476"/>
      <point x="606" y="476"/>
      <point x="616" y="476" type="curve" smooth="yes"/>
      <point x="623" y="476"/>
      <point x="629" y="476"/>
      <point x="634" y="476" type="curve"/>
      <point x="634" y="448"/>
      <point x="638" y="430"/>
      <point x="641" y="391" type="curve"/>
      <point x="607" y="390"/>
      <point x="573" y="389"/>
    </contour>
    <contour>
      <point x="384" y="257" type="line"/>
      <point x="380" y="301"/>
      <point x="439" y="353"/>
      <point x="420" y="389" type="curve"/>
      <point x="379" y="389"/>
      <point x="338" y="391"/>
      <point x="297" y="391" type="curve"/>
      <point x="295" y="389"/>
      <point x="294" y="387"/>
      <point x="292" y="385" type="curve"/>
      <point x="279" y="351"/>
      <point x="256" y="277"/>
      <point x="249" y="258" type="curve"/>
      <point x="251" y="256"/>
      <point x="252" y="254"/>
      <point x="254" y="252" type="curve"/>
      <point x="295" y="252"/>
      <point x="337" y="253"/>
      <point x="379" y="253" type="curve"/>
      <point x="383" y="257" type="line"/>
      <point x="383" y="256" type="line"/>
    </contour>
    <contour>
      <point x="261" y="262" type="curve"/>
      <point x="267" y="279"/>
      <point x="297" y="359"/>
      <point x="301" y="381" type="curve"/>
      <point x="339" y="381"/>
      <point x="377" y="379"/>
      <point x="414" y="379" type="curve"/>
      <point x="404" y="344"/>
      <point x="376" y="299"/>
      <point x="375" y="263" type="curve"/>
      <point x="337" y="264"/>
      <point x="297" y="261"/>
    </contour>
    <contour>
      <point x="374" y="259" type="line"/>
      <point x="375" y="259" type="line"/>
      <point x="374" y="258" type="line"/>
    </contour>
  </outline>
</glyph>
<glyph name="dollar" format="1">
  <advance width="445"/>
  <unicode hex="0024"/>
  <outline>
    <contour>
      <point x="343" y="329" type="curve" smooth="yes" name="hr01"/>
      <point x="295" y="365"/>
      <point x="193" y="406"/>
      <point x="193" y="473" type="curve" smooth="yes"/>
      <point x="193" y="496"/>
      <point x="208" y="517"/>
      <point x="233" y="517" type="curve" smooth="yes"/>
      <point x="301" y="517"/>
      <point x="220" y="434"/>
      <point x="340" y="434" type="curve" name="hr02"/>
      <point x="358" y="436"/>
      <point x="370" y="438"/>
      <point x="388" y="436" type="curve"/>
      <point x="411" y="436"/>
      <point x="433" y="438"/>
      <point x="433" y="479" type="curve" smooth="yes"/>
      <point x="433" y="586"/>
      <point x="376" y="633"/>
      <point x="304" y="650" type="curve"/>
      <point x="302" y="652" type="line"/>
      <point x="302" y="653"/>
      <point x="301" y="653"/>
      <point x="301" y="654" type="curve" name="hr03"/>
      <point x="301" y="740" type="line" smooth="yes"/>
      <point x="301" y="761"/>
      <point x="220" y="759"/>
      <point x="219" y="759" type="curve" smooth="yes"/>
      <point x="160" y="759"/>
      <point x="148" y="762"/>
      <point x="148" y="716" type="curve" smooth="yes"/>
      <point x="148" y="697"/>
      <point x="149" y="673"/>
      <point x="153" y="654" type="curve"/>
      <point x="142" y="648"/>
      <point x="129" y="646"/>
      <point x="118" y="641" type="curve" smooth="yes"/>
      <point x="62" y="615"/>
      <point x="22" y="567"/>
      <point x="22" y="510" type="curve" smooth="yes" name="hr04"/>
      <point x="22" y="427"/>
      <point x="72" y="369"/>
      <point x="132" y="322" type="curve" smooth="yes"/>
      <point x="160" y="300"/>
      <point x="259" y="229"/>
      <point x="259" y="173" type="curve" smooth="yes"/>
      <point x="259" y="146"/>
      <point x="234" y="136"/>
      <point x="216" y="136" type="curve" smooth="yes"/>
      <point x="177" y="136"/>
      <point x="185" y="166"/>
      <point x="179" y="185" type="curve"/>
      <point x="179" y="248"/>
      <point x="159" y="248"/>
      <point x="67" y="248" type="curve" smooth="yes" name="hr05"/>
      <point x="11" y="248"/>
      <point x="15" y="220"/>
      <point x="15" y="173" type="curve" smooth="yes"/>
      <point x="15" y="100"/>
      <point x="34" y="42"/>
      <point x="97" y="16" type="curve" smooth="yes"/>
      <point x="125" y="4"/>
      <point x="151" y="5"/>
      <point x="151" y="-43" type="curve" smooth="yes"/>
      <point x="151" y="-49"/>
      <point x="151" y="-54"/>
      <point x="151" y="-59" type="curve" smooth="yes"/>
      <point x="151" y="-85"/>
      <point x="156" y="-103"/>
      <point x="215" y="-103" type="curve" smooth="yes" name="hr06"/>
      <point x="221" y="-103"/>
      <point x="227" y="-103"/>
      <point x="232" y="-101" type="curve"/>
      <point x="269" y="-101" type="line" smooth="yes"/>
      <point x="300" y="-101"/>
      <point x="306" y="-74"/>
      <point x="306" y="-47" type="curve" smooth="yes"/>
      <point x="306" y="-30"/>
      <point x="304" y="-12"/>
      <point x="304" y="1" type="curve"/>
      <point x="320" y="5"/>
      <point x="339" y="22"/>
      <point x="351" y="30" type="curve" smooth="yes"/>
      <point x="403" y="65"/>
      <point x="426" y="116"/>
      <point x="426" y="168" type="curve" smooth="yes"/>
      <point x="426" y="228"/>
      <point x="396" y="289"/>
    </contour>
    <contour>
      <point x="337" y="321" type="curve" smooth="yes"/>
      <point x="383" y="286"/>
      <point x="417" y="222"/>
      <point x="417" y="161" type="curve" smooth="yes"/>
      <point x="417" y="86"/>
      <point x="361" y="41"/>
      <point x="301" y="11" type="curve"/>
      <point x="300" y="11" type="line"/>
      <point x="295" y="8"/>
      <point x="294" y="3"/>
      <point x="294" y="-3" type="curve" smooth="yes" name="hr07"/>
      <point x="294" y="-12"/>
      <point x="294" y="-19"/>
      <point x="294" y="-28" type="curve" smooth="yes"/>
      <point x="294" y="-50" type="line" smooth="yes"/>
      <point x="294" y="-80"/>
      <point x="287" y="-88"/>
      <point x="276" y="-89" type="curve"/>
      <point x="252" y="-86"/>
      <point x="230" y="-92"/>
      <point x="203" y="-93" type="curve" smooth="yes"/>
      <point x="189" y="-93"/>
      <point x="166" y="-93"/>
      <point x="161" y="-74" type="curve"/>
      <point x="161" y="-63"/>
      <point x="162" y="-51"/>
      <point x="162" y="-39" type="curve" smooth="yes"/>
      <point x="162" y="56"/>
      <point x="24" y="-18"/>
      <point x="24" y="174" type="curve" smooth="yes"/>
      <point x="24" y="180"/>
      <point x="24" y="187"/>
      <point x="24" y="194" type="curve" smooth="yes"/>
      <point x="24" y="242"/>
      <point x="49" y="237"/>
      <point x="74" y="237" type="curve"/>
      <point x="93" y="238"/>
      <point x="112" y="233"/>
      <point x="130" y="233" type="curve" smooth="yes"/>
      <point x="149" y="233"/>
      <point x="169" y="229"/>
      <point x="169" y="205" type="curve" smooth="yes"/>
      <point x="169" y="201"/>
      <point x="168" y="196"/>
      <point x="168" y="192" type="curve" smooth="yes"/>
      <point x="168" y="146"/>
      <point x="189" y="125"/>
      <point x="218" y="125" type="curve" smooth="yes" name="hr08"/>
      <point x="243" y="125"/>
      <point x="268" y="143"/>
      <point x="268" y="175" type="curve" smooth="yes"/>
      <point x="268" y="210"/>
      <point x="242" y="238"/>
      <point x="219" y="261" type="curve" smooth="yes"/>
      <point x="143" y="339"/>
      <point x="33" y="381"/>
      <point x="33" y="507" type="curve" smooth="yes"/>
      <point x="33" y="565"/>
      <point x="71" y="609"/>
      <point x="123" y="632" type="curve" smooth="yes"/>
      <point x="132" y="636"/>
      <point x="163" y="642"/>
      <point x="163" y="652" type="curve" smooth="yes"/>
      <point x="163" y="670"/>
      <point x="157" y="733"/>
      <point x="157" y="738" type="curve"/>
      <point x="160" y="747"/>
      <point x="184" y="748"/>
      <point x="205" y="748" type="curve" smooth="yes"/>
      <point x="226" y="748"/>
      <point x="267" y="751"/>
      <point x="289" y="740" type="curve"/>
      <point x="291" y="738" type="line"/>
      <point x="291" y="719"/>
      <point x="286" y="699"/>
      <point x="286" y="680" type="curve" smooth="yes"/>
      <point x="286" y="626"/>
      <point x="316" y="645"/>
      <point x="341" y="629" type="curve" smooth="yes"/>
      <point x="398" y="591"/>
      <point x="421" y="544"/>
      <point x="421" y="472" type="curve" smooth="yes"/>
      <point x="421" y="466"/>
      <point x="421" y="459"/>
      <point x="418" y="454" type="curve" smooth="yes"/>
      <point x="416" y="452" type="line" smooth="yes"/>
      <point x="404" y="445"/>
      <point x="387" y="448"/>
      <point x="374" y="448" type="curve" smooth="yes"/>
      <point x="358" y="448"/>
      <point x="340" y="444"/>
      <point x="321" y="444" type="curve" smooth="yes" name="hr09"/>
      <point x="246" y="444"/>
      <point x="299" y="526"/>
      <point x="234" y="526" type="curve" smooth="yes" name="hr10"/>
      <point x="200" y="526"/>
      <point x="184" y="501"/>
      <point x="184" y="474" type="curve" smooth="yes"/>
      <point x="184" y="401"/>
      <point x="285" y="360"/>
    </contour>
  </outline>
</glyph>
<glyph name="ampersand" format="1">
  <advance width="565"/>
  <unicode hex="0026"/>
  <outline>
    <contour>
      <point x="557" y="27" type="curve" smooth="yes" name="hr01"/>
      <point x="558" y="31"/>
      <point x="558" y="34"/>
      <point x="558" y="38" type="curve" smooth="yes"/>
      <point x="558" y="73"/>
      <point x="526" y="107"/>
      <point x="507" y="132" type="curve" smooth="yes"/>
      <point x="499" y="143"/>
      <point x="488" y="150"/>
      <point x="482" y="163" type="curve"/>
      <point x="530" y="277"/>
      <point x="546" y="305"/>
      <point x="546" y="343" type="curve" smooth="yes"/>
      <point x="546" y="400"/>
      <point x="510" y="395"/>
      <point x="456" y="395" type="curve" smooth="yes"/>
      <point x="356" y="395"/>
      <point x="380" y="347"/>
      <point x="364" y="311" type="curve"/>
      <point x="345" y="336"/>
      <point x="327" y="366"/>
      <point x="327" y="398" type="curve"/>
      <point x="356" y="457"/>
      <point x="411" y="509"/>
      <point x="411" y="579" type="curve" smooth="yes" name="hr02"/>
      <point x="411" y="684"/>
      <point x="313" y="735"/>
      <point x="232" y="735" type="curve" smooth="yes"/>
      <point x="154" y="735"/>
      <point x="36" y="684"/>
      <point x="36" y="583" type="curve" smooth="yes" name="hr03"/>
      <point x="36" y="522"/>
      <point x="69" y="462"/>
      <point x="111" y="411" type="curve"/>
      <point x="60" y="366"/>
      <point x="12" y="291"/>
      <point x="12" y="220" type="curve" smooth="yes"/>
      <point x="12" y="93"/>
      <point x="100" y="-6"/>
      <point x="218" y="-6" type="curve" smooth="yes"/>
      <point x="264" y="-6"/>
      <point x="320" y="5"/>
      <point x="361" y="32" type="curve"/>
      <point x="392" y="0"/>
      <point x="429" y="-8"/>
      <point x="476" y="-8" type="curve" smooth="yes" name="hr04"/>
      <point x="503" y="-8"/>
      <point x="546" y="-5"/>
    </contour>
    <contour>
      <point x="547" y="30" type="curve" smooth="yes"/>
      <point x="546" y="26"/>
      <point x="544" y="23"/>
      <point x="542" y="19" type="curve" smooth="yes"/>
      <point x="540" y="17" type="line"/>
      <point x="530" y="12"/>
      <point x="521" y="5"/>
      <point x="509" y="5" type="curve" smooth="yes"/>
      <point x="462" y="4"/>
      <point x="400" y="-7"/>
      <point x="366" y="41" type="curve"/>
      <point x="323" y="21"/>
      <point x="274" y="5"/>
      <point x="226" y="5" type="curve" smooth="yes"/>
      <point x="111" y="5"/>
      <point x="22" y="83"/>
      <point x="22" y="217" type="curve" smooth="yes"/>
      <point x="22" y="289"/>
      <point x="68" y="360"/>
      <point x="121" y="406" type="curve"/>
      <point x="121" y="408"/>
      <point x="122" y="411"/>
      <point x="122" y="413" type="curve"/>
      <point x="84" y="459"/>
      <point x="47" y="522"/>
      <point x="47" y="577" type="curve" smooth="yes"/>
      <point x="47" y="668"/>
      <point x="141" y="725"/>
      <point x="233" y="725" type="curve" smooth="yes"/>
      <point x="309" y="725"/>
      <point x="401" y="677"/>
      <point x="401" y="580" type="curve" smooth="yes"/>
      <point x="401" y="527"/>
      <point x="369" y="497"/>
      <point x="348" y="453" type="curve"/>
      <point x="316" y="399"/>
      <point x="316" y="403"/>
      <point x="316" y="399" type="curve" smooth="yes"/>
      <point x="316" y="368"/>
      <point x="352" y="302"/>
      <point x="371" y="296" type="curve"/>
      <point x="390" y="335"/>
      <point x="371" y="383"/>
      <point x="433" y="383" type="curve" smooth="yes"/>
      <point x="504" y="383" type="line" smooth="yes"/>
      <point x="526" y="383"/>
      <point x="537" y="372"/>
      <point x="537" y="347" type="curve" smooth="yes"/>
      <point x="537" y="310"/>
      <point x="512" y="259"/>
      <point x="504" y="240" type="curve" smooth="yes"/>
      <point x="495" y="219"/>
      <point x="474" y="176"/>
      <point x="473" y="164" type="curve"/>
      <point x="473" y="141"/>
      <point x="548" y="95"/>
      <point x="548" y="39" type="curve" smooth="yes"/>
      <point x="548" y="36"/>
      <point x="547" y="33"/>
    </contour>
    <contour>
      <point x="290" y="149" type="curve"/>
      <point x="290" y="170"/>
      <point x="296" y="194"/>
      <point x="296" y="217" type="curve" smooth="yes"/>
      <point x="296" y="259"/>
      <point x="267" y="295"/>
      <point x="230" y="295" type="curve" smooth="yes"/>
      <point x="189" y="295"/>
      <point x="162" y="259"/>
      <point x="162" y="211" type="curve" smooth="yes"/>
      <point x="162" y="167"/>
      <point x="193" y="131"/>
      <point x="236" y="131" type="curve" smooth="yes"/>
      <point x="253" y="131"/>
      <point x="272" y="138"/>
    </contour>
    <contour>
      <point x="260" y="147" type="line"/>
      <point x="253" y="144"/>
      <point x="246" y="142"/>
      <point x="237" y="142" type="curve" smooth="yes" name="hr05"/>
      <point x="214" y="142"/>
      <point x="187" y="155"/>
      <point x="180" y="176" type="curve" smooth="yes"/>
      <point x="177" y="184"/>
      <point x="174" y="195"/>
      <point x="174" y="203" type="curve" smooth="yes"/>
      <point x="174" y="222" type="line"/>
      <point x="182" y="250"/>
      <point x="182" y="283"/>
      <point x="228" y="283" type="curve" smooth="yes"/>
      <point x="276" y="283"/>
      <point x="286" y="248"/>
      <point x="286" y="216" type="curve" smooth="yes"/>
      <point x="286" y="195"/>
      <point x="282" y="173"/>
      <point x="282" y="156" type="curve"/>
      <point x="276" y="152"/>
      <point x="269" y="150"/>
      <point x="263" y="147" type="curve"/>
    </contour>
    <contour>
      <point x="234" y="623" type="curve" smooth="yes"/>
      <point x="199" y="623"/>
      <point x="186" y="599"/>
      <point x="186" y="570" type="curve" smooth="yes"/>
      <point x="186" y="553"/>
      <point x="199" y="497"/>
      <point x="217" y="497" type="curve" smooth="yes"/>
      <point x="222" y="497" type="line"/>
      <point x="223" y="497"/>
      <point x="223" y="496"/>
      <point x="223" y="496" type="curve"/>
      <point x="245" y="502"/>
      <point x="261" y="545"/>
      <point x="261" y="579" type="curve" smooth="yes"/>
      <point x="261" y="603"/>
      <point x="253" y="623"/>
    </contour>
    <contour>
      <point x="234" y="613" type="curve" smooth="yes"/>
      <point x="237" y="613"/>
      <point x="239" y="613"/>
      <point x="242" y="612" type="curve"/>
      <point x="245" y="609" type="line"/>
      <point x="246" y="606"/>
      <point x="248" y="603"/>
      <point x="249" y="601" type="curve"/>
      <point x="249" y="572"/>
      <point x="251" y="520"/>
      <point x="222" y="506" type="curve"/>
      <point x="219" y="507" type="line"/>
      <point x="204" y="522"/>
      <point x="196" y="548"/>
      <point x="196" y="572" type="curve" smooth="yes" name="hr06"/>
      <point x="196" y="603"/>
      <point x="211" y="613"/>
    </contour>
  </outline>
</glyph>
<glyph name="quotesingle" format="1">
  <advance width="185"/>
  <unicode hex="0027"/>
  <outline>
    <contour>
      <point x="40" y="709" type="curve" name="hr00"/>
      <point x="39" y="709" type="line"/>
      <point x="31" y="701"/>
      <point x="29" y="668"/>
      <point x="29" y="641" type="curve" smooth="yes"/>
      <point x="29" y="571"/>
      <point x="32" y="523"/>
      <point x="32" y="460" type="curve"/>
      <point x="41" y="451"/>
      <point x="72" y="451"/>
      <point x="92" y="451" type="curve" smooth="yes"/>
      <point x="103" y="451"/>
      <point x="113" y="452"/>
      <point x="122" y="455" type="curve"/>
      <point x="150" y="455" type="line"/>
      <point x="151" y="457"/>
      <point x="153" y="458"/>
      <point x="155" y="460" type="curve"/>
      <point x="155" y="543"/>
      <point x="152" y="626"/>
      <point x="152" y="709" type="curve"/>
      <point x="146" y="715"/>
      <point x="134" y="717"/>
      <point x="120" y="717" type="curve" smooth="yes"/>
      <point x="93" y="717"/>
      <point x="58" y="709"/>
    </contour>
    <contour>
      <point x="143" y="703" type="curve"/>
      <point x="143" y="624"/>
      <point x="145" y="545"/>
      <point x="145" y="465" type="curve"/>
      <point x="140" y="465"/>
      <point x="134" y="466"/>
      <point x="129" y="466" type="curve" smooth="yes"/>
      <point x="125" y="466"/>
      <point x="121" y="465"/>
      <point x="117" y="464" type="curve"/>
      <point x="42" y="464" type="line"/>
      <point x="42" y="510"/>
      <point x="40" y="557"/>
      <point x="40" y="604" type="curve" smooth="yes"/>
      <point x="40" y="635"/>
      <point x="43" y="667"/>
      <point x="44" y="699" type="curve"/>
      <point x="76" y="699"/>
      <point x="109" y="703"/>
    </contour>
  </outline>
</glyph>
<glyph name="parenleft" format="1">
  <advance width="314"/>
  <unicode hex="0028"/>
  <outline>
    <contour>
      <point x="105" y="37" type="curve" name="hr00"/>
      <point x="150" y="1"/>
      <point x="203" y="-6"/>
      <point x="263" y="-6" type="curve" smooth="yes"/>
      <point x="294" y="-6"/>
      <point x="295" y="4"/>
      <point x="295" y="83" type="curve" smooth="yes"/>
      <point x="295" y="109"/>
      <point x="295" y="123"/>
      <point x="290" y="134" type="curve"/>
      <point x="199" y="134"/>
      <point x="180" y="224"/>
      <point x="180" y="285" type="curve" smooth="yes"/>
      <point x="180" y="296"/>
      <point x="181" y="307"/>
      <point x="181" y="318" type="curve" smooth="yes"/>
      <point x="182" y="368"/>
      <point x="178" y="497"/>
      <point x="220" y="540" type="curve" smooth="yes"/>
      <point x="236" y="556"/>
      <point x="286" y="571"/>
      <point x="291" y="581" type="curve"/>
      <point x="291" y="596"/>
      <point x="295" y="639"/>
      <point x="295" y="670" type="curve" smooth="yes"/>
      <point x="295" y="729"/>
      <point x="258" y="715"/>
      <point x="216" y="715" type="curve" smooth="yes"/>
      <point x="157" y="715"/>
      <point x="101" y="692"/>
      <point x="68" y="641" type="curve" smooth="yes"/>
      <point x="37" y="593"/>
      <point x="30" y="537"/>
      <point x="30" y="479" type="curve" smooth="yes"/>
      <point x="30" y="438"/>
      <point x="33" y="397"/>
      <point x="33" y="358" type="curve" smooth="yes"/>
      <point x="33" y="317"/>
      <point x="28" y="273"/>
      <point x="28" y="230" type="curve" smooth="yes"/>
      <point x="28" y="157"/>
      <point x="41" y="85"/>
    </contour>
    <contour>
      <point x="111" y="45" type="curve"/>
      <point x="58" y="85"/>
      <point x="36" y="154"/>
      <point x="36" y="224" type="curve" smooth="yes"/>
      <point x="36" y="270"/>
      <point x="43" y="318"/>
      <point x="43" y="363" type="curve" smooth="yes"/>
      <point x="43" y="397"/>
      <point x="41" y="434"/>
      <point x="41" y="470" type="curve" smooth="yes"/>
      <point x="41" y="575"/>
      <point x="60" y="706"/>
      <point x="216" y="706" type="curve" smooth="yes"/>
      <point x="238" y="706"/>
      <point x="261" y="703"/>
      <point x="281" y="700" type="curve"/>
      <point x="283" y="687"/>
      <point x="283" y="674"/>
      <point x="283" y="662" type="curve" smooth="yes"/>
      <point x="283" y="636"/>
      <point x="281" y="610"/>
      <point x="281" y="585" type="curve"/>
      <point x="222" y="565"/>
      <point x="193" y="538"/>
      <point x="183" y="476" type="curve" smooth="yes"/>
      <point x="172" y="412"/>
      <point x="171" y="356"/>
      <point x="171" y="288" type="curve" smooth="yes"/>
      <point x="171" y="233"/>
      <point x="176" y="179"/>
      <point x="226" y="146" type="curve" smooth="yes"/>
      <point x="243" y="134"/>
      <point x="263" y="124"/>
      <point x="285" y="124" type="curve"/>
      <point x="282" y="110"/>
      <point x="282" y="97"/>
      <point x="282" y="83" type="curve" smooth="yes"/>
      <point x="282" y="66"/>
      <point x="283" y="49"/>
      <point x="283" y="32" type="curve" smooth="yes"/>
      <point x="283" y="25"/>
      <point x="282" y="17"/>
      <point x="282" y="10" type="curve"/>
      <point x="280" y="8" type="line" smooth="yes"/>
      <point x="274" y="5"/>
      <point x="268" y="4"/>
      <point x="261" y="4" type="curve" smooth="yes"/>
      <point x="204" y="4"/>
      <point x="155" y="10"/>
    </contour>
    <contour>
      <point x="286" y="700" type="line"/>
      <point x="283" y="700" type="line"/>
    </contour>
  </outline>
</glyph>
<glyph name="plus" format="1">
  <advance width="445"/>
  <unicode hex="002B"/>
  <outline>
    <contour>
      <point x="142" y="109" type="line" name="hr01"/>
      <point x="167" y="109"/>
      <point x="210" y="104"/>
      <point x="246" y="104" type="curve" smooth="yes"/>
      <point x="270" y="104"/>
      <point x="288" y="105"/>
      <point x="298" y="115" type="curve"/>
      <point x="298" y="152"/>
      <point x="306" y="186"/>
      <point x="306" y="224" type="curve" smooth="yes"/>
      <point x="306" y="229"/>
      <point x="305" y="233"/>
      <point x="305" y="237" type="curve" name="hr02"/>
      <point x="335" y="237"/>
      <point x="393" y="236"/>
      <point x="401" y="236" type="curve" smooth="yes"/>
      <point x="423" y="236"/>
      <point x="427" y="244"/>
      <point x="427" y="290" type="curve" smooth="yes"/>
      <point x="427" y="306"/>
      <point x="426" y="322"/>
      <point x="426" y="338" type="curve" smooth="yes"/>
      <point x="426" y="356"/>
      <point x="426" y="374"/>
      <point x="428" y="392" type="curve"/>
      <point x="423" y="402"/>
      <point x="384" y="402"/>
      <point x="369" y="402" type="curve" smooth="yes"/>
      <point x="347" y="402"/>
      <point x="327" y="399"/>
      <point x="315" y="399" type="curve" smooth="yes"/>
      <point x="302" y="399"/>
      <point x="301" y="409"/>
      <point x="301" y="421" type="curve" smooth="yes"/>
      <point x="301" y="452"/>
      <point x="305" y="493"/>
      <point x="305" y="520" type="curve"/>
      <point x="303" y="522"/>
      <point x="301" y="523"/>
      <point x="300" y="525" type="curve"/>
      <point x="280" y="525"/>
      <point x="240" y="521"/>
      <point x="207" y="521" type="curve" smooth="yes" name="hr03"/>
      <point x="186" y="521"/>
      <point x="169" y="522"/>
      <point x="159" y="527" type="curve" name="hr04"/>
      <point x="143" y="521"/>
      <point x="141" y="488"/>
      <point x="141" y="460" type="curve" smooth="yes"/>
      <point x="141" y="435"/>
      <point x="141" y="416"/>
      <point x="141" y="398" type="curve"/>
      <point x="102" y="393"/>
      <point x="62" y="388"/>
      <point x="23" y="388" type="curve" smooth="yes"/>
      <point x="22" y="388"/>
      <point x="21" y="389"/>
      <point x="20" y="389" type="curve"/>
      <point x="14" y="383" type="line"/>
      <point x="14" y="339"/>
      <point x="18" y="295"/>
      <point x="18" y="251" type="curve"/>
      <point x="29" y="230"/>
      <point x="110" y="234"/>
      <point x="133" y="234" type="curve"/>
      <point x="132" y="172"/>
      <point x="131" y="163"/>
      <point x="131" y="154" type="curve" smooth="yes"/>
      <point x="131" y="143"/>
      <point x="133" y="115"/>
      <point x="137" y="115" type="curve"/>
      <point x="138" y="114" type="line" smooth="yes"/>
      <point x="139" y="112"/>
      <point x="139" y="111"/>
      <point x="141" y="110" type="curve" smooth="yes"/>
    </contour>
    <contour>
      <point x="143" y="229" type="line"/>
      <point x="143" y="237" type="line"/>
      <point x="143" y="238"/>
      <point x="142" y="239"/>
      <point x="142" y="240" type="curve"/>
      <point x="141" y="241" type="line"/>
      <point x="141" y="239" type="line"/>
      <point x="131" y="249"/>
      <point x="50" y="242"/>
      <point x="28" y="252" type="curve"/>
      <point x="28" y="294"/>
      <point x="24" y="335"/>
      <point x="24" y="378" type="curve"/>
      <point x="50" y="378"/>
      <point x="137" y="380"/>
      <point x="151" y="394" type="curve"/>
      <point x="151" y="407"/>
      <point x="150" y="423"/>
      <point x="150" y="439" type="curve" smooth="yes"/>
      <point x="150" y="466"/>
      <point x="152" y="495"/>
      <point x="158" y="517" type="curve"/>
      <point x="171" y="512"/>
      <point x="189" y="511"/>
      <point x="207" y="511" type="curve" smooth="yes" name="hr05"/>
      <point x="237" y="511"/>
      <point x="270" y="515"/>
      <point x="295" y="515" type="curve" name="hr06"/>
      <point x="295" y="452" type="line" smooth="yes"/>
      <point x="295" y="432"/>
      <point x="293" y="419"/>
      <point x="293" y="409" type="curve" smooth="yes"/>
      <point x="293" y="394"/>
      <point x="299" y="390"/>
      <point x="330" y="390" type="curve" smooth="yes" name="hr07"/>
      <point x="365" y="390"/>
      <point x="384" y="386"/>
      <point x="395" y="388" type="curve"/>
      <point x="406" y="388"/>
      <point x="410" y="388"/>
      <point x="417" y="388" type="curve"/>
      <point x="416" y="376"/>
      <point x="415" y="363"/>
      <point x="415" y="351" type="curve" smooth="yes"/>
      <point x="415" y="324"/>
      <point x="417" y="298"/>
      <point x="417" y="270" type="curve" smooth="yes"/>
      <point x="417" y="254"/>
      <point x="413" y="246"/>
      <point x="391" y="246" type="curve" smooth="yes" name="hr08"/>
      <point x="372" y="246"/>
      <point x="326" y="249"/>
      <point x="316" y="249" type="curve" smooth="yes"/>
      <point x="305" y="249"/>
      <point x="299" y="248"/>
      <point x="295" y="239" type="curve"/>
      <point x="295" y="211" type="line"/>
      <point x="288" y="189"/>
      <point x="288" y="148"/>
      <point x="288" y="118" type="curve"/>
      <point x="279" y="115"/>
      <point x="265" y="114"/>
      <point x="248" y="114" type="curve" smooth="yes"/>
      <point x="214" y="114"/>
      <point x="171" y="118"/>
      <point x="146" y="119" type="curve"/>
    </contour>
    <contour>
      <point x="306" y="399" type="curve" name="hr09"/>
      <point x="305" y="399" type="line"/>
      <point x="305" y="399"/>
      <point x="304" y="399"/>
      <point x="304" y="400" type="curve" smooth="yes"/>
      <point x="305" y="399"/>
      <point x="305" y="399"/>
    </contour>
  </outline>
</glyph>
<glyph name="period" format="1">
  <advance width="189"/>
  <unicode hex="002E"/>
  <outline>
    <contour>
      <point x="37" y="-4" type="line" smooth="yes" name="hr01"/>
      <point x="75" y="-4"/>
      <point x="113" y="-5"/>
      <point x="152" y="-5" type="curve" name="hr02"/>
      <point x="153" y="-3"/>
      <point x="155" y="-2"/>
      <point x="157" y="0" type="curve"/>
      <point x="157" y="38"/>
      <point x="157" y="80"/>
      <point x="163" y="117" type="curve"/>
      <point x="156" y="130"/>
      <point x="128" y="132"/>
      <point x="101" y="132" type="curve" smooth="yes"/>
      <point x="73" y="132"/>
      <point x="44" y="128"/>
      <point x="31" y="122" type="curve"/>
      <point x="28" y="116" type="line"/>
      <point x="28" y="96"/>
      <point x="24" y="65"/>
      <point x="24" y="38" type="curve" smooth="yes"/>
      <point x="24" y="22"/>
      <point x="25" y="0"/>
      <point x="34" y="-4" type="curve" name="hr03"/>
    </contour>
    <contour>
      <point x="37" y="6" type="curve"/>
      <point x="34" y="14"/>
      <point x="33" y="24"/>
      <point x="33" y="36" type="curve" smooth="yes"/>
      <point x="33" y="62"/>
      <point x="38" y="93"/>
      <point x="38" y="114" type="curve"/>
      <point x="58" y="118"/>
      <point x="83" y="122"/>
      <point x="107" y="122" type="curve" smooth="yes"/>
      <point x="123" y="122"/>
      <point x="138" y="120"/>
      <point x="152" y="116" type="curve"/>
      <point x="146" y="80"/>
      <point x="147" y="41"/>
      <point x="147" y="5" type="curve"/>
      <point x="110" y="5"/>
      <point x="73" y="6"/>
    </contour>
  </outline>
</glyph>
<glyph name="zero" format="1">
  <advance width="513"/>
  <unicode hex="0030"/>
  <outline>
    <contour>
      <point x="78" y="620" type="curve" name="hr01"/>
      <point x="20" y="533"/>
      <point x="25" y="437"/>
      <point x="25" y="334" type="curve" smooth="yes"/>
      <point x="25" y="250"/>
      <point x="29" y="155"/>
      <point x="75" y="84" type="curve" smooth="yes"/>
      <point x="112" y="26"/>
      <point x="181" y="-4"/>
      <point x="251" y="-4" type="curve" smooth="yes"/>
      <point x="450" y="-4"/>
      <point x="493" y="224"/>
      <point x="493" y="388" type="curve" smooth="yes"/>
      <point x="493" y="463"/>
      <point x="485" y="545"/>
      <point x="442" y="608" type="curve" smooth="yes"/>
      <point x="396" y="675"/>
      <point x="324" y="716"/>
      <point x="252" y="716" type="curve" smooth="yes"/>
      <point x="194" y="716"/>
      <point x="103" y="676"/>
    </contour>
    <contour>
      <point x="87" y="616" type="line" smooth="yes"/>
      <point x="115" y="671"/>
      <point x="201" y="706"/>
      <point x="255" y="706" type="curve" smooth="yes"/>
      <point x="323" y="706"/>
      <point x="390" y="668"/>
      <point x="434" y="603" type="curve" smooth="yes"/>
      <point x="479" y="537"/>
      <point x="483" y="450"/>
      <point x="483" y="374" type="curve" smooth="yes"/>
      <point x="483" y="254"/>
      <point x="467" y="105"/>
      <point x="353" y="32" type="curve" smooth="yes"/>
      <point x="323" y="13"/>
      <point x="290" y="4"/>
      <point x="256" y="4" type="curve" smooth="yes"/>
      <point x="184" y="4"/>
      <point x="110" y="43"/>
      <point x="74" y="104" type="curve" smooth="yes"/>
      <point x="37" y="167"/>
      <point x="39" y="245"/>
      <point x="37" y="315" type="curve" smooth="yes"/>
      <point x="36" y="343"/>
      <point x="35" y="372"/>
      <point x="35" y="400" type="curve" smooth="yes"/>
      <point x="35" y="475"/>
      <point x="43" y="548"/>
      <point x="86" y="615" type="curve" smooth="yes"/>
    </contour>
    <contour>
      <point x="229" y="164" type="curve"/>
      <point x="238" y="159"/>
      <point x="247" y="157"/>
      <point x="254" y="157" type="curve" smooth="yes"/>
      <point x="300" y="157"/>
      <point x="323" y="223"/>
      <point x="323" y="263" type="curve" smooth="yes" name="hr02"/>
      <point x="323" y="305"/>
      <point x="328" y="352"/>
      <point x="328" y="398" type="curve" smooth="yes"/>
      <point x="328" y="464"/>
      <point x="315" y="556"/>
      <point x="252" y="556" type="curve" smooth="yes"/>
      <point x="180" y="556"/>
      <point x="170" y="449"/>
      <point x="170" y="384" type="curve" smooth="yes"/>
      <point x="170" y="330"/>
      <point x="171" y="166"/>
    </contour>
    <contour>
      <point x="231" y="174" type="line"/>
      <point x="229" y="174" type="line" smooth="yes"/>
      <point x="185" y="186"/>
      <point x="182" y="310"/>
      <point x="182" y="353" type="curve" smooth="yes" name="hr03"/>
      <point x="182" y="391"/>
      <point x="186" y="430"/>
      <point x="190" y="467" type="curve" smooth="yes"/>
      <point x="194" y="504"/>
      <point x="201" y="546"/>
      <point x="254" y="546" type="curve" smooth="yes"/>
      <point x="320" y="546"/>
      <point x="318" y="411"/>
      <point x="318" y="378" type="curve" smooth="yes"/>
      <point x="318" y="343"/>
      <point x="314" y="308"/>
      <point x="314" y="273" type="curve" smooth="yes"/>
      <point x="314" y="261"/>
      <point x="305" y="167"/>
      <point x="255" y="167" type="curve" smooth="yes"/>
      <point x="248" y="167"/>
      <point x="241" y="169"/>
      <point x="234" y="173" type="curve" smooth="yes"/>
    </contour>
  </outline>
</glyph>
<glyph name="two" format="1">
  <advance width="498"/>
  <unicode hex="0032"/>
  <outline>
    <contour>
      <point x="76" y="-6" type="line" name="hr01"/>
      <point x="203" y="-4"/>
      <point x="331" y="-1"/>
      <point x="459" y="-1" type="curve" name="hr02"/>
      <point x="460" y="0"/>
      <point x="461" y="0"/>
      <point x="463" y="1" type="curve" smooth="yes"/>
      <point x="464" y="2" type="line"/>
      <point x="464" y="3"/>
      <point x="464" y="5"/>
      <point x="465" y="7" type="curve"/>
      <point x="461" y="15"/>
      <point x="462" y="25"/>
      <point x="462" y="34" type="curve"/>
      <point x="465" y="42"/>
      <point x="466" y="54"/>
      <point x="466" y="68" type="curve" smooth="yes"/>
      <point x="466" y="99"/>
      <point x="462" y="139"/>
      <point x="451" y="150" type="curve"/>
      <point x="383" y="150"/>
      <point x="314" y="146"/>
      <point x="246" y="146" type="curve" smooth="yes"/>
      <point x="227" y="146"/>
      <point x="205" y="146"/>
      <point x="205" y="151" type="curve" smooth="yes"/>
      <point x="205" y="162"/>
      <point x="213" y="175"/>
      <point x="213" y="184" type="curve"/>
      <point x="265" y="294"/>
      <point x="479" y="269"/>
      <point x="479" y="454" type="curve" smooth="yes"/>
      <point x="479" y="582"/>
      <point x="457" y="716"/>
      <point x="260" y="716" type="curve" smooth="yes"/>
      <point x="221" y="716"/>
      <point x="142" y="710"/>
      <point x="102" y="674" type="curve" smooth="yes"/>
      <point x="51" y="628"/>
      <point x="25" y="559"/>
      <point x="25" y="491" type="curve" smooth="yes"/>
      <point x="25" y="471"/>
      <point x="29" y="421"/>
      <point x="37" y="413" type="curve"/>
      <point x="57" y="413"/>
      <point x="78" y="410"/>
      <point x="99" y="410" type="curve" smooth="yes" name="hr03"/>
      <point x="121" y="410"/>
      <point x="182" y="413"/>
      <point x="192" y="423" type="curve"/>
      <point x="192" y="468"/>
      <point x="200" y="542"/>
      <point x="257" y="542" type="curve" smooth="yes" name="hr04"/>
      <point x="287" y="542"/>
      <point x="307" y="506"/>
      <point x="307" y="471" type="curve" smooth="yes"/>
      <point x="307" y="417"/>
      <point x="260" y="393"/>
      <point x="222" y="371" type="curve" smooth="yes"/>
      <point x="164" y="337"/>
      <point x="107" y="303"/>
      <point x="62" y="254" type="curve" smooth="yes"/>
      <point x="20" y="208"/>
      <point x="25" y="60"/>
      <point x="25" y="4" type="curve"/>
      <point x="23" y="4" type="line"/>
      <point x="23" y="4"/>
      <point x="24" y="3"/>
      <point x="25" y="3" type="curve"/>
      <point x="25" y="1" type="line" smooth="yes"/>
      <point x="26" y="-1"/>
      <point x="26" y="-2"/>
      <point x="27" y="-4" type="curve" smooth="yes"/>
      <point x="28" y="-5" type="line"/>
      <point x="29" y="-5"/>
      <point x="30" y="-6"/>
      <point x="31" y="-6" type="curve" name="hr05"/>
    </contour>
    <contour>
      <point x="76" y="4" type="curve"/>
      <point x="35" y="4" type="line"/>
      <point x="36" y="8"/>
      <point x="37" y="21"/>
      <point x="37" y="29" type="curve" smooth="yes"/>
      <point x="37" y="69" type="line" smooth="yes"/>
      <point x="37" y="119"/>
      <point x="34" y="207"/>
      <point x="69" y="247" type="curve" smooth="yes"/>
      <point x="112" y="297"/>
      <point x="171" y="329"/>
      <point x="227" y="362" type="curve" smooth="yes"/>
      <point x="265" y="384"/>
      <point x="318" y="414"/>
      <point x="318" y="468" type="curve" smooth="yes"/>
      <point x="318" y="509"/>
      <point x="293" y="553"/>
      <point x="256" y="553" type="curve" smooth="yes"/>
      <point x="195" y="553"/>
      <point x="182" y="475"/>
      <point x="182" y="428" type="curve"/>
      <point x="151" y="427"/>
      <point x="120" y="420"/>
      <point x="91" y="420" type="curve" smooth="yes"/>
      <point x="74" y="420"/>
      <point x="58" y="422"/>
      <point x="42" y="423" type="curve"/>
      <point x="41" y="443"/>
      <point x="36" y="466"/>
      <point x="36" y="487" type="curve" smooth="yes"/>
      <point x="36" y="554"/>
      <point x="57" y="621"/>
      <point x="108" y="666" type="curve" smooth="yes"/>
      <point x="152" y="705"/>
      <point x="237" y="707"/>
      <point x="270" y="707" type="curve" smooth="yes"/>
      <point x="392" y="707"/>
      <point x="468" y="641"/>
      <point x="468" y="462" type="curve" smooth="yes"/>
      <point x="468" y="390"/>
      <point x="444" y="347"/>
      <point x="375" y="307" type="curve" smooth="yes"/>
      <point x="285" y="255"/>
      <point x="195" y="231"/>
      <point x="195" y="152" type="curve" smooth="yes"/>
      <point x="195" y="143"/>
      <point x="200" y="137"/>
      <point x="217" y="137" type="curve" smooth="yes"/>
      <point x="316" y="137" type="line" smooth="yes"/>
      <point x="359" y="137"/>
      <point x="403" y="140"/>
      <point x="447" y="140" type="curve"/>
      <point x="453" y="123"/>
      <point x="454" y="105"/>
      <point x="454" y="87" type="curve" smooth="yes"/>
      <point x="454" y="66"/>
      <point x="451" y="45"/>
      <point x="451" y="24" type="curve" smooth="yes"/>
      <point x="451" y="19"/>
      <point x="451" y="13"/>
      <point x="453" y="9" type="curve"/>
      <point x="327" y="9"/>
      <point x="201" y="6"/>
    </contour>
  </outline>
</glyph>
<glyph name="three" format="1">
  <advance width="492"/>
  <unicode hex="0033"/>
  <outline>
    <contour>
      <point x="67" y="39" type="curve" smooth="yes" name="hr01"/>
      <point x="109" y="-4"/>
      <point x="194" y="-6"/>
      <point x="244" y="-6" type="curve" smooth="yes"/>
      <point x="312" y="-6"/>
      <point x="380" y="10"/>
      <point x="422" y="70" type="curve" smooth="yes"/>
      <point x="456" y="118"/>
      <point x="461" y="213"/>
      <point x="461" y="292" type="curve" smooth="yes"/>
      <point x="461" y="327"/>
      <point x="460" y="359"/>
      <point x="460" y="383" type="curve" smooth="yes"/>
      <point x="460" y="500" type="line" smooth="yes"/>
      <point x="460" y="513"/>
      <point x="461" y="531"/>
      <point x="461" y="548" type="curve" smooth="yes"/>
      <point x="461" y="666"/>
      <point x="353" y="715"/>
      <point x="248" y="715" type="curve" smooth="yes"/>
      <point x="129" y="715"/>
      <point x="22" y="648"/>
      <point x="22" y="537" type="curve" smooth="yes"/>
      <point x="22" y="531"/>
      <point x="21" y="523"/>
      <point x="21" y="514" type="curve" smooth="yes"/>
      <point x="21" y="501"/>
      <point x="22" y="487"/>
      <point x="28" y="482" type="curve"/>
      <point x="59" y="482"/>
      <point x="92" y="480"/>
      <point x="125" y="480" type="curve" smooth="yes"/>
      <point x="141" y="480"/>
      <point x="159" y="481"/>
      <point x="165" y="487" type="curve"/>
      <point x="178" y="515"/>
      <point x="216" y="544"/>
      <point x="251" y="544" type="curve" smooth="yes" name="hr02"/>
      <point x="274" y="544"/>
      <point x="301" y="526"/>
      <point x="301" y="493" type="curve" smooth="yes"/>
      <point x="301" y="420"/>
      <point x="209" y="447"/>
      <point x="163" y="433" type="curve"/>
      <point x="160" y="427" type="line"/>
      <point x="160" y="423"/>
      <point x="161" y="415"/>
      <point x="161" y="411" type="curve" smooth="yes" name="hr03"/>
      <point x="161" y="390"/>
      <point x="156" y="366"/>
      <point x="156" y="340" type="curve" smooth="yes"/>
      <point x="156" y="322"/>
      <point x="157" y="291"/>
      <point x="171" y="284" type="curve"/>
      <point x="185" y="287"/>
      <point x="200" y="289"/>
      <point x="215" y="289" type="curve" smooth="yes"/>
      <point x="275" y="289"/>
      <point x="300" y="256"/>
      <point x="300" y="225" type="curve" smooth="yes"/>
      <point x="300" y="196"/>
      <point x="279" y="167"/>
      <point x="246" y="167" type="curve" smooth="yes"/>
      <point x="224" y="167"/>
      <point x="185" y="187"/>
      <point x="171" y="218" type="curve" smooth="yes"/>
      <point x="167" y="225"/>
      <point x="167" y="226"/>
      <point x="161" y="233" type="curve"/>
      <point x="116" y="233"/>
      <point x="72" y="224"/>
      <point x="28" y="224" type="curve"/>
      <point x="26" y="222"/>
      <point x="25" y="220"/>
      <point x="23" y="218" type="curve"/>
      <point x="27" y="205"/>
      <point x="27" y="174"/>
      <point x="27" y="153" type="curve" smooth="yes"/>
      <point x="27" y="112"/>
      <point x="37" y="69"/>
    </contour>
    <contour>
      <point x="74" y="47" type="line"/>
      <point x="29" y="92"/>
      <point x="43" y="156"/>
      <point x="34" y="214" type="curve"/>
      <point x="40" y="213"/>
      <point x="45" y="213"/>
      <point x="51" y="213" type="curve" smooth="yes"/>
      <point x="85" y="213"/>
      <point x="121" y="222"/>
      <point x="157" y="223" type="curve"/>
      <point x="167" y="189"/>
      <point x="212" y="159"/>
      <point x="247" y="159" type="curve" smooth="yes" name="hr04"/>
      <point x="291" y="159"/>
      <point x="310" y="184"/>
      <point x="310" y="216" type="curve" smooth="yes"/>
      <point x="310" y="264"/>
      <point x="276" y="299"/>
      <point x="215" y="299" type="curve" smooth="yes"/>
      <point x="201" y="299"/>
      <point x="185" y="297"/>
      <point x="172" y="295" type="curve"/>
      <point x="167" y="307"/>
      <point x="165" y="320"/>
      <point x="165" y="334" type="curve" smooth="yes"/>
      <point x="165" y="359"/>
      <point x="171" y="384"/>
      <point x="171" y="408" type="curve" smooth="yes"/>
      <point x="171" y="414"/>
      <point x="170" y="419"/>
      <point x="170" y="424" type="curve"/>
      <point x="223" y="437"/>
      <point x="311" y="413"/>
      <point x="311" y="493" type="curve" smooth="yes"/>
      <point x="311" y="533"/>
      <point x="281" y="554"/>
      <point x="252" y="554" type="curve" smooth="yes"/>
      <point x="214" y="554"/>
      <point x="172" y="524"/>
      <point x="157" y="493" type="curve"/>
      <point x="142" y="491"/>
      <point x="126" y="490"/>
      <point x="111" y="490" type="curve" smooth="yes"/>
      <point x="84" y="490"/>
      <point x="58" y="492"/>
      <point x="33" y="492" type="curve"/>
      <point x="33" y="508"/>
      <point x="32" y="523"/>
      <point x="32" y="537" type="curve" smooth="yes"/>
      <point x="32" y="640"/>
      <point x="130" y="705"/>
      <point x="253" y="705" type="curve" smooth="yes"/>
      <point x="364" y="705"/>
      <point x="450" y="655"/>
      <point x="450" y="539" type="curve" smooth="yes"/>
      <point x="450" y="525"/>
      <point x="450" y="511"/>
      <point x="450" y="497" type="curve" smooth="yes"/>
      <point x="450" y="384" type="line" smooth="yes"/>
      <point x="450" y="363"/>
      <point x="451" y="333"/>
      <point x="451" y="298" type="curve" smooth="yes"/>
      <point x="451" y="122"/>
      <point x="436" y="3"/>
      <point x="241" y="3" type="curve" smooth="yes"/>
      <point x="179" y="3"/>
      <point x="113" y="17"/>
      <point x="74" y="45" type="curve"/>
    </contour>
    <contour>
      <point x="65" y="43" type="line"/>
      <point x="65" y="44" type="line"/>
      <point x="65" y="43"/>
      <point x="65" y="42"/>
      <point x="66" y="41" type="curve" smooth="yes"/>
    </contour>
  </outline>
</glyph>
<glyph name="five" format="1">
  <advance width="503"/>
  <unicode hex="0035"/>
  <outline>
    <contour>
      <point x="185" y="226" type="line" name="hr01"/>
      <point x="137" y="224"/>
      <point x="89" y="221"/>
      <point x="42" y="221" type="curve" smooth="yes"/>
      <point x="34" y="221"/>
      <point x="33" y="165"/>
      <point x="33" y="140" type="curve" smooth="yes"/>
      <point x="33" y="35"/>
      <point x="142" y="-15"/>
      <point x="241" y="-15" type="curve" smooth="yes" name="hr02"/>
      <point x="334" y="-15"/>
      <point x="403" y="19"/>
      <point x="453" y="80" type="curve" smooth="yes"/>
      <point x="478" y="110"/>
      <point x="481" y="159"/>
      <point x="481" y="200" type="curve" smooth="yes"/>
      <point x="481" y="343"/>
      <point x="444" y="516"/>
      <point x="258" y="516" type="curve" smooth="yes"/>
      <point x="237" y="516"/>
      <point x="217" y="514"/>
      <point x="197" y="510" type="curve"/>
      <point x="193" y="519"/>
      <point x="192" y="532"/>
      <point x="192" y="542" type="curve"/>
      <point x="248" y="542"/>
      <point x="306" y="545"/>
      <point x="363" y="545" type="curve" smooth="yes"/>
      <point x="380" y="545"/>
      <point x="400" y="544"/>
      <point x="419" y="544" type="curve" smooth="yes"/>
      <point x="436" y="544"/>
      <point x="461" y="545"/>
      <point x="465" y="554" type="curve"/>
      <point x="465" y="574" type="line"/>
      <point x="468" y="582"/>
      <point x="470" y="632"/>
      <point x="470" y="667" type="curve" smooth="yes"/>
      <point x="470" y="685"/>
      <point x="469" y="698"/>
      <point x="468" y="701" type="curve"/>
      <point x="468" y="702" type="line"/>
      <point x="466" y="704"/>
      <point x="464" y="705"/>
      <point x="463" y="707" type="curve"/>
      <point x="320" y="707"/>
      <point x="178" y="701"/>
      <point x="36" y="701" type="curve"/>
      <point x="34" y="699"/>
      <point x="33" y="697"/>
      <point x="31" y="695" type="curve"/>
      <point x="31" y="580"/>
      <point x="33" y="466"/>
      <point x="33" y="351" type="curve"/>
      <point x="39" y="345"/>
      <point x="54" y="343"/>
      <point x="70" y="343" type="curve" smooth="yes"/>
      <point x="102" y="343"/>
      <point x="154" y="351"/>
      <point x="208" y="351" type="curve" smooth="yes"/>
      <point x="280" y="351"/>
      <point x="312" y="314"/>
      <point x="312" y="256" type="curve" smooth="yes"/>
      <point x="312" y="204"/>
      <point x="285" y="161"/>
      <point x="240" y="161" type="curve" smooth="yes"/>
      <point x="190" y="161"/>
      <point x="197" y="205"/>
      <point x="190" y="219" type="curve"/>
      <point x="190" y="221" type="line"/>
    </contour>
    <contour>
      <point x="181" y="214" type="curve" name="hr03"/>
      <point x="186" y="180"/>
      <point x="203" y="152"/>
      <point x="237" y="152" type="curve" smooth="yes"/>
      <point x="291" y="152"/>
      <point x="321" y="201"/>
      <point x="321" y="249" type="curve" smooth="yes"/>
      <point x="321" y="310"/>
      <point x="292" y="359"/>
      <point x="216" y="359" type="curve" smooth="yes" name="hr04"/>
      <point x="157" y="359"/>
      <point x="101" y="355"/>
      <point x="43" y="355" type="curve"/>
      <point x="43" y="467"/>
      <point x="41" y="578"/>
      <point x="41" y="691" type="curve"/>
      <point x="180" y="691"/>
      <point x="320" y="697"/>
      <point x="459" y="697" type="curve"/>
      <point x="459" y="649"/>
      <point x="455" y="604"/>
      <point x="455" y="558" type="curve"/>
      <point x="441" y="555"/>
      <point x="426" y="554"/>
      <point x="410" y="554" type="curve" smooth="yes"/>
      <point x="394" y="554"/>
      <point x="377" y="555"/>
      <point x="361" y="555" type="curve" smooth="yes"/>
      <point x="302" y="555"/>
      <point x="244" y="552"/>
      <point x="186" y="552" type="curve"/>
      <point x="184" y="550"/>
      <point x="183" y="548"/>
      <point x="181" y="546" type="curve"/>
      <point x="181" y="543" type="line" smooth="yes"/>
      <point x="181" y="534"/>
      <point x="183" y="500"/>
      <point x="195" y="500" type="curve" smooth="yes"/>
      <point x="215" y="500"/>
      <point x="236" y="506"/>
      <point x="257" y="506" type="curve" smooth="yes"/>
      <point x="432" y="506"/>
      <point x="471" y="349"/>
      <point x="471" y="224" type="curve" smooth="yes"/>
      <point x="471" y="161"/>
      <point x="469" y="103"/>
      <point x="421" y="59" type="curve" smooth="yes"/>
      <point x="379" y="20"/>
      <point x="306" y="-4"/>
      <point x="236" y="-4" type="curve" smooth="yes"/>
      <point x="145" y="-4"/>
      <point x="43" y="40"/>
      <point x="43" y="141" type="curve" smooth="yes"/>
      <point x="43" y="164"/>
      <point x="47" y="187"/>
      <point x="48" y="211" type="curve"/>
      <point x="92" y="213"/>
      <point x="136" y="214"/>
      <point x="180" y="216" type="curve"/>
      <point x="180" y="215"/>
      <point x="181" y="214"/>
    </contour>
  </outline>
</glyph>
<glyph name="six" format="1">
  <advance width="503"/>
  <unicode hex="0036"/>
  <outline>
    <contour>
      <point x="486" y="203" type="curve" smooth="yes" name="hr01"/>
      <point x="483" y="236"/>
      <point x="480" y="272"/>
      <point x="460" y="301" type="curve" smooth="yes"/>
      <point x="429" y="346"/>
      <point x="380" y="364"/>
      <point x="330" y="364" type="curve" smooth="yes"/>
      <point x="288" y="364"/>
      <point x="245" y="352"/>
      <point x="209" y="334" type="curve"/>
      <point x="209" y="357"/>
      <point x="205" y="376"/>
      <point x="205" y="441" type="curve" smooth="yes"/>
      <point x="205" y="495"/>
      <point x="214" y="556"/>
      <point x="265" y="556" type="curve" smooth="yes"/>
      <point x="306" y="556"/>
      <point x="321" y="513"/>
      <point x="321" y="479" type="curve"/>
      <point x="323" y="477"/>
      <point x="324" y="475"/>
      <point x="326" y="473" type="curve"/>
      <point x="370" y="473"/>
      <point x="417" y="473"/>
      <point x="461" y="480" type="curve"/>
      <point x="471" y="490"/>
      <point x="470" y="515"/>
      <point x="470" y="529" type="curve" smooth="yes"/>
      <point x="470" y="628"/>
      <point x="403" y="713"/>
      <point x="286" y="713" type="curve" smooth="yes"/>
      <point x="250" y="713"/>
      <point x="213" y="706"/>
      <point x="179" y="695" type="curve" smooth="yes"/>
      <point x="130" y="679"/>
      <point x="53" y="634"/>
      <point x="43" y="579" type="curve"/>
      <point x="30" y="552"/>
      <point x="32" y="472"/>
      <point x="30" y="440" type="curve" smooth="yes"/>
      <point x="28" y="409"/>
      <point x="27" y="380"/>
      <point x="27" y="347" type="curve" smooth="yes"/>
      <point x="27" y="202"/>
      <point x="40" y="-9"/>
      <point x="238" y="-9" type="curve" smooth="yes"/>
      <point x="370" y="-9"/>
      <point x="487" y="51"/>
      <point x="487" y="183" type="curve" smooth="yes" name="hr02"/>
      <point x="487" y="189"/>
      <point x="486" y="196"/>
    </contour>
    <contour>
      <point x="476" y="202" type="curve" smooth="yes"/>
      <point x="476" y="195"/>
      <point x="477" y="189"/>
      <point x="477" y="182" type="curve" smooth="yes"/>
      <point x="477" y="56"/>
      <point x="364" y="1"/>
      <point x="239" y="1" type="curve" smooth="yes"/>
      <point x="55" y="1"/>
      <point x="36" y="205"/>
      <point x="36" y="345" type="curve" smooth="yes"/>
      <point x="36" y="410"/>
      <point x="41" y="474"/>
      <point x="45" y="538" type="curve"/>
      <point x="55" y="646"/>
      <point x="175" y="704"/>
      <point x="278" y="704" type="curve" smooth="yes"/>
      <point x="382" y="704"/>
      <point x="462" y="632"/>
      <point x="462" y="534" type="curve" smooth="yes"/>
      <point x="462" y="520"/>
      <point x="460" y="504"/>
      <point x="456" y="489" type="curve"/>
      <point x="415" y="482"/>
      <point x="372" y="483"/>
      <point x="331" y="483" type="curve" name="hr03"/>
      <point x="329" y="532"/>
      <point x="300" y="567"/>
      <point x="267" y="567" type="curve" smooth="yes"/>
      <point x="234" y="567"/>
      <point x="193" y="534"/>
      <point x="193" y="446" type="curve" smooth="yes"/>
      <point x="193" y="402"/>
      <point x="199" y="355"/>
      <point x="199" y="326" type="curve"/>
      <point x="202" y="324"/>
      <point x="204" y="322"/>
      <point x="207" y="321" type="curve"/>
      <point x="241" y="342"/>
      <point x="282" y="353"/>
      <point x="323" y="353" type="curve" smooth="yes"/>
      <point x="367" y="353"/>
      <point x="432" y="333"/>
      <point x="452" y="296" type="curve" smooth="yes"/>
      <point x="468" y="265"/>
      <point x="473" y="236"/>
    </contour>
    <contour>
      <point x="367" y="204" type="curve" smooth="yes" name="hr04"/>
      <point x="367" y="239"/>
      <point x="350" y="254"/>
      <point x="319" y="254" type="curve" smooth="yes"/>
      <point x="283" y="254"/>
      <point x="240" y="231"/>
      <point x="240" y="199" type="curve" smooth="yes"/>
      <point x="240" y="161"/>
      <point x="274" y="145"/>
      <point x="301" y="145" type="curve" smooth="yes"/>
      <point x="333" y="145"/>
      <point x="367" y="166"/>
    </contour>
    <contour>
      <point x="357" y="203" type="line" smooth="yes"/>
      <point x="357" y="171"/>
      <point x="328" y="155"/>
      <point x="300" y="155" type="curve" smooth="yes" name="hr05"/>
      <point x="268" y="155"/>
      <point x="252" y="175"/>
      <point x="252" y="195" type="curve" smooth="yes"/>
      <point x="252" y="216"/>
      <point x="285" y="247"/>
      <point x="319" y="247" type="curve" smooth="yes"/>
      <point x="341" y="247"/>
      <point x="346" y="232"/>
      <point x="357" y="211" type="curve"/>
    </contour>
  </outline>
</glyph>
<glyph name="colon" format="1">
  <advance width="205"/>
  <unicode hex="003A"/>
  <outline>
    <contour>
      <point x="45" y="-4" type="line" smooth="yes" name="hr01"/>
      <point x="83" y="-4"/>
      <point x="121" y="-5"/>
      <point x="160" y="-5" type="curve" name="hr02"/>
      <point x="161" y="-3"/>
      <point x="163" y="-2"/>
      <point x="165" y="0" type="curve"/>
      <point x="165" y="38"/>
      <point x="165" y="80"/>
      <point x="171" y="117" type="curve"/>
      <point x="164" y="130"/>
      <point x="136" y="132"/>
      <point x="109" y="132" type="curve" smooth="yes"/>
      <point x="81" y="132"/>
      <point x="52" y="128"/>
      <point x="39" y="122" type="curve" name="hr03"/>
      <point x="36" y="116" type="line"/>
      <point x="36" y="96"/>
      <point x="32" y="65"/>
      <point x="32" y="38" type="curve" smooth="yes"/>
      <point x="32" y="22"/>
      <point x="33" y="0"/>
      <point x="42" y="-4" type="curve"/>
    </contour>
    <contour>
      <point x="45" y="332" type="line" smooth="yes"/>
      <point x="83" y="332"/>
      <point x="121" y="331"/>
      <point x="160" y="331" type="curve" name="hr04"/>
      <point x="161" y="333"/>
      <point x="163" y="334"/>
      <point x="165" y="336" type="curve"/>
      <point x="165" y="374"/>
      <point x="165" y="416"/>
      <point x="171" y="453" type="curve"/>
      <point x="164" y="466"/>
      <point x="136" y="468"/>
      <point x="109" y="468" type="curve" smooth="yes"/>
      <point x="81" y="468"/>
      <point x="52" y="464"/>
      <point x="39" y="458" type="curve"/>
      <point x="36" y="452" type="line"/>
      <point x="36" y="432"/>
      <point x="32" y="401"/>
      <point x="32" y="374" type="curve" smooth="yes"/>
      <point x="32" y="358"/>
      <point x="33" y="336"/>
      <point x="42" y="332" type="curve"/>
    </contour>
    <contour>
      <point x="45" y="6" type="curve"/>
      <point x="42" y="14"/>
      <point x="41" y="24"/>
      <point x="41" y="36" type="curve" smooth="yes"/>
      <point x="41" y="62"/>
      <point x="46" y="93"/>
      <point x="46" y="114" type="curve"/>
      <point x="66" y="118"/>
      <point x="91" y="122"/>
      <point x="115" y="122" type="curve" smooth="yes" name="hr05"/>
      <point x="131" y="122"/>
      <point x="146" y="120"/>
      <point x="160" y="116" type="curve"/>
      <point x="154" y="80"/>
      <point x="155" y="41"/>
      <point x="155" y="5" type="curve"/>
      <point x="118" y="5"/>
      <point x="81" y="6"/>
    </contour>
    <contour>
      <point x="45" y="342" type="curve"/>
      <point x="42" y="350"/>
      <point x="41" y="360"/>
      <point x="41" y="372" type="curve" smooth="yes"/>
      <point x="41" y="398"/>
      <point x="46" y="429"/>
      <point x="46" y="450" type="curve"/>
      <point x="63" y="453"/>
      <point x="93" y="457"/>
      <point x="119" y="457" type="curve" smooth="yes"/>
      <point x="135" y="457"/>
      <point x="149" y="456"/>
      <point x="160" y="452" type="curve"/>
      <point x="155" y="415"/>
      <point x="155" y="377"/>
      <point x="155" y="341" type="curve"/>
      <point x="118" y="341"/>
      <point x="81" y="342"/>
    </contour>
  </outline>
</glyph>
<glyph name="semicolon" format="1">
  <advance width="205"/>
  <unicode hex="003B"/>
  <outline>
    <contour>
      <point x="152" y="-63" type="curve" name="hr01"/>
      <point x="153" y="-56"/>
      <point x="164" y="1"/>
      <point x="165" y="2" type="curve" smooth="yes"/>
      <point x="167" y="4" type="line"/>
      <point x="168" y="42"/>
      <point x="170" y="81"/>
      <point x="171" y="119" type="curve"/>
      <point x="162" y="128"/>
      <point x="123" y="130"/>
      <point x="94" y="130" type="curve" smooth="yes"/>
      <point x="76" y="130"/>
      <point x="47" y="127"/>
      <point x="39" y="119" type="curve"/>
      <point x="39" y="119"/>
      <point x="39" y="120"/>
      <point x="39" y="120" type="curve" name="hr02"/>
      <point x="36" y="120"/>
      <point x="35" y="39"/>
      <point x="35" y="5" type="curve"/>
      <point x="36" y="3"/>
      <point x="36" y="2"/>
      <point x="37" y="0" type="curve" smooth="yes"/>
      <point x="38" y="-1" type="line"/>
      <point x="53" y="-1"/>
      <point x="68" y="-4"/>
      <point x="83" y="-5" type="curve"/>
      <point x="76" y="-27"/>
      <point x="65" y="-73"/>
      <point x="64" y="-93" type="curve"/>
      <point x="62" y="-93" type="line"/>
      <point x="64" y="-93" type="line"/>
      <point x="64" y="-96" type="line"/>
      <point x="65" y="-98"/>
      <point x="65" y="-99"/>
      <point x="66" y="-101" type="curve" smooth="yes"/>
      <point x="67" y="-102" type="line" name="hr03"/>
      <point x="68" y="-102"/>
      <point x="69" y="-103"/>
      <point x="70" y="-103" type="curve" smooth="yes" name="hr04"/>
      <point x="74" y="-103"/>
      <point x="90" y="-102"/>
      <point x="105" y="-102" type="curve" smooth="yes" name="hr05"/>
      <point x="117" y="-102"/>
      <point x="128" y="-103"/>
      <point x="135" y="-104" type="curve" name="hr06"/>
      <point x="136" y="-104" type="line"/>
      <point x="146" y="-94"/>
      <point x="145" y="-77"/>
    </contour>
    <contour>
      <point x="143" y="-59" type="line" smooth="yes"/>
      <point x="139" y="-66"/>
      <point x="134" y="-85"/>
      <point x="134" y="-93" type="curve"/>
      <point x="126" y="-92"/>
      <point x="115" y="-91"/>
      <point x="104" y="-91" type="curve" smooth="yes"/>
      <point x="93" y="-91"/>
      <point x="82" y="-92"/>
      <point x="74" y="-92" type="curve"/>
      <point x="74" y="-90" type="line" smooth="yes"/>
      <point x="82" y="-63"/>
      <point x="84" y="-34"/>
      <point x="93" y="-7" type="curve"/>
      <point x="93" y="-6"/>
      <point x="93" y="-6"/>
      <point x="93" y="-5" type="curve" smooth="yes"/>
      <point x="93" y="8"/>
      <point x="59" y="6"/>
      <point x="45" y="8" type="curve"/>
      <point x="45" y="44"/>
      <point x="44" y="80"/>
      <point x="49" y="116" type="curve"/>
      <point x="60" y="119"/>
      <point x="71" y="120"/>
      <point x="82" y="120" type="curve" smooth="yes"/>
      <point x="108" y="120"/>
      <point x="135" y="114"/>
      <point x="161" y="114" type="curve"/>
      <point x="159" y="78"/>
      <point x="158" y="41"/>
      <point x="157" y="5" type="curve"/>
      <point x="155" y="3" type="line"/>
      <point x="155" y="-13"/>
      <point x="144" y="-50"/>
      <point x="142" y="-60" type="curve"/>
    </contour>
    <contour>
      <point x="45" y="332" type="line" smooth="yes"/>
      <point x="83" y="332"/>
      <point x="121" y="331"/>
      <point x="160" y="331" type="curve" name="hr07"/>
      <point x="161" y="333"/>
      <point x="163" y="334"/>
      <point x="165" y="336" type="curve"/>
      <point x="165" y="374"/>
      <point x="165" y="416"/>
      <point x="171" y="453" type="curve"/>
      <point x="164" y="466"/>
      <point x="136" y="468"/>
      <point x="109" y="468" type="curve" smooth="yes"/>
      <point x="81" y="468"/>
      <point x="52" y="464"/>
      <point x="39" y="458" type="curve"/>
      <point x="36" y="452" type="line"/>
      <point x="36" y="432"/>
      <point x="32" y="401"/>
      <point x="32" y="374" type="curve" smooth="yes"/>
      <point x="32" y="358"/>
      <point x="33" y="336"/>
      <point x="42" y="332" type="curve"/>
    </contour>
    <contour>
      <point x="45" y="342" type="curve"/>
      <point x="42" y="350"/>
      <point x="41" y="360"/>
      <point x="41" y="372" type="curve" smooth="yes"/>
      <point x="41" y="398"/>
      <point x="46" y="429"/>
      <point x="46" y="450" type="curve"/>
      <point x="63" y="453"/>
      <point x="93" y="457"/>
      <point x="119" y="457" type="curve" smooth="yes"/>
      <point x="135" y="457"/>
      <point x="149" y="456"/>
      <point x="160" y="452" type="curve"/>
      <point x="155" y="415"/>
      <point x="155" y="377"/>
      <point x="155" y="341" type="curve" name="hr08"/>
      <point x="118" y="341"/>
      <point x="81" y="342"/>
    </contour>
    <contour>
      <point x="157" y="7" type="curve"/>
      <point x="156" y="6" type="line" smooth="yes"/>
      <point x="155" y="5"/>
      <point x="155" y="4"/>
      <point x="155" y="4" type="curve"/>
      <point x="156" y="5"/>
      <point x="156" y="6"/>
    </contour>
  </outline>
</glyph>
<glyph name="less" format="1">
  <advance width="363"/>
  <unicode hex="003C"/>
  <outline>
    <contour>
      <point x="346" y="89" type="curve" name="hr00"/>
      <point x="346" y="97" type="line"/>
      <point x="281" y="149"/>
      <point x="227" y="213"/>
      <point x="165" y="268" type="curve"/>
      <point x="218" y="334"/>
      <point x="287" y="388"/>
      <point x="338" y="456" type="curve"/>
      <point x="338" y="460"/>
      <point x="281" y="522"/>
      <point x="261" y="532" type="curve"/>
      <point x="255" y="532" type="line"/>
      <point x="202" y="479"/>
      <point x="152" y="425"/>
      <point x="100" y="372" type="curve" smooth="yes"/>
      <point x="69" y="340"/>
      <point x="34" y="309"/>
      <point x="9" y="272" type="curve"/>
      <point x="9" y="268" type="line"/>
      <point x="25" y="241"/>
      <point x="48" y="218"/>
      <point x="70" y="196" type="curve" smooth="yes"/>
      <point x="132" y="134"/>
      <point x="199" y="78"/>
      <point x="262" y="15" type="curve"/>
      <point x="268" y="15" type="line"/>
      <point x="296" y="34"/>
      <point x="322" y="65"/>
    </contour>
    <contour>
      <point x="329" y="87" type="line" smooth="yes"/>
      <point x="308" y="66"/>
      <point x="288" y="42"/>
      <point x="265" y="25" type="curve"/>
      <point x="217" y="73"/>
      <point x="168" y="117"/>
      <point x="118" y="162" type="curve"/>
      <point x="117" y="162" type="line"/>
      <point x="83" y="195"/>
      <point x="43" y="230"/>
      <point x="19" y="270" type="curve"/>
      <point x="43" y="305"/>
      <point x="77" y="335"/>
      <point x="107" y="365" type="curve" smooth="yes"/>
      <point x="158" y="417"/>
      <point x="207" y="470"/>
      <point x="259" y="522" type="curve"/>
      <point x="282" y="502"/>
      <point x="300" y="473"/>
      <point x="326" y="457" type="curve"/>
      <point x="275" y="390"/>
      <point x="207" y="336"/>
      <point x="155" y="271" type="curve"/>
      <point x="155" y="263" type="line"/>
      <point x="217" y="208"/>
      <point x="271" y="145"/>
      <point x="335" y="93" type="curve"/>
    </contour>
  </outline>
</glyph>
<glyph name="equal" format="1">
  <advance width="466"/>
  <unicode hex="003D"/>
  <outline>
    <contour>
      <point x="41" y="321" type="line" name="hr01"/>
      <point x="169" y="321"/>
      <point x="297" y="315"/>
      <point x="426" y="315" type="curve"/>
      <point x="427" y="317"/>
      <point x="429" y="319"/>
      <point x="431" y="322" type="curve"/>
      <point x="428" y="344"/>
      <point x="427" y="366"/>
      <point x="427" y="387" type="curve" smooth="yes"/>
      <point x="427" y="412"/>
      <point x="428" y="437"/>
      <point x="428" y="463" type="curve"/>
      <point x="426" y="465"/>
      <point x="424" y="466"/>
      <point x="423" y="468" type="curve"/>
      <point x="44" y="468" type="line"/>
      <point x="42" y="466"/>
      <point x="41" y="464"/>
      <point x="39" y="462" type="curve"/>
      <point x="39" y="417"/>
      <point x="36" y="372"/>
      <point x="36" y="327" type="curve"/>
    </contour>
    <contour>
      <point x="41" y="114" type="line"/>
      <point x="169" y="114"/>
      <point x="297" y="108"/>
      <point x="426" y="108" type="curve"/>
      <point x="427" y="110"/>
      <point x="429" y="112"/>
      <point x="431" y="115" type="curve"/>
      <point x="428" y="137"/>
      <point x="427" y="159"/>
      <point x="427" y="180" type="curve" smooth="yes"/>
      <point x="427" y="205"/>
      <point x="428" y="230"/>
      <point x="428" y="256" type="curve"/>
      <point x="426" y="258"/>
      <point x="424" y="259"/>
      <point x="423" y="261" type="curve"/>
      <point x="44" y="261" type="line"/>
      <point x="42" y="259"/>
      <point x="41" y="257"/>
      <point x="39" y="255" type="curve"/>
      <point x="39" y="210"/>
      <point x="36" y="165"/>
      <point x="36" y="120" type="curve"/>
    </contour>
    <contour>
      <point x="49" y="458" type="curve"/>
      <point x="418" y="458" type="line"/>
      <point x="418" y="432"/>
      <point x="417" y="406"/>
      <point x="417" y="381" type="curve" smooth="yes"/>
      <point x="417" y="362"/>
      <point x="417" y="344"/>
      <point x="420" y="325" type="curve" name="hr02"/>
      <point x="294" y="325"/>
      <point x="170" y="331"/>
      <point x="46" y="331" type="curve"/>
      <point x="46" y="351"/>
      <point x="45" y="373"/>
      <point x="45" y="394" type="curve" smooth="yes"/>
      <point x="45" y="416"/>
      <point x="46" y="437"/>
    </contour>
    <contour>
      <point x="49" y="251" type="curve"/>
      <point x="418" y="251" type="line"/>
      <point x="418" y="225"/>
      <point x="417" y="199"/>
      <point x="417" y="174" type="curve" smooth="yes"/>
      <point x="417" y="155"/>
      <point x="417" y="137"/>
      <point x="420" y="118" type="curve"/>
      <point x="294" y="118"/>
      <point x="170" y="124"/>
      <point x="46" y="124" type="curve"/>
      <point x="46" y="144"/>
      <point x="45" y="166"/>
      <point x="45" y="187" type="curve" smooth="yes"/>
      <point x="45" y="209"/>
      <point x="46" y="230"/>
    </contour>
  </outline>
</glyph>
<glyph name="greater" format="1">
  <advance width="363"/>
  <unicode hex="003E"/>
  <outline>
    <contour>
      <point x="17" y="89" type="line" name="hr01"/>
      <point x="45" y="64"/>
      <point x="67" y="34"/>
      <point x="95" y="15" type="curve"/>
      <point x="97" y="16"/>
      <point x="99" y="16"/>
      <point x="102" y="16" type="curve" name="hr02"/>
      <point x="186" y="100"/>
      <point x="282" y="172"/>
      <point x="354" y="267" type="curve"/>
      <point x="354" y="273" type="line"/>
      <point x="280" y="366"/>
      <point x="185" y="440"/>
      <point x="109" y="531" type="curve"/>
      <point x="107" y="532"/>
      <point x="105" y="532"/>
      <point x="103" y="533" type="curve"/>
      <point x="80" y="521"/>
      <point x="25" y="457"/>
      <point x="25" y="457" type="curve"/>
      <point x="76" y="388"/>
      <point x="145" y="335"/>
      <point x="198" y="268" type="curve"/>
      <point x="133" y="216"/>
      <point x="82" y="149"/>
      <point x="17" y="97" type="curve"/>
    </contour>
    <contour>
      <point x="208" y="263" type="curve"/>
      <point x="208" y="265"/>
      <point x="209" y="268"/>
      <point x="209" y="270" type="curve"/>
      <point x="156" y="336"/>
      <point x="87" y="390"/>
      <point x="36" y="458" type="curve"/>
      <point x="60" y="477"/>
      <point x="78" y="505"/>
      <point x="104" y="522" type="curve"/>
      <point x="179" y="433"/>
      <point x="272" y="361"/>
      <point x="344" y="270" type="curve"/>
      <point x="274" y="177"/>
      <point x="179" y="106"/>
      <point x="97" y="26" type="curve"/>
      <point x="87" y="34"/>
      <point x="78" y="46"/>
      <point x="68" y="52" type="curve"/>
      <point x="52" y="68" type="line"/>
      <point x="48" y="76"/>
      <point x="36" y="85"/>
      <point x="27" y="92" type="curve"/>
      <point x="91" y="145"/>
      <point x="143" y="211"/>
    </contour>
  </outline>
</glyph>
<glyph name="B" format="1">
  <advance width="480"/>
  <unicode hex="0042"/>
  <outline>
    <contour>
      <point x="471" y="145" type="curve" name="hr00"/>
      <point x="471" y="150"/>
      <point x="471" y="155"/>
      <point x="471" y="160" type="curve" smooth="yes"/>
      <point x="471" y="259"/>
      <point x="441" y="310"/>
      <point x="348" y="353" type="curve"/>
      <point x="347" y="353"/>
      <point x="346" y="354"/>
      <point x="346" y="355" type="curve" smooth="yes"/>
      <point x="349" y="358"/>
      <point x="353" y="359"/>
      <point x="357" y="362" type="curve"/>
      <point x="427" y="398"/>
      <point x="444" y="454"/>
      <point x="444" y="521" type="curve" smooth="yes"/>
      <point x="444" y="555"/>
      <point x="443" y="593"/>
      <point x="422" y="622" type="curve" smooth="yes"/>
      <point x="387" y="670"/>
      <point x="403" y="654"/>
      <point x="354" y="689" type="curve" smooth="yes"/>
      <point x="319" y="714"/>
      <point x="269" y="722"/>
      <point x="216" y="722" type="curve" smooth="yes"/>
      <point x="159" y="722"/>
      <point x="59" y="715"/>
      <point x="37" y="693" type="curve"/>
      <point x="39" y="627"/>
      <point x="39" y="562"/>
      <point x="39" y="497" type="curve" smooth="yes"/>
      <point x="39" y="390"/>
      <point x="38" y="284"/>
      <point x="38" y="178" type="curve" smooth="yes"/>
      <point x="38" y="120"/>
      <point x="38" y="61"/>
      <point x="40" y="3" type="curve"/>
      <point x="47" y="-11"/>
      <point x="149" y="-8"/>
      <point x="178" y="-9" type="curve" smooth="yes"/>
      <point x="200" y="-10"/>
      <point x="221" y="-11"/>
      <point x="242" y="-11" type="curve" smooth="yes"/>
      <point x="317" y="-11"/>
      <point x="389" y="1"/>
      <point x="444" y="62" type="curve" smooth="yes"/>
      <point x="462" y="82"/>
      <point x="466" y="118"/>
    </contour>
    <contour>
      <point x="459" y="146" type="curve"/>
      <point x="452" y="113"/>
      <point x="453" y="97"/>
      <point x="434" y="69" type="curve" smooth="yes"/>
      <point x="395" y="11"/>
      <point x="317" y="1"/>
      <point x="246" y="1" type="curve" smooth="yes"/>
      <point x="187" y="1"/>
      <point x="140" y="6"/>
      <point x="86" y="8" type="curve" smooth="yes"/>
      <point x="80" y="8"/>
      <point x="73" y="7"/>
      <point x="66" y="7" type="curve" smooth="yes"/>
      <point x="61" y="7"/>
      <point x="56" y="8"/>
      <point x="52" y="9" type="curve"/>
      <point x="50" y="66"/>
      <point x="50" y="124"/>
      <point x="50" y="181" type="curve" smooth="yes"/>
      <point x="50" y="286"/>
      <point x="51" y="391"/>
      <point x="51" y="496" type="curve" smooth="yes"/>
      <point x="51" y="560"/>
      <point x="51" y="625"/>
      <point x="49" y="689" type="curve"/>
      <point x="100" y="701"/>
      <point x="155" y="711"/>
      <point x="210" y="711" type="curve" smooth="yes"/>
      <point x="337" y="711"/>
      <point x="436" y="639"/>
      <point x="436" y="517" type="curve" smooth="yes"/>
      <point x="436" y="487"/>
      <point x="429" y="457"/>
      <point x="414" y="431" type="curve" smooth="yes"/>
      <point x="395" y="399"/>
      <point x="333" y="370"/>
      <point x="333" y="354" type="curve"/>
      <point x="344" y="332"/>
      <point x="379" y="327"/>
      <point x="398" y="313" type="curve" smooth="yes"/>
      <point x="448" y="275"/>
      <point x="459" y="220"/>
      <point x="459" y="161" type="curve" smooth="yes"/>
      <point x="459" y="156"/>
      <point x="459" y="151"/>
    </contour>
    <contour>
      <point x="312" y="241" type="curve"/>
      <point x="287" y="306"/>
      <point x="228" y="302"/>
      <point x="167" y="302" type="curve"/>
      <point x="156" y="281"/>
      <point x="155" y="259"/>
      <point x="155" y="234" type="curve" smooth="yes"/>
      <point x="155" y="201"/>
      <point x="156" y="156"/>
      <point x="170" y="129" type="curve"/>
      <point x="185" y="128"/>
      <point x="199" y="127"/>
      <point x="213" y="127" type="curve" smooth="yes"/>
      <point x="272" y="127"/>
      <point x="319" y="139"/>
      <point x="319" y="197" type="curve" smooth="yes"/>
      <point x="319" y="209"/>
      <point x="317" y="224"/>
    </contour>
    <contour>
      <point x="317" y="529" type="curve"/>
      <point x="301" y="561"/>
      <point x="257" y="577"/>
      <point x="217" y="577" type="curve" smooth="yes"/>
      <point x="197" y="577"/>
      <point x="168" y="573"/>
      <point x="162" y="560" type="curve"/>
      <point x="162" y="553"/>
      <point x="163" y="546"/>
      <point x="163" y="538" type="curve" smooth="yes"/>
      <point x="163" y="512"/>
      <point x="160" y="486"/>
      <point x="160" y="460" type="curve" smooth="yes"/>
      <point x="160" y="431"/>
      <point x="155" y="409"/>
      <point x="193" y="409" type="curve" smooth="yes"/>
      <point x="253" y="409"/>
      <point x="325" y="437"/>
      <point x="325" y="494" type="curve" smooth="yes"/>
      <point x="325" y="504"/>
      <point x="322" y="516"/>
    </contour>
    <contour>
      <point x="300" y="238" type="curve"/>
      <point x="304" y="225"/>
      <point x="305" y="213"/>
      <point x="305" y="201" type="curve" smooth="yes"/>
      <point x="305" y="146"/>
      <point x="267" y="138"/>
      <point x="227" y="138" type="curve" smooth="yes"/>
      <point x="209" y="138"/>
      <point x="191" y="140"/>
      <point x="176" y="141" type="curve"/>
      <point x="172" y="170"/>
      <point x="167" y="202"/>
      <point x="167" y="234" type="curve" smooth="yes"/>
      <point x="167" y="253"/>
      <point x="169" y="272"/>
      <point x="173" y="290" type="curve"/>
      <point x="227" y="290"/>
      <point x="279" y="294"/>
    </contour>
    <contour>
      <point x="306" y="524" type="curve" smooth="yes"/>
      <point x="311" y="513"/>
      <point x="313" y="503"/>
      <point x="313" y="493" type="curve" smooth="yes"/>
      <point x="313" y="443"/>
      <point x="245" y="423"/>
      <point x="194" y="423" type="curve" smooth="yes"/>
      <point x="165" y="423"/>
      <point x="172" y="439"/>
      <point x="172" y="457" type="curve" smooth="yes"/>
      <point x="172" y="483"/>
      <point x="175" y="508"/>
      <point x="175" y="534" type="curve" smooth="yes"/>
      <point x="175" y="542"/>
      <point x="174" y="549"/>
      <point x="174" y="557" type="curve"/>
      <point x="185" y="562"/>
      <point x="199" y="565"/>
      <point x="215" y="565" type="curve" smooth="yes"/>
      <point x="251" y="565"/>
      <point x="293" y="551"/>
    </contour>
  </outline>
</glyph>
<glyph name="G" format="1">
  <advance width="481"/>
  <unicode hex="0047"/>
  <outline>
    <contour>
      <point x="241" y="353" type="curve" name="hr01"/>
      <point x="241" y="353"/>
      <point x="237" y="348"/>
      <point x="235" y="346" type="curve"/>
      <point x="235" y="333"/>
      <point x="237" y="318"/>
      <point x="237" y="304" type="curve"/>
      <point x="235" y="300"/>
      <point x="234" y="291"/>
      <point x="234" y="280" type="curve" smooth="yes"/>
      <point x="234" y="242"/>
      <point x="238" y="229"/>
      <point x="271" y="229" type="curve" smooth="yes"/>
      <point x="279" y="229"/>
      <point x="286" y="230"/>
      <point x="291" y="233" type="curve"/>
      <point x="316" y="233" type="line" name="hr02"/>
      <point x="316" y="147"/>
      <point x="281" y="137"/>
      <point x="228" y="137" type="curve"/>
      <point x="174" y="153"/>
      <point x="167" y="220"/>
      <point x="167" y="280" type="curve" smooth="yes"/>
      <point x="167" y="417"/>
      <point x="176" y="538"/>
      <point x="217" y="553" type="curve"/>
      <point x="231" y="553"/>
      <point x="246" y="552"/>
      <point x="260" y="552" type="curve"/>
      <point x="298" y="540"/>
      <point x="306" y="499"/>
      <point x="321" y="469" type="curve"/>
      <point x="332" y="465"/>
      <point x="355" y="463"/>
      <point x="374" y="463" type="curve" smooth="yes"/>
      <point x="386" y="463"/>
      <point x="397" y="464"/>
      <point x="404" y="466" type="curve"/>
      <point x="408" y="466"/>
      <point x="414" y="465"/>
      <point x="420" y="465" type="curve" smooth="yes"/>
      <point x="432" y="465"/>
      <point x="443" y="466"/>
      <point x="452" y="471" type="curve"/>
      <point x="452" y="484"/>
      <point x="457" y="498"/>
      <point x="457" y="510" type="curve" smooth="yes"/>
      <point x="457" y="620"/>
      <point x="375" y="706"/>
      <point x="258" y="706" type="curve" smooth="yes"/>
      <point x="207" y="706"/>
      <point x="156" y="704"/>
      <point x="112" y="679" type="curve" smooth="yes"/>
      <point x="30" y="632"/>
      <point x="21" y="515"/>
      <point x="21" y="424" type="curve" smooth="yes"/>
      <point x="21" y="328"/>
      <point x="15" y="112"/>
      <point x="84" y="35" type="curve" smooth="yes"/>
      <point x="121" y="-7"/>
      <point x="171" y="-20"/>
      <point x="222" y="-20" type="curve" smooth="yes"/>
      <point x="284" y="-20"/>
      <point x="386" y="-10"/>
      <point x="429" y="50" type="curve" smooth="yes"/>
      <point x="465" y="100"/>
      <point x="464" y="178"/>
      <point x="464" y="238" type="curve" smooth="yes"/>
      <point x="464" y="259"/>
      <point x="462" y="347"/>
      <point x="454" y="355" type="curve" smooth="yes" name="hr03"/>
      <point x="452" y="356"/>
      <point x="451" y="356"/>
      <point x="450" y="357" type="curve"/>
      <point x="411" y="357"/>
      <point x="359" y="366"/>
      <point x="313" y="366" type="curve" smooth="yes" name="hr04"/>
      <point x="286" y="366"/>
      <point x="261" y="363"/>
    </contour>
    <contour>
      <point x="246" y="344" type="curve"/>
      <point x="264" y="353"/>
      <point x="287" y="355"/>
      <point x="313" y="355" type="curve" smooth="yes" name="hr05"/>
      <point x="358" y="355"/>
      <point x="410" y="347"/>
      <point x="446" y="347" type="curve"/>
      <point x="450" y="303"/>
      <point x="456" y="255"/>
      <point x="456" y="206" type="curve" smooth="yes"/>
      <point x="456" y="160"/>
      <point x="451" y="114"/>
      <point x="433" y="74" type="curve" smooth="yes"/>
      <point x="401" y="2"/>
      <point x="289" y="-10"/>
      <point x="222" y="-10" type="curve" smooth="yes"/>
      <point x="172" y="-10"/>
      <point x="124" y="2"/>
      <point x="91" y="42" type="curve" smooth="yes"/>
      <point x="40" y="104"/>
      <point x="32" y="247"/>
      <point x="32" y="349" type="curve" smooth="yes"/>
      <point x="32" y="419"/>
      <point x="33" y="459"/>
      <point x="38" y="514" type="curve" smooth="yes"/>
      <point x="42" y="558"/>
      <point x="50" y="613"/>
      <point x="84" y="645" type="curve" smooth="yes"/>
      <point x="122" y="681"/>
      <point x="174" y="696"/>
      <point x="226" y="696" type="curve" smooth="yes"/>
      <point x="344" y="696"/>
      <point x="447" y="638"/>
      <point x="447" y="517" type="curve" smooth="yes"/>
      <point x="447" y="499"/>
      <point x="449" y="477"/>
      <point x="434" y="477" type="curve" smooth="yes"/>
      <point x="431" y="477"/>
      <point x="429" y="477"/>
      <point x="427" y="476" type="curve"/>
      <point x="422" y="476"/>
      <point x="416" y="477"/>
      <point x="411" y="477" type="curve" smooth="yes"/>
      <point x="407" y="477"/>
      <point x="403" y="476"/>
      <point x="399" y="475" type="curve"/>
      <point x="375" y="475"/>
      <point x="351" y="478"/>
      <point x="327" y="478" type="curve"/>
      <point x="313" y="532"/>
      <point x="288" y="562"/>
      <point x="228" y="562" type="curve" smooth="yes" name="hr06"/>
      <point x="159" y="562"/>
      <point x="163" y="446"/>
      <point x="160" y="389" type="curve" smooth="yes"/>
      <point x="159" y="363"/>
      <point x="158" y="335"/>
      <point x="158" y="308" type="curve" smooth="yes"/>
      <point x="158" y="233"/>
      <point x="160" y="126"/>
      <point x="241" y="126" type="curve" smooth="yes"/>
      <point x="292" y="126"/>
      <point x="328" y="161"/>
      <point x="328" y="222" type="curve" smooth="yes" name="hr07"/>
      <point x="328" y="236"/>
      <point x="324" y="244"/>
      <point x="300" y="244" type="curve" smooth="yes"/>
      <point x="286" y="244"/>
      <point x="276" y="240"/>
      <point x="262" y="240" type="curve" smooth="yes"/>
      <point x="246" y="240"/>
      <point x="245" y="248"/>
      <point x="245" y="258" type="curve" smooth="yes" name="hr08"/>
      <point x="245" y="281"/>
      <point x="249" y="295"/>
      <point x="249" y="315" type="curve" smooth="yes"/>
      <point x="249" y="325"/>
      <point x="247" y="336"/>
      <point x="245" y="342" type="curve"/>
      <point x="245" y="343" type="line"/>
      <point x="245" y="343"/>
      <point x="245" y="344"/>
    </contour>
  </outline>
</glyph>
<glyph name="H" format="1">
  <advance width="499"/>
  <unicode hex="0048"/>
  <outline>
    <contour>
      <point x="474" y="6" type="line" name="hr01"/>
      <point x="465" y="239"/>
      <point x="456" y="473"/>
      <point x="447" y="706" type="curve"/>
      <point x="445" y="708"/>
      <point x="443" y="709"/>
      <point x="442" y="711" type="curve"/>
      <point x="430" y="711" type="line"/>
      <point x="422" y="714"/>
      <point x="412" y="715"/>
      <point x="401" y="715" type="curve" smooth="yes"/>
      <point x="371" y="715"/>
      <point x="313" y="707"/>
      <point x="300" y="694" type="curve"/>
      <point x="302" y="662"/>
      <point x="303" y="631"/>
      <point x="303" y="599" type="curve" smooth="yes"/>
      <point x="303" y="545"/>
      <point x="300" y="491"/>
      <point x="296" y="438" type="curve"/>
      <point x="279" y="435"/>
      <point x="260" y="433"/>
      <point x="241" y="433" type="curve" smooth="yes"/>
      <point x="225" y="433"/>
      <point x="210" y="434"/>
      <point x="195" y="437" type="curve"/>
      <point x="194" y="443"/>
      <point x="193" y="449"/>
      <point x="192" y="456" type="curve" smooth="yes"/>
      <point x="192" y="454"/>
      <point x="192" y="453"/>
      <point x="193" y="453" type="curve"/>
      <point x="180" y="533"/>
      <point x="187" y="615"/>
      <point x="175" y="696" type="curve"/>
      <point x="170" y="705"/>
      <point x="150" y="705"/>
      <point x="139" y="705" type="curve" smooth="yes"/>
      <point x="119" y="705"/>
      <point x="99" y="702"/>
      <point x="80" y="702" type="curve" smooth="yes"/>
      <point x="66" y="702"/>
      <point x="53" y="704"/>
      <point x="40" y="704" type="curve"/>
      <point x="38" y="702"/>
      <point x="37" y="700"/>
      <point x="35" y="698" type="curve"/>
      <point x="35" y="699"/>
      <point x="35" y="699"/>
      <point x="35" y="699" type="curve"/>
      <point x="33" y="699"/>
      <point x="32" y="598"/>
      <point x="32" y="579" type="curve" smooth="yes"/>
      <point x="32" y="441"/>
      <point x="40" y="305"/>
      <point x="40" y="168" type="curve" smooth="yes"/>
      <point x="40" y="153"/>
      <point x="40" y="132"/>
      <point x="40" y="110" type="curve" smooth="yes"/>
      <point x="40" y="59"/>
      <point x="42" y="2"/>
      <point x="57" y="-3" type="curve"/>
      <point x="64" y="0"/>
      <point x="72" y="2"/>
      <point x="82" y="2" type="curve" smooth="yes"/>
      <point x="104" y="2"/>
      <point x="131" y="-6"/>
      <point x="156" y="-6" type="curve" smooth="yes"/>
      <point x="169" y="-6"/>
      <point x="182" y="-4"/>
      <point x="193" y="3" type="curve"/>
      <point x="193" y="4"/>
      <point x="194" y="5"/>
      <point x="195" y="5" type="curve"/>
      <point x="199" y="29"/>
      <point x="200" y="53"/>
      <point x="200" y="77" type="curve" smooth="yes"/>
      <point x="200" y="120"/>
      <point x="196" y="164"/>
      <point x="196" y="207" type="curve" smooth="yes"/>
      <point x="196" y="228"/>
      <point x="197" y="250"/>
      <point x="200" y="271" type="curve"/>
      <point x="220" y="275"/>
      <point x="239" y="277"/>
      <point x="258" y="277" type="curve" smooth="yes"/>
      <point x="274" y="277"/>
      <point x="291" y="275"/>
      <point x="308" y="272" type="curve"/>
      <point x="320" y="181"/>
      <point x="309" y="90"/>
      <point x="323" y="-1" type="curve"/>
      <point x="328" y="-4"/>
      <point x="328" y="-5"/>
      <point x="335" y="-5" type="curve" smooth="yes" name="hr02"/>
      <point x="338" y="-5"/>
      <point x="340" y="-5"/>
      <point x="343" y="-4" type="curve" name="hr03"/>
      <point x="363" y="-4"/>
      <point x="385" y="-5"/>
      <point x="407" y="-5" type="curve" smooth="yes" name="hr04"/>
      <point x="428" y="-5"/>
      <point x="450" y="-4"/>
      <point x="470" y="1" type="curve"/>
    </contour>
    <contour>
      <point x="338" y="5" type="curve"/>
      <point x="332" y="5" type="line"/>
      <point x="323" y="72"/>
      <point x="323" y="141"/>
      <point x="323" y="209" type="curve" smooth="yes"/>
      <point x="323" y="218"/>
      <point x="321" y="276"/>
      <point x="316" y="280" type="curve" smooth="yes"/>
      <point x="308" y="286"/>
      <point x="292" y="288"/>
      <point x="274" y="288" type="curve" smooth="yes"/>
      <point x="239" y="288"/>
      <point x="201" y="281"/>
      <point x="191" y="276" type="curve"/>
      <point x="188" y="254"/>
      <point x="187" y="232"/>
      <point x="187" y="210" type="curve" smooth="yes"/>
      <point x="187" y="168"/>
      <point x="190" y="126"/>
      <point x="190" y="84" type="curve" smooth="yes"/>
      <point x="190" y="59"/>
      <point x="189" y="34"/>
      <point x="185" y="10" type="curve"/>
      <point x="176" y="5"/>
      <point x="165" y="3"/>
      <point x="154" y="3" type="curve" smooth="yes"/>
      <point x="130" y="3"/>
      <point x="103" y="11"/>
      <point x="79" y="11" type="curve" smooth="yes"/>
      <point x="72" y="11"/>
      <point x="65" y="10"/>
      <point x="58" y="8" type="curve"/>
      <point x="55" y="28"/>
      <point x="56" y="48"/>
      <point x="55" y="68" type="curve" smooth="yes"/>
      <point x="43" y="228"/>
      <point x="42" y="390"/>
      <point x="42" y="550" type="curve" smooth="yes"/>
      <point x="42" y="597"/>
      <point x="43" y="645"/>
      <point x="45" y="693" type="curve"/>
      <point x="54" y="690"/>
      <point x="64" y="689"/>
      <point x="74" y="689" type="curve" smooth="yes"/>
      <point x="96" y="689"/>
      <point x="121" y="693"/>
      <point x="144" y="693" type="curve" smooth="yes"/>
      <point x="151" y="693"/>
      <point x="158" y="693"/>
      <point x="165" y="692" type="curve"/>
      <point x="178" y="606"/>
      <point x="172" y="519"/>
      <point x="186" y="432" type="curve"/>
      <point x="196" y="427"/>
      <point x="214" y="423"/>
      <point x="229" y="423" type="curve" smooth="yes"/>
      <point x="253" y="423"/>
      <point x="295" y="429"/>
      <point x="303" y="429" type="curve" smooth="yes" name="hr05"/>
      <point x="303" y="429"/>
      <point x="302" y="429"/>
      <point x="301" y="429" type="curve"/>
      <point x="302" y="431"/>
      <point x="304" y="432"/>
      <point x="306" y="434" type="curve"/>
      <point x="310" y="489"/>
      <point x="313" y="545"/>
      <point x="313" y="601" type="curve" smooth="yes" name="hr06"/>
      <point x="313" y="631"/>
      <point x="312" y="661"/>
      <point x="310" y="691" type="curve"/>
      <point x="350" y="699"/>
      <point x="385" y="702"/>
      <point x="425" y="702" type="curve"/>
      <point x="430" y="701"/>
      <point x="431" y="701"/>
      <point x="437" y="701" type="curve"/>
      <point x="464" y="10" type="line"/>
      <point x="453" y="8"/>
      <point x="442" y="7"/>
      <point x="430" y="7" type="curve" smooth="yes"/>
      <point x="411" y="7"/>
      <point x="391" y="9"/>
      <point x="373" y="9" type="curve" smooth="yes"/>
      <point x="360" y="9"/>
      <point x="348" y="8"/>
    </contour>
  </outline>
</glyph>
<glyph name="J" format="1">
  <advance width="463"/>
  <unicode hex="004A"/>
  <outline>
    <contour>
      <point x="425" y="717" type="line" name="hr01"/>
      <point x="376" y="716"/>
      <point x="327" y="716"/>
      <point x="279" y="715" type="curve"/>
      <point x="277" y="713"/>
      <point x="276" y="711"/>
      <point x="274" y="709" type="curve"/>
      <point x="274" y="608"/>
      <point x="272" y="506"/>
      <point x="272" y="404" type="curve" smooth="yes"/>
      <point x="272" y="352"/>
      <point x="275" y="310"/>
      <point x="275" y="251" type="curve" smooth="yes"/>
      <point x="275" y="217"/>
      <point x="269" y="183"/>
      <point x="237" y="170" type="curve"/>
      <point x="223" y="170" type="line"/>
      <point x="216" y="172"/>
      <point x="210" y="171"/>
      <point x="203" y="175" type="curve" smooth="yes"/>
      <point x="168" y="195"/>
      <point x="164" y="251"/>
      <point x="164" y="286" type="curve"/>
      <point x="159" y="296"/>
      <point x="102" y="299"/>
      <point x="61" y="299" type="curve" smooth="yes"/>
      <point x="3" y="299"/>
      <point x="-5" y="288"/>
      <point x="-5" y="268" type="curve" smooth="yes"/>
      <point x="-5" y="140"/>
      <point x="24" y="-14"/>
      <point x="192" y="-14" type="curve" smooth="yes"/>
      <point x="282" y="-14"/>
      <point x="352" y="16"/>
      <point x="391" y="73" type="curve" smooth="yes"/>
      <point x="430" y="130"/>
      <point x="430" y="211"/>
      <point x="431" y="277" type="curve" smooth="yes"/>
      <point x="432" y="340"/>
      <point x="434" y="398"/>
      <point x="434" y="464" type="curve" smooth="yes"/>
      <point x="434" y="530"/>
      <point x="429" y="596"/>
      <point x="429" y="662" type="curve" smooth="yes"/>
      <point x="429" y="679"/>
      <point x="430" y="695"/>
      <point x="430" y="712" type="curve"/>
    </contour>
    <contour>
      <point x="422" y="304" type="curve" smooth="yes"/>
      <point x="419" y="227"/>
      <point x="423" y="146"/>
      <point x="383" y="78" type="curve" smooth="yes"/>
      <point x="345" y="13"/>
      <point x="264" y="-2"/>
      <point x="194" y="-2" type="curve" smooth="yes" name="hr02"/>
      <point x="154" y="-2"/>
      <point x="116" y="3"/>
      <point x="85" y="25" type="curve" smooth="yes"/>
      <point x="28" y="64"/>
      <point x="6" y="174"/>
      <point x="6" y="249" type="curve" smooth="yes"/>
      <point x="6" y="262"/>
      <point x="7" y="274"/>
      <point x="8" y="284" type="curve"/>
      <point x="28" y="287"/>
      <point x="49" y="289"/>
      <point x="69" y="289" type="curve" smooth="yes"/>
      <point x="98" y="289"/>
      <point x="127" y="286"/>
      <point x="154" y="282" type="curve"/>
      <point x="154" y="234"/>
      <point x="165" y="159"/>
      <point x="230" y="159" type="curve" smooth="yes"/>
      <point x="276" y="159"/>
      <point x="285" y="213"/>
      <point x="285" y="249" type="curve" smooth="yes"/>
      <point x="285" y="342"/>
      <point x="280" y="433"/>
      <point x="280" y="526" type="curve" smooth="yes"/>
      <point x="280" y="586"/>
      <point x="284" y="645"/>
      <point x="284" y="705" type="curve"/>
      <point x="329" y="706"/>
      <point x="374" y="706"/>
      <point x="419" y="707" type="curve"/>
      <point x="418" y="684"/>
      <point x="417" y="661"/>
      <point x="417" y="637" type="curve" smooth="yes"/>
      <point x="417" y="549"/>
      <point x="423" y="461"/>
      <point x="423" y="373" type="curve" smooth="yes"/>
      <point x="423" y="350"/>
      <point x="423" y="327"/>
    </contour>
    <contour>
      <point x="158" y="-1" type="line" name="hr03"/>
      <point x="158" y="-1"/>
      <point x="157" y="-1"/>
      <point x="157" y="-1" type="curve"/>
      <point x="158" y="-1"/>
      <point x="163" y="-1"/>
      <point x="166" y="-1" type="curve" smooth="yes"/>
    </contour>
  </outline>
</glyph>
<glyph name="K" format="1">
  <advance width="459"/>
  <unicode hex="004B"/>
  <outline>
    <contour>
      <point x="468" y="6" type="line" name="hr01"/>
      <point x="411" y="123"/>
      <point x="354" y="241"/>
      <point x="297" y="359" type="curve"/>
      <point x="345" y="475"/>
      <point x="431" y="572"/>
      <point x="467" y="693" type="curve"/>
      <point x="464" y="701"/>
      <point x="451" y="702"/>
      <point x="439" y="702" type="curve" smooth="yes"/>
      <point x="414" y="702"/>
      <point x="388" y="700"/>
      <point x="363" y="700" type="curve" smooth="yes"/>
      <point x="351" y="700"/>
      <point x="339" y="701"/>
      <point x="327" y="703" type="curve"/>
      <point x="325" y="702"/>
      <point x="323" y="701"/>
      <point x="322" y="700" type="curve" smooth="yes"/>
      <point x="287" y="648"/>
      <point x="261" y="593"/>
      <point x="230" y="538" type="curve" smooth="yes"/>
      <point x="218" y="518"/>
      <point x="199" y="495"/>
      <point x="186" y="475" type="curve"/>
      <point x="186" y="549"/>
      <point x="186" y="623"/>
      <point x="184" y="697" type="curve"/>
      <point x="182" y="699"/>
      <point x="180" y="700"/>
      <point x="179" y="702" type="curve"/>
      <point x="134" y="702"/>
      <point x="89" y="704"/>
      <point x="45" y="704" type="curve"/>
      <point x="43" y="702"/>
      <point x="42" y="700"/>
      <point x="40" y="698" type="curve"/>
      <point x="40" y="537"/>
      <point x="32" y="376"/>
      <point x="32" y="215" type="curve" smooth="yes"/>
      <point x="32" y="145"/>
      <point x="34" y="74"/>
      <point x="38" y="4" type="curve"/>
      <point x="48" y="-6"/>
      <point x="77" y="-9"/>
      <point x="108" y="-9" type="curve" smooth="yes"/>
      <point x="144" y="-9"/>
      <point x="189" y="-6"/>
      <point x="194" y="5" type="curve"/>
      <point x="194" y="71"/>
      <point x="189" y="137"/>
      <point x="189" y="203" type="curve" smooth="yes"/>
      <point x="189" y="217"/>
      <point x="189" y="231"/>
      <point x="190" y="245" type="curve"/>
      <point x="231" y="161"/>
      <point x="262" y="71"/>
      <point x="321" y="-2" type="curve" name="hr02"/>
      <point x="344" y="-2"/>
      <point x="368" y="-6"/>
      <point x="391" y="-6" type="curve" smooth="yes" name="hr03"/>
      <point x="416" y="-6"/>
      <point x="440" y="-5"/>
      <point x="464" y="-1" type="curve"/>
    </contour>
    <contour>
      <point x="327" y="7" type="curve"/>
      <point x="266" y="83"/>
      <point x="236" y="179"/>
      <point x="191" y="265" type="curve"/>
      <point x="179" y="266" type="line"/>
      <point x="179" y="265"/>
      <point x="180" y="263"/>
      <point x="181" y="262" type="curve"/>
      <point x="180" y="242"/>
      <point x="179" y="222"/>
      <point x="179" y="202" type="curve" smooth="yes"/>
      <point x="179" y="137"/>
      <point x="184" y="73"/>
      <point x="184" y="9" type="curve"/>
      <point x="170" y="4"/>
      <point x="138" y="2"/>
      <point x="107" y="2" type="curve" smooth="yes"/>
      <point x="82" y="2"/>
      <point x="59" y="3"/>
      <point x="47" y="8" type="curve"/>
      <point x="43" y="73"/>
      <point x="42" y="139"/>
      <point x="42" y="204" type="curve" smooth="yes"/>
      <point x="42" y="368"/>
      <point x="50" y="531"/>
      <point x="50" y="694" type="curve"/>
      <point x="91" y="694"/>
      <point x="133" y="692"/>
      <point x="174" y="692" type="curve"/>
      <point x="175" y="671"/>
      <point x="175" y="649"/>
      <point x="175" y="628" type="curve" smooth="yes"/>
      <point x="175" y="599"/>
      <point x="174" y="570"/>
      <point x="174" y="541" type="curve" smooth="yes"/>
      <point x="174" y="517"/>
      <point x="174" y="456"/>
      <point x="176" y="456" type="curve" smooth="yes"/>
      <point x="176" y="456"/>
      <point x="176" y="456"/>
      <point x="176" y="457" type="curve"/>
      <point x="179" y="456"/>
      <point x="183" y="455"/>
      <point x="186" y="454" type="curve"/>
      <point x="186" y="455"/>
      <point x="187" y="456"/>
      <point x="187" y="457" type="curve" smooth="yes"/>
      <point x="225" y="495"/>
      <point x="249" y="553"/>
      <point x="273" y="600" type="curve" smooth="yes"/>
      <point x="290" y="633"/>
      <point x="307" y="662"/>
      <point x="328" y="692" type="curve"/>
      <point x="337" y="691"/>
      <point x="347" y="690"/>
      <point x="357" y="690" type="curve" smooth="yes"/>
      <point x="380" y="690"/>
      <point x="403" y="693"/>
      <point x="426" y="693" type="curve" smooth="yes"/>
      <point x="436" y="693"/>
      <point x="446" y="692"/>
      <point x="456" y="691" type="curve"/>
      <point x="421" y="572"/>
      <point x="334" y="475"/>
      <point x="288" y="361" type="curve"/>
      <point x="288" y="357" type="line"/>
      <point x="344" y="240"/>
      <point x="400" y="124"/>
      <point x="456" y="8" type="curve"/>
      <point x="434" y="5"/>
      <point x="412" y="4"/>
      <point x="391" y="4" type="curve" smooth="yes"/>
      <point x="369" y="4"/>
      <point x="348" y="5"/>
    </contour>
  </outline>
</glyph>
<glyph name="L" format="1">
  <advance width="461"/>
  <unicode hex="004C"/>
  <outline>
    <contour>
      <point x="452" y="90" type="curve" name="hr01"/>
      <point x="452" y="74"/>
      <point x="456" y="55"/>
      <point x="456" y="38" type="curve" smooth="yes"/>
      <point x="456" y="26"/>
      <point x="454" y="15"/>
      <point x="449" y="5" type="curve"/>
      <point x="313" y="5"/>
      <point x="177" y="4"/>
      <point x="41" y="4" type="curve"/>
      <point x="41" y="126"/>
      <point x="49" y="250"/>
      <point x="49" y="373" type="curve" smooth="yes"/>
      <point x="49" y="482"/>
      <point x="44" y="590"/>
      <point x="44" y="699" type="curve"/>
      <point x="69" y="704"/>
      <point x="95" y="707"/>
      <point x="120" y="707" type="curve" smooth="yes"/>
      <point x="145" y="707"/>
      <point x="170" y="704"/>
      <point x="194" y="697" type="curve"/>
      <point x="191" y="665"/>
      <point x="191" y="632"/>
      <point x="191" y="600" type="curve" smooth="yes"/>
      <point x="191" y="453"/>
      <point x="195" y="306"/>
      <point x="195" y="159" type="curve"/>
      <point x="201" y="153" type="line"/>
      <point x="207" y="154"/>
      <point x="214" y="154"/>
      <point x="220" y="154" type="curve" smooth="yes"/>
      <point x="287" y="154"/>
      <point x="367" y="145"/>
      <point x="434" y="145" type="curve" smooth="yes"/>
      <point x="441" y="145"/>
      <point x="447" y="145"/>
      <point x="454" y="146" type="curve"/>
      <point x="454" y="142" type="line"/>
      <point x="451" y="134"/>
      <point x="450" y="123"/>
      <point x="450" y="112" type="curve" smooth="yes"/>
      <point x="450" y="104"/>
      <point x="451" y="96"/>
    </contour>
    <contour>
      <point x="462" y="93" type="line" smooth="yes"/>
      <point x="461" y="97"/>
      <point x="460" y="101"/>
      <point x="460" y="105" type="curve" smooth="yes"/>
      <point x="460" y="117"/>
      <point x="464" y="131"/>
      <point x="464" y="144" type="curve" smooth="yes"/>
      <point x="464" y="151"/>
      <point x="461" y="152"/>
      <point x="459" y="157" type="curve"/>
      <point x="452" y="156"/>
      <point x="445" y="155"/>
      <point x="438" y="155" type="curve" smooth="yes"/>
      <point x="361" y="155"/>
      <point x="283" y="164"/>
      <point x="205" y="164" type="curve"/>
      <point x="205" y="310"/>
      <point x="201" y="456"/>
      <point x="201" y="603" type="curve" smooth="yes"/>
      <point x="201" y="635"/>
      <point x="201" y="668"/>
      <point x="204" y="700" type="curve"/>
      <point x="197" y="713"/>
      <point x="136" y="718"/>
      <point x="102" y="718" type="curve" smooth="yes"/>
      <point x="77" y="718"/>
      <point x="53" y="715"/>
      <point x="37" y="708" type="curve"/>
      <point x="34" y="702" type="line"/>
      <point x="34" y="592"/>
      <point x="39" y="484"/>
      <point x="39" y="375" type="curve" smooth="yes"/>
      <point x="39" y="250"/>
      <point x="31" y="125"/>
      <point x="31" y="0" type="curve"/>
      <point x="33" y="-2"/>
      <point x="34" y="-4"/>
      <point x="36" y="-6" type="curve" name="hr02"/>
      <point x="109" y="-6"/>
      <point x="184" y="-9"/>
      <point x="258" y="-9" type="curve" smooth="yes" name="hr03"/>
      <point x="306" y="-9"/>
      <point x="344" y="-7"/>
      <point x="400" y="-7" type="curve" smooth="yes" name="hr04"/>
      <point x="469" y="-7"/>
      <point x="465" y="1"/>
      <point x="465" y="36" type="curve" smooth="yes"/>
      <point x="465" y="56"/>
      <point x="462" y="80"/>
      <point x="462" y="91" type="curve" smooth="yes"/>
    </contour>
  </outline>
</glyph>
<glyph name="M" format="1">
  <advance width="501"/>
  <unicode hex="004D"/>
  <outline>
    <contour>
      <point x="461" y="-1" type="line" name="hr01"/>
      <point x="462" y="129"/>
      <point x="466" y="263"/>
      <point x="466" y="394" type="curve" smooth="yes"/>
      <point x="466" y="465"/>
      <point x="463" y="536"/>
      <point x="463" y="608" type="curve" smooth="yes"/>
      <point x="463" y="637"/>
      <point x="463" y="667"/>
      <point x="465" y="697" type="curve"/>
      <point x="463" y="699"/>
      <point x="461" y="700"/>
      <point x="460" y="702" type="curve"/>
      <point x="415" y="702"/>
      <point x="373" y="696"/>
      <point x="330" y="696" type="curve" smooth="yes"/>
      <point x="324" y="696"/>
      <point x="318" y="697"/>
      <point x="313" y="698" type="curve"/>
      <point x="272" y="657"/>
      <point x="277" y="590"/>
      <point x="252" y="542" type="curve"/>
      <point x="218" y="579"/>
      <point x="219" y="658"/>
      <point x="181" y="696" type="curve"/>
      <point x="162" y="696"/>
      <point x="130" y="698"/>
      <point x="100" y="698" type="curve" smooth="yes"/>
      <point x="76" y="698"/>
      <point x="54" y="697"/>
      <point x="42" y="691" type="curve"/>
      <point x="39" y="685" type="line"/>
      <point x="39" y="548"/>
      <point x="36" y="410"/>
      <point x="36" y="273" type="curve" smooth="yes"/>
      <point x="36" y="68" type="line" smooth="yes"/>
      <point x="36" y="25"/>
      <point x="36" y="-6"/>
      <point x="57" y="-6" type="curve" smooth="yes"/>
      <point x="66" y="-6"/>
      <point x="78" y="-5"/>
      <point x="95" y="-5" type="curve" smooth="yes" name="hr02"/>
      <point x="110" y="-5"/>
      <point x="129" y="-6"/>
      <point x="144" y="-6" type="curve" smooth="yes" name="hr03"/>
      <point x="162" y="-6"/>
      <point x="189" y="-5"/>
      <point x="193" y="3" type="curve"/>
      <point x="188" y="84"/>
      <point x="183" y="165"/>
      <point x="183" y="245" type="curve" smooth="yes"/>
      <point x="183" y="283"/>
      <point x="184" y="320"/>
      <point x="187" y="358" type="curve"/>
      <point x="191" y="349"/>
      <point x="193" y="340"/>
      <point x="197" y="330" type="curve" smooth="yes"/>
      <point x="203" y="312"/>
      <point x="227" y="238"/>
      <point x="248" y="238" type="curve"/>
      <point x="279" y="269"/>
      <point x="289" y="328"/>
      <point x="307" y="372" type="curve"/>
      <point x="315" y="290"/>
      <point x="316" y="206"/>
      <point x="316" y="125" type="curve" smooth="yes"/>
      <point x="316" y="98"/>
      <point x="315" y="73"/>
      <point x="315" y="45" type="curve" smooth="yes"/>
      <point x="315" y="2"/>
      <point x="313" y="-6"/>
      <point x="351" y="-6" type="curve" smooth="yes"/>
      <point x="373" y="-6"/>
      <point x="394" y="-3"/>
      <point x="417" y="-3" type="curve" name="hr04"/>
      <point x="430" y="-4"/>
      <point x="443" y="-5"/>
      <point x="456" y="-6" type="curve" name="hr05"/>
    </contour>
    <contour>
      <point x="365" y="5" type="curve"/>
      <point x="328" y="5" type="line"/>
      <point x="326" y="23"/>
      <point x="325" y="42"/>
      <point x="325" y="60" type="curve" smooth="yes"/>
      <point x="325" y="82"/>
      <point x="326" y="104"/>
      <point x="326" y="126" type="curve" smooth="yes"/>
      <point x="326" y="213"/>
      <point x="326" y="303"/>
      <point x="315" y="389" type="curve"/>
      <point x="312" y="390"/>
      <point x="309" y="391"/>
      <point x="307" y="393" type="curve"/>
      <point x="280" y="366"/>
      <point x="273" y="281"/>
      <point x="246" y="248" type="curve"/>
      <point x="234" y="248"/>
      <point x="190" y="371"/>
      <point x="190" y="382" type="curve"/>
      <point x="189" y="382" type="line"/>
      <point x="189" y="383"/>
      <point x="190" y="384"/>
      <point x="190" y="385" type="curve"/>
      <point x="188" y="384"/>
      <point x="185" y="383"/>
      <point x="183" y="382" type="curve" name="hr06"/>
      <point x="182" y="382"/>
      <point x="181" y="383"/>
      <point x="180" y="383" type="curve"/>
      <point x="180" y="381" type="line" smooth="yes"/>
      <point x="175" y="335"/>
      <point x="173" y="288"/>
      <point x="173" y="242" type="curve" smooth="yes" name="hr07"/>
      <point x="173" y="164"/>
      <point x="178" y="86"/>
      <point x="183" y="7" type="curve" name="hr08"/>
      <point x="164" y="4"/>
      <point x="145" y="4"/>
      <point x="126" y="4" type="curve" smooth="yes"/>
      <point x="100" y="4"/>
      <point x="74" y="5"/>
      <point x="49" y="5" type="curve"/>
      <point x="49" y="7" type="line" smooth="yes"/>
      <point x="45" y="43"/>
      <point x="43" y="80"/>
      <point x="43" y="117" type="curve" smooth="yes"/>
      <point x="43" y="307"/>
      <point x="49" y="494"/>
      <point x="49" y="682" type="curve"/>
      <point x="71" y="686"/>
      <point x="95" y="687"/>
      <point x="118" y="687" type="curve" smooth="yes"/>
      <point x="138" y="687"/>
      <point x="159" y="686"/>
      <point x="179" y="686" type="curve"/>
      <point x="220" y="640"/>
      <point x="220" y="532"/>
      <point x="254" y="532" type="curve"/>
      <point x="255" y="533"/>
      <point x="256" y="533"/>
      <point x="258" y="534" type="curve" smooth="yes"/>
      <point x="278" y="554"/>
      <point x="287" y="654"/>
      <point x="314" y="687" type="curve"/>
      <point x="320" y="686"/>
      <point x="328" y="685"/>
      <point x="337" y="685" type="curve" smooth="yes"/>
      <point x="373" y="685"/>
      <point x="427" y="692"/>
      <point x="455" y="692" type="curve"/>
      <point x="453" y="663"/>
      <point x="453" y="634"/>
      <point x="453" y="604" type="curve" smooth="yes"/>
      <point x="453" y="528"/>
      <point x="456" y="452"/>
      <point x="456" y="376" type="curve" smooth="yes"/>
      <point x="456" y="252"/>
      <point x="451" y="127"/>
      <point x="451" y="5" type="curve"/>
      <point x="436" y="7"/>
      <point x="416" y="8"/>
      <point x="398" y="8" type="curve" smooth="yes"/>
      <point x="385" y="8"/>
      <point x="373" y="7"/>
    </contour>
  </outline>
</glyph>
<glyph name="O" format="1">
  <advance width="483"/>
  <unicode hex="004F"/>
  <outline>
    <contour>
      <point x="433" y="590" type="curve" smooth="yes" name="hr01"/>
      <point x="447" y="557"/>
      <point x="451" y="522"/>
      <point x="451" y="486" type="curve" smooth="yes"/>
      <point x="451" y="453"/>
      <point x="448" y="420"/>
      <point x="448" y="389" type="curve" smooth="yes"/>
      <point x="448" y="365"/>
      <point x="449" y="335"/>
      <point x="449" y="303" type="curve" smooth="yes"/>
      <point x="449" y="217"/>
      <point x="443" y="114"/>
      <point x="405" y="61" type="curve" smooth="yes"/>
      <point x="372" y="15"/>
      <point x="289" y="-10"/>
      <point x="213" y="-10" type="curve" smooth="yes"/>
      <point x="136" y="-10"/>
      <point x="83" y="12"/>
      <point x="59" y="69" type="curve"/>
      <point x="33" y="122"/>
      <point x="41" y="189"/>
      <point x="38" y="246" type="curve" smooth="yes"/>
      <point x="34" y="315"/>
      <point x="33" y="378"/>
      <point x="33" y="452" type="curve" smooth="yes"/>
      <point x="33" y="512"/>
      <point x="38" y="579"/>
      <point x="71" y="628" type="curve" smooth="yes"/>
      <point x="101" y="674"/>
      <point x="172" y="696"/>
      <point x="242" y="696" type="curve" smooth="yes"/>
      <point x="339" y="696"/>
      <point x="401" y="662"/>
    </contour>
    <contour>
      <point x="442" y="594" type="curve" smooth="yes"/>
      <point x="433" y="614"/>
      <point x="422" y="637"/>
      <point x="405" y="652" type="curve" smooth="yes"/>
      <point x="365" y="686"/>
      <point x="296" y="706"/>
      <point x="233" y="706" type="curve" smooth="yes"/>
      <point x="163" y="706"/>
      <point x="96" y="683"/>
      <point x="63" y="633" type="curve" smooth="yes"/>
      <point x="27" y="580"/>
      <point x="23" y="508"/>
      <point x="23" y="446" type="curve" smooth="yes"/>
      <point x="23" y="376"/>
      <point x="24" y="312"/>
      <point x="28" y="245" type="curve"/>
      <point x="33" y="136"/>
      <point x="9" y="-21"/>
      <point x="214" y="-21" type="curve" smooth="yes" name="hr02"/>
      <point x="292" y="-21"/>
      <point x="378" y="6"/>
      <point x="413" y="55" type="curve" smooth="yes"/>
      <point x="469" y="133"/>
      <point x="458" y="317"/>
      <point x="458" y="399" type="curve" smooth="yes"/>
      <point x="458" y="430"/>
      <point x="460" y="460"/>
      <point x="460" y="487" type="curve" smooth="yes"/>
      <point x="460" y="525"/>
      <point x="457" y="559"/>
    </contour>
    <contour>
      <point x="333" y="418" type="line" smooth="yes"/>
      <point x="321" y="480"/>
      <point x="328" y="566"/>
      <point x="246" y="566" type="curve" smooth="yes"/>
      <point x="154" y="566"/>
      <point x="130" y="455"/>
      <point x="130" y="375" type="curve" smooth="yes" name="hr03"/>
      <point x="130" y="356"/>
      <point x="131" y="336"/>
      <point x="132" y="318" type="curve" smooth="yes"/>
      <point x="138" y="230"/>
      <point x="136" y="121"/>
      <point x="236" y="121" type="curve" smooth="yes"/>
      <point x="278" y="121"/>
      <point x="331" y="149"/>
      <point x="331" y="203" type="curve" smooth="yes"/>
      <point x="331" y="257"/>
      <point x="334" y="308"/>
      <point x="334" y="361" type="curve" smooth="yes"/>
      <point x="334" y="379"/>
      <point x="333" y="397"/>
      <point x="333" y="416" type="curve" smooth="yes"/>
    </contour>
    <contour>
      <point x="323" y="415" type="curve"/>
      <point x="323" y="397"/>
      <point x="324" y="379"/>
      <point x="324" y="361" type="curve" smooth="yes" name="hr04"/>
      <point x="324" y="309"/>
      <point x="321" y="258"/>
      <point x="321" y="204" type="curve" smooth="yes"/>
      <point x="321" y="153"/>
      <point x="278" y="131"/>
      <point x="241" y="131" type="curve" smooth="yes"/>
      <point x="214" y="131"/>
      <point x="186" y="142"/>
      <point x="167" y="161" type="curve"/>
      <point x="150" y="194"/>
      <point x="151" y="232"/>
      <point x="148" y="268" type="curve" smooth="yes"/>
      <point x="145" y="304"/>
      <point x="140" y="342"/>
      <point x="140" y="379" type="curve" smooth="yes"/>
      <point x="140" y="459"/>
      <point x="165" y="557"/>
      <point x="243" y="557" type="curve" smooth="yes"/>
      <point x="266" y="557"/>
      <point x="288" y="546"/>
      <point x="304" y="522" type="curve" smooth="yes"/>
      <point x="325" y="489"/>
      <point x="316" y="451"/>
    </contour>
  </outline>
</glyph>
<glyph name="Q" format="1">
  <advance width="495"/>
  <unicode hex="0051"/>
  <outline>
    <contour>
      <point x="461" y="163" type="curve" name="hr01"/>
      <point x="467" y="192"/>
      <point x="466" y="220"/>
      <point x="468" y="249" type="curve" smooth="yes"/>
      <point x="471" y="287"/>
      <point x="472" y="326"/>
      <point x="472" y="364" type="curve" smooth="yes"/>
      <point x="472" y="471"/>
      <point x="472" y="639"/>
      <point x="371" y="700" type="curve" smooth="yes"/>
      <point x="340" y="718"/>
      <point x="294" y="719"/>
      <point x="265" y="719" type="curve" smooth="yes"/>
      <point x="184" y="719"/>
      <point x="87" y="703"/>
      <point x="49" y="624" type="curve" smooth="yes"/>
      <point x="23" y="571"/>
      <point x="25" y="438"/>
      <point x="25" y="382" type="curve" smooth="yes"/>
      <point x="25" y="347"/>
      <point x="22" y="305"/>
      <point x="22" y="261" type="curve" smooth="yes"/>
      <point x="22" y="200"/>
      <point x="28" y="139"/>
      <point x="53" y="93" type="curve" smooth="yes"/>
      <point x="89" y="27"/>
      <point x="164" y="-12"/>
      <point x="238" y="-12" type="curve" smooth="yes"/>
      <point x="270" y="-12"/>
      <point x="314" y="-5"/>
      <point x="338" y="16" type="curve"/>
      <point x="350" y="1"/>
      <point x="366" y="-12"/>
      <point x="381" y="-12" type="curve" smooth="yes"/>
      <point x="406" y="-12"/>
      <point x="453" y="19"/>
      <point x="453" y="47" type="curve" smooth="yes"/>
      <point x="453" y="60"/>
      <point x="441" y="66"/>
      <point x="434" y="78" type="curve"/>
      <point x="445" y="102"/>
      <point x="460" y="134"/>
    </contour>
    <contour>
      <point x="451" y="164" type="line" smooth="yes"/>
      <point x="451" y="137"/>
      <point x="434" y="104"/>
      <point x="424" y="80" type="curve"/>
      <point x="424" y="76" type="line"/>
      <point x="427" y="69"/>
      <point x="433" y="62"/>
      <point x="439" y="57" type="curve"/>
      <point x="442" y="51" type="line"/>
      <point x="442" y="28"/>
      <point x="406" y="-3"/>
      <point x="375" y="-3" type="curve" name="hr02"/>
      <point x="361" y="5"/>
      <point x="346" y="23"/>
      <point x="337" y="28" type="curve"/>
      <point x="312" y="3"/>
      <point x="269" y="-1"/>
      <point x="239" y="-1" type="curve" smooth="yes" name="hr03"/>
      <point x="169" y="-1"/>
      <point x="95" y="34"/>
      <point x="61" y="97" type="curve" smooth="yes"/>
      <point x="37" y="141"/>
      <point x="34" y="194"/>
      <point x="34" y="244" type="curve" smooth="yes"/>
      <point x="34" y="266"/>
      <point x="35" y="287"/>
      <point x="35" y="307" type="curve" smooth="yes"/>
      <point x="35" y="331"/>
      <point x="34" y="367"/>
      <point x="34" y="406" type="curve" smooth="yes"/>
      <point x="34" y="483"/>
      <point x="38" y="572"/>
      <point x="58" y="620" type="curve" smooth="yes"/>
      <point x="90" y="695"/>
      <point x="188" y="709"/>
      <point x="263" y="709" type="curve" smooth="yes"/>
      <point x="308" y="709"/>
      <point x="365" y="709"/>
      <point x="404" y="656" type="curve" smooth="yes"/>
      <point x="456" y="584"/>
      <point x="462" y="481"/>
      <point x="462" y="394" type="curve" smooth="yes"/>
      <point x="462" y="346"/>
      <point x="461" y="298"/>
      <point x="458" y="250" type="curve" smooth="yes"/>
      <point x="456" y="221"/>
      <point x="457" y="194"/>
      <point x="451" y="166" type="curve" smooth="yes"/>
    </contour>
    <contour>
      <point x="290" y="227" type="curve"/>
      <point x="297" y="227" type="line"/>
      <point x="312" y="212"/>
      <point x="317" y="192"/>
      <point x="331" y="178" type="curve"/>
      <point x="333" y="180"/>
      <point x="336" y="181"/>
      <point x="339" y="182" type="curve"/>
      <point x="339" y="183"/>
      <point x="338" y="186"/>
      <point x="338" y="188" type="curve" smooth="yes"/>
      <point x="338" y="214"/>
      <point x="351" y="287"/>
      <point x="351" y="307" type="curve" smooth="yes"/>
      <point x="351" y="343"/>
      <point x="348" y="362"/>
      <point x="348" y="393" type="curve" smooth="yes" name="hr04"/>
      <point x="348" y="490"/>
      <point x="346" y="572"/>
      <point x="229" y="572" type="curve" smooth="yes"/>
      <point x="158" y="572"/>
      <point x="145" y="514"/>
      <point x="145" y="373" type="curve" smooth="yes"/>
      <point x="145" y="357"/>
      <point x="148" y="341"/>
      <point x="148" y="327" type="curve"/>
      <point x="142" y="310"/>
      <point x="144" y="294"/>
      <point x="144" y="275" type="curve" smooth="yes"/>
      <point x="144" y="202"/>
      <point x="150" y="109"/>
      <point x="258" y="109" type="curve" smooth="yes"/>
      <point x="265" y="109"/>
      <point x="269" y="110"/>
      <point x="273" y="119" type="curve"/>
      <point x="256" y="136"/>
      <point x="231" y="156"/>
      <point x="231" y="183" type="curve"/>
      <point x="238" y="196"/>
      <point x="251" y="193"/>
      <point x="281" y="223" type="curve"/>
      <point x="284" y="224"/>
      <point x="287" y="226"/>
    </contour>
    <contour>
      <point x="294" y="237" type="curve" smooth="yes"/>
      <point x="278" y="237"/>
      <point x="272" y="226"/>
      <point x="261" y="218" type="curve" smooth="yes"/>
      <point x="244" y="206"/>
      <point x="220" y="201"/>
      <point x="220" y="180" type="curve" smooth="yes" name="hr05"/>
      <point x="220" y="158"/>
      <point x="247" y="131"/>
      <point x="258" y="120" type="curve"/>
      <point x="167" y="120"/>
      <point x="155" y="183"/>
      <point x="155" y="252" type="curve" smooth="yes"/>
      <point x="155" y="289"/>
      <point x="160" y="324"/>
      <point x="160" y="359" type="curve" smooth="yes"/>
      <point x="160" y="379"/>
      <point x="156" y="390"/>
      <point x="156" y="418" type="curve" smooth="yes"/>
      <point x="156" y="522"/>
      <point x="167" y="562"/>
      <point x="237" y="562" type="curve" smooth="yes"/>
      <point x="345" y="562"/>
      <point x="339" y="469"/>
      <point x="339" y="348" type="curve" smooth="yes" name="hr06"/>
      <point x="339" y="314"/>
      <point x="337" y="290"/>
      <point x="337" y="275" type="curve" smooth="yes"/>
      <point x="337" y="269"/>
      <point x="338" y="262"/>
      <point x="338" y="258" type="curve"/>
      <point x="332" y="240"/>
      <point x="331" y="212"/>
      <point x="331" y="193" type="curve"/>
      <point x="321" y="207"/>
      <point x="315" y="237"/>
    </contour>
  </outline>
</glyph>
<glyph name="S" format="1">
  <advance width="485"/>
  <unicode hex="0053"/>
  <outline>
    <contour>
      <point x="468" y="474" type="curve" name="hr01"/>
      <point x="470" y="492"/>
      <point x="472" y="509"/>
      <point x="472" y="526" type="curve" smooth="yes"/>
      <point x="472" y="648"/>
      <point x="359" y="705"/>
      <point x="252" y="705" type="curve" smooth="yes"/>
      <point x="107" y="705"/>
      <point x="17" y="600"/>
      <point x="17" y="471" type="curve" smooth="yes"/>
      <point x="17" y="406"/>
      <point x="70" y="313"/>
      <point x="137" y="297" type="curve" smooth="yes"/>
      <point x="193" y="283"/>
      <point x="296" y="279"/>
      <point x="296" y="200" type="curve" smooth="yes"/>
      <point x="296" y="165"/>
      <point x="268" y="148"/>
      <point x="238" y="148" type="curve" smooth="yes"/>
      <point x="206" y="148"/>
      <point x="173" y="167"/>
      <point x="170" y="207" type="curve"/>
      <point x="160" y="217"/>
      <point x="62" y="214"/>
      <point x="45" y="214" type="curve" smooth="yes" name="hr02"/>
      <point x="22" y="214"/>
      <point x="7" y="215"/>
      <point x="7" y="188" type="curve" smooth="yes"/>
      <point x="7" y="61"/>
      <point x="131" y="-11"/>
      <point x="247" y="-11" type="curve" smooth="yes"/>
      <point x="363" y="-11"/>
      <point x="467" y="64"/>
      <point x="467" y="206" type="curve" smooth="yes"/>
      <point x="467" y="308"/>
      <point x="397" y="399"/>
      <point x="274" y="432" type="curve" smooth="yes"/>
      <point x="245" y="440"/>
      <point x="190" y="435"/>
      <point x="190" y="486" type="curve" smooth="yes"/>
      <point x="190" y="524"/>
      <point x="221" y="540"/>
      <point x="246" y="540" type="curve" smooth="yes"/>
      <point x="276" y="540"/>
      <point x="308" y="519"/>
      <point x="308" y="486" type="curve" smooth="yes"/>
      <point x="308" y="483"/>
      <point x="308" y="480"/>
      <point x="307" y="476" type="curve" name="hr03"/>
      <point x="310" y="470" type="line"/>
      <point x="332" y="464"/>
      <point x="355" y="461"/>
      <point x="378" y="461" type="curve" smooth="yes"/>
      <point x="401" y="461"/>
      <point x="455" y="461"/>
    </contour>
    <contour>
      <point x="318" y="479" type="curve"/>
      <point x="318" y="482"/>
      <point x="319" y="486"/>
      <point x="319" y="489" type="curve" smooth="yes" name="hr04"/>
      <point x="319" y="526"/>
      <point x="281" y="549"/>
      <point x="245" y="549" type="curve" smooth="yes"/>
      <point x="214" y="549"/>
      <point x="180" y="530"/>
      <point x="180" y="485" type="curve" smooth="yes"/>
      <point x="180" y="416"/>
      <point x="278" y="426"/>
      <point x="320" y="406" type="curve" smooth="yes"/>
      <point x="406" y="365"/>
      <point x="457" y="290"/>
      <point x="457" y="205" type="curve" smooth="yes"/>
      <point x="457" y="70"/>
      <point x="357" y="0"/>
      <point x="247" y="0" type="curve" smooth="yes"/>
      <point x="124" y="0"/>
      <point x="17" y="74"/>
      <point x="17" y="202" type="curve"/>
      <point x="30" y="204"/>
      <point x="44" y="204"/>
      <point x="57" y="204" type="curve" smooth="yes"/>
      <point x="92" y="204"/>
      <point x="126" y="202"/>
      <point x="160" y="202" type="curve"/>
      <point x="163" y="159"/>
      <point x="201" y="138"/>
      <point x="237" y="138" type="curve" smooth="yes"/>
      <point x="272" y="138"/>
      <point x="307" y="159"/>
      <point x="307" y="200" type="curve" smooth="yes" name="hr05"/>
      <point x="307" y="291"/>
      <point x="198" y="292"/>
      <point x="138" y="307" type="curve" smooth="yes"/>
      <point x="71" y="324"/>
      <point x="27" y="417"/>
      <point x="27" y="477" type="curve" smooth="yes"/>
      <point x="27" y="596"/>
      <point x="118" y="696"/>
      <point x="249" y="696" type="curve" smooth="yes"/>
      <point x="351" y="696"/>
      <point x="463" y="639"/>
      <point x="463" y="528" type="curve" smooth="yes"/>
      <point x="463" y="512"/>
      <point x="461" y="495"/>
      <point x="458" y="478" type="curve"/>
      <point x="432" y="474"/>
      <point x="406" y="470"/>
      <point x="380" y="470" type="curve" smooth="yes"/>
      <point x="359" y="470"/>
      <point x="338" y="473"/>
    </contour>
  </outline>
</glyph>
<glyph name="U" format="1">
  <advance width="505"/>
  <unicode hex="0055"/>
  <outline>
    <contour>
      <point x="472" y="673" type="line" name="hr01"/>
      <point x="454" y="682"/>
      <point x="435" y="685"/>
      <point x="417" y="685" type="curve" smooth="yes"/>
      <point x="389" y="685"/>
      <point x="338" y="683"/>
      <point x="318" y="673" type="curve"/>
      <point x="312" y="539"/>
      <point x="313" y="405"/>
      <point x="313" y="271" type="curve" smooth="yes"/>
      <point x="313" y="170"/>
      <point x="301" y="145"/>
      <point x="254" y="145" type="curve" smooth="yes"/>
      <point x="195" y="145"/>
      <point x="188" y="200"/>
      <point x="188" y="242" type="curve" smooth="yes"/>
      <point x="188" y="255"/>
      <point x="189" y="268"/>
      <point x="189" y="276" type="curve" smooth="yes"/>
      <point x="189" y="330"/>
      <point x="185" y="385"/>
      <point x="185" y="439" type="curve" smooth="yes"/>
      <point x="185" y="518"/>
      <point x="187" y="596"/>
      <point x="187" y="675" type="curve"/>
      <point x="180" y="688"/>
      <point x="139" y="688"/>
      <point x="122" y="688" type="curve" smooth="yes"/>
      <point x="99" y="688"/>
      <point x="41" y="689"/>
      <point x="37" y="678" type="curve"/>
      <point x="36" y="539"/>
      <point x="30" y="346"/>
      <point x="30" y="182" type="curve" smooth="yes"/>
      <point x="30" y="152"/>
      <point x="32" y="123"/>
      <point x="40" y="102" type="curve" smooth="yes"/>
      <point x="72" y="17"/>
      <point x="169" y="-22"/>
      <point x="256" y="-22" type="curve" smooth="yes"/>
      <point x="319" y="-22"/>
      <point x="384" y="-6"/>
      <point x="433" y="65" type="curve" smooth="yes"/>
      <point x="471" y="120"/>
      <point x="470" y="220"/>
      <point x="473" y="280" type="curve" smooth="yes"/>
      <point x="476" y="348"/>
      <point x="478" y="415"/>
      <point x="478" y="483" type="curve" smooth="yes"/>
      <point x="478" y="545"/>
      <point x="476" y="607"/>
      <point x="474" y="669" type="curve"/>
    </contour>
    <contour>
      <point x="463" y="281" type="curve" smooth="yes"/>
      <point x="458" y="173"/>
      <point x="465" y="-12"/>
      <point x="265" y="-12" type="curve" smooth="yes" name="hr02"/>
      <point x="175" y="-12"/>
      <point x="71" y="29"/>
      <point x="49" y="106" type="curve" smooth="yes"/>
      <point x="42" y="129"/>
      <point x="40" y="155"/>
      <point x="40" y="180" type="curve" smooth="yes"/>
      <point x="40" y="347"/>
      <point x="46" y="507"/>
      <point x="46" y="675" type="curve"/>
      <point x="66" y="675"/>
      <point x="86" y="676"/>
      <point x="106" y="676" type="curve" smooth="yes"/>
      <point x="130" y="676"/>
      <point x="153" y="675"/>
      <point x="177" y="671" type="curve"/>
      <point x="174" y="607"/>
      <point x="172" y="543"/>
      <point x="172" y="478" type="curve" smooth="yes"/>
      <point x="172" y="429"/>
      <point x="173" y="380"/>
      <point x="176" y="331" type="curve" smooth="yes"/>
      <point x="180" y="259"/>
      <point x="162" y="134"/>
      <point x="247" y="134" type="curve" smooth="yes"/>
      <point x="306" y="134"/>
      <point x="316" y="169"/>
      <point x="321" y="236" type="curve"/>
      <point x="325" y="380"/>
      <point x="321" y="523"/>
      <point x="328" y="667" type="curve"/>
      <point x="357" y="667"/>
      <point x="387" y="675"/>
      <point x="416" y="675" type="curve" smooth="yes"/>
      <point x="433" y="675"/>
      <point x="449" y="672"/>
      <point x="464" y="665" type="curve"/>
      <point x="466" y="604"/>
      <point x="468" y="543"/>
      <point x="468" y="482" type="curve" smooth="yes"/>
      <point x="468" y="415"/>
      <point x="466" y="348"/>
    </contour>
  </outline>
</glyph>
<glyph name="X" format="1">
  <advance width="436"/>
  <unicode hex="0058"/>
  <outline>
    <contour>
      <point x="444" y="698" type="line" name="hr01"/>
      <point x="445" y="700" type="line"/>
      <point x="440" y="705"/>
      <point x="431" y="706"/>
      <point x="421" y="706" type="curve" smooth="yes"/>
      <point x="412" y="706"/>
      <point x="402" y="705"/>
      <point x="396" y="705" type="curve" smooth="yes" name="hr02"/>
      <point x="383" y="705"/>
      <point x="363" y="706"/>
      <point x="343" y="706" type="curve" smooth="yes" name="hr03"/>
      <point x="317" y="706"/>
      <point x="290" y="704"/>
      <point x="281" y="695" type="curve"/>
      <point x="281" y="696" type="line"/>
      <point x="257" y="624"/>
      <point x="243" y="550"/>
      <point x="217" y="479" type="curve"/>
      <point x="198" y="533"/>
      <point x="186" y="590"/>
      <point x="169" y="645" type="curve" smooth="yes"/>
      <point x="160" y="672"/>
      <point x="169" y="701"/>
      <point x="112" y="701" type="curve" smooth="yes"/>
      <point x="72" y="701"/>
      <point x="0" y="697"/>
      <point x="-5" y="687" type="curve"/>
      <point x="40" y="576"/>
      <point x="81" y="464"/>
      <point x="108" y="347" type="curve"/>
      <point x="81" y="232"/>
      <point x="34" y="124"/>
      <point x="4" y="10" type="curve"/>
      <point x="7" y="4" type="line"/>
      <point x="25" y="-4"/>
      <point x="64" y="-8"/>
      <point x="97" y="-8" type="curve" smooth="yes"/>
      <point x="116" y="-8"/>
      <point x="134" y="-6"/>
      <point x="144" y="-3" type="curve" name="hr04"/>
      <point x="145" y="-3" type="line"/>
      <point x="146" y="-2"/>
      <point x="148" y="-1"/>
      <point x="150" y="0" type="curve"/>
      <point x="184" y="69"/>
      <point x="189" y="150"/>
      <point x="220" y="220" type="curve"/>
      <point x="244" y="169"/>
      <point x="250" y="110"/>
      <point x="265" y="58" type="curve" smooth="yes"/>
      <point x="268" y="48"/>
      <point x="277" y="7"/>
      <point x="287" y="1" type="curve" smooth="yes"/>
      <point x="297" y="-6"/>
      <point x="329" y="-5"/>
      <point x="360" y="-5" type="curve" smooth="yes" name="hr05"/>
      <point x="392" y="-5"/>
      <point x="423" y="-4"/>
      <point x="429" y="4" type="curve"/>
      <point x="410" y="80"/>
      <point x="384" y="156"/>
      <point x="362" y="232" type="curve" smooth="yes"/>
      <point x="352" y="266"/>
      <point x="336" y="305"/>
      <point x="336" y="341" type="curve" smooth="yes"/>
      <point x="336" y="371"/>
      <point x="347" y="401"/>
      <point x="355" y="430" type="curve" smooth="yes"/>
      <point x="378" y="521"/>
      <point x="414" y="608"/>
      <point x="444" y="696" type="curve"/>
    </contour>
    <contour>
      <point x="326" y="342" type="curve"/>
      <point x="326" y="309"/>
      <point x="342" y="262"/>
      <point x="352" y="229" type="curve" smooth="yes"/>
      <point x="374" y="154"/>
      <point x="398" y="81"/>
      <point x="418" y="7" type="curve"/>
      <point x="394" y="6"/>
      <point x="370" y="4"/>
      <point x="345" y="4" type="curve" smooth="yes"/>
      <point x="327" y="4"/>
      <point x="310" y="5"/>
      <point x="293" y="9" type="curve"/>
      <point x="269" y="57"/>
      <point x="261" y="114"/>
      <point x="248" y="167" type="curve" smooth="yes"/>
      <point x="243" y="186"/>
      <point x="239" y="219"/>
      <point x="224" y="234" type="curve"/>
      <point x="221" y="234"/>
      <point x="218" y="234"/>
      <point x="216" y="233" type="curve"/>
      <point x="179" y="162"/>
      <point x="176" y="78"/>
      <point x="142" y="7" type="curve"/>
      <point x="119" y="6"/>
      <point x="93" y="3"/>
      <point x="69" y="3" type="curve" smooth="yes"/>
      <point x="50" y="3"/>
      <point x="31" y="5"/>
      <point x="15" y="12" type="curve"/>
      <point x="45" y="124"/>
      <point x="95" y="231"/>
      <point x="118" y="345" type="curve"/>
      <point x="118" y="363"/>
      <point x="103" y="415"/>
      <point x="97" y="436" type="curve" smooth="yes"/>
      <point x="73" y="520"/>
      <point x="40" y="603"/>
      <point x="6" y="684" type="curve"/>
      <point x="52" y="687"/>
      <point x="96" y="688"/>
      <point x="141" y="688" type="curve"/>
      <point x="143" y="687"/>
      <point x="144" y="687"/>
      <point x="146" y="686" type="curve"/>
      <point x="146" y="685" type="line" name="hr06"/>
      <point x="156" y="646"/>
      <point x="170" y="608"/>
      <point x="181" y="569" type="curve" smooth="yes"/>
      <point x="191" y="535"/>
      <point x="196" y="497"/>
      <point x="213" y="465" type="curve"/>
      <point x="222" y="465" type="line"/>
      <point x="257" y="535"/>
      <point x="266" y="617"/>
      <point x="290" y="691" type="curve"/>
      <point x="336" y="696"/>
      <point x="385" y="695"/>
      <point x="432" y="695" type="curve"/>
      <point x="394" y="581"/>
      <point x="337" y="460"/>
    </contour>
  </outline>
</glyph>
<glyph name="Y" format="1">
  <advance width="435"/>
  <unicode hex="0059"/>
  <outline>
    <contour>
      <point x="455" y="690" type="curve" name="hr01"/>
      <point x="455" y="693" type="line"/>
      <point x="436" y="695"/>
      <point x="410" y="701"/>
      <point x="398" y="701" type="curve" smooth="yes"/>
      <point x="365" y="701"/>
      <point x="310" y="697"/>
      <point x="303" y="690" type="curve"/>
      <point x="270" y="624"/>
      <point x="259" y="548"/>
      <point x="226" y="482" type="curve"/>
      <point x="194" y="547"/>
      <point x="168" y="621"/>
      <point x="154" y="692" type="curve"/>
      <point x="153" y="692"/>
      <point x="152" y="693"/>
      <point x="152" y="694" type="curve"/>
      <point x="136" y="702"/>
      <point x="120" y="704"/>
      <point x="103" y="704" type="curve" smooth="yes"/>
      <point x="77" y="704"/>
      <point x="21" y="701"/>
      <point x="11" y="691" type="curve"/>
      <point x="30" y="611"/>
      <point x="66" y="533"/>
      <point x="99" y="458" type="curve" smooth="yes"/>
      <point x="111" y="429"/>
      <point x="137" y="374"/>
      <point x="137" y="346" type="curve"/>
      <point x="90" y="230"/>
      <point x="40" y="112"/>
      <point x="4" y="-8" type="curve"/>
      <point x="20" y="-8"/>
      <point x="30" y="-8"/>
      <point x="43" y="-8" type="curve" smooth="yes"/>
      <point x="76" y="-8"/>
      <point x="131" y="-4"/>
      <point x="148" y="-4" type="curve" name="hr02"/>
      <point x="151" y="-5"/>
      <point x="152" y="-5"/>
      <point x="156" y="-5" type="curve" name="hr03"/>
      <point x="157" y="-4"/>
      <point x="159" y="-3"/>
      <point x="161" y="-2" type="curve"/>
      <point x="242" y="236"/>
      <point x="375" y="452"/>
    </contour>
    <contour>
      <point x="152" y="5" type="curve"/>
      <point x="148" y="7"/>
      <point x="138" y="8"/>
      <point x="124" y="8" type="curve" smooth="yes"/>
      <point x="90" y="8"/>
      <point x="36" y="3"/>
      <point x="21" y="3" type="curve" smooth="yes"/>
      <point x="20" y="3"/>
      <point x="19" y="4"/>
      <point x="18" y="4" type="curve"/>
      <point x="50" y="107"/>
      <point x="92" y="209"/>
      <point x="133" y="308" type="curve" smooth="yes"/>
      <point x="139" y="322"/>
      <point x="147" y="333"/>
      <point x="147" y="348" type="curve" smooth="yes"/>
      <point x="147" y="375"/>
      <point x="125" y="421"/>
      <point x="115" y="445" type="curve" smooth="yes"/>
      <point x="82" y="524"/>
      <point x="42" y="603"/>
      <point x="22" y="687" type="curve"/>
      <point x="49" y="687"/>
      <point x="77" y="693"/>
      <point x="104" y="693" type="curve" smooth="yes"/>
      <point x="118" y="693"/>
      <point x="131" y="691"/>
      <point x="145" y="687" type="curve"/>
      <point x="158" y="614"/>
      <point x="189" y="535"/>
      <point x="222" y="469" type="curve"/>
      <point x="231" y="469" type="line"/>
      <point x="265" y="538"/>
      <point x="278" y="615"/>
      <point x="310" y="684" type="curve"/>
      <point x="334" y="689"/>
      <point x="360" y="690"/>
      <point x="385" y="690" type="curve" smooth="yes"/>
      <point x="405" y="690"/>
      <point x="424" y="688"/>
      <point x="443" y="688" type="curve"/>
      <point x="364" y="453"/>
      <point x="233" y="239"/>
    </contour>
  </outline>
</glyph>
<glyph name="bracketleft" format="1">
  <advance width="321"/>
  <unicode hex="005B"/>
  <outline>
    <contour>
      <point x="197" y="-5" type="curve" smooth="yes" name="hr01"/>
      <point x="208" y="-5"/>
      <point x="231" y="-7"/>
      <point x="252" y="-7" type="curve" smooth="yes" name="hr02"/>
      <point x="291" y="-7"/>
      <point x="299" y="-8"/>
      <point x="299" y="23" type="curve" smooth="yes"/>
      <point x="299" y="59"/>
      <point x="296" y="95"/>
      <point x="296" y="132" type="curve"/>
      <point x="290" y="143"/>
      <point x="212" y="141"/>
      <point x="189" y="146" type="curve"/>
      <point x="189" y="251"/>
      <point x="180" y="355"/>
      <point x="180" y="460" type="curve" smooth="yes"/>
      <point x="180" y="500"/>
      <point x="181" y="540"/>
      <point x="185" y="581" type="curve"/>
      <point x="220" y="581"/>
      <point x="256" y="583"/>
      <point x="291" y="583" type="curve"/>
      <point x="310" y="602"/>
      <point x="303" y="667"/>
      <point x="303" y="672" type="curve" smooth="yes"/>
      <point x="303" y="686"/>
      <point x="302" y="700"/>
      <point x="297" y="711" type="curve"/>
      <point x="279" y="708"/>
      <point x="261" y="707"/>
      <point x="243" y="707" type="curve" smooth="yes"/>
      <point x="192" y="707"/>
      <point x="141" y="714"/>
      <point x="91" y="714" type="curve" smooth="yes" name="hr03"/>
      <point x="75" y="714"/>
      <point x="57" y="713"/>
      <point x="48" y="704" type="curve"/>
      <point x="48" y="705"/>
      <point x="48" y="705"/>
      <point x="48" y="705" type="curve"/>
      <point x="39" y="705"/>
      <point x="37" y="342"/>
      <point x="37" y="305" type="curve" smooth="yes"/>
      <point x="38" y="-7" type="line"/>
      <point x="57" y="-3"/>
      <point x="82" y="-2"/>
      <point x="102" y="-2" type="curve" smooth="yes" name="hr04"/>
      <point x="134" y="-2"/>
      <point x="166" y="-5"/>
    </contour>
    <contour>
      <point x="197" y="5" type="curve" smooth="yes"/>
      <point x="166" y="5"/>
      <point x="133" y="7"/>
      <point x="102" y="7" type="curve" smooth="yes"/>
      <point x="83" y="7"/>
      <point x="65" y="6"/>
      <point x="48" y="4" type="curve"/>
      <point x="48" y="88"/>
      <point x="47" y="173"/>
      <point x="47" y="257" type="curve" smooth="yes"/>
      <point x="47" y="405"/>
      <point x="49" y="553"/>
      <point x="58" y="701" type="curve"/>
      <point x="77" y="704"/>
      <point x="97" y="705"/>
      <point x="116" y="705" type="curve" smooth="yes"/>
      <point x="164" y="705"/>
      <point x="211" y="699"/>
      <point x="259" y="699" type="curve" smooth="yes"/>
      <point x="270" y="699"/>
      <point x="281" y="699"/>
      <point x="292" y="700" type="curve"/>
      <point x="292" y="663"/>
      <point x="294" y="628"/>
      <point x="287" y="593" type="curve"/>
      <point x="251" y="593"/>
      <point x="216" y="591"/>
      <point x="181" y="591" type="curve"/>
      <point x="171" y="586"/>
      <point x="169" y="541"/>
      <point x="169" y="504" type="curve" smooth="yes"/>
      <point x="169" y="383"/>
      <point x="179" y="263"/>
      <point x="179" y="143" type="curve"/>
      <point x="197" y="125"/>
      <point x="257" y="130"/>
      <point x="286" y="127" type="curve"/>
      <point x="286" y="87"/>
      <point x="289" y="47"/>
      <point x="289" y="6" type="curve"/>
      <point x="258" y="6"/>
      <point x="227" y="5"/>
    </contour>
  </outline>
</glyph>
<glyph name="asciicircum" format="1">
  <advance width="440"/>
  <unicode hex="005E"/>
  <outline>
    <contour>
      <point x="434" y="482" type="line" name="hr01"/>
      <point x="221" y="692"/>
      <point x="221" y="694"/>
      <point x="219" y="695" type="curve"/>
      <point x="147" y="621"/>
      <point x="56" y="559"/>
      <point x="4" y="469" type="curve"/>
      <point x="14" y="467"/>
      <point x="84" y="465"/>
      <point x="121" y="465" type="curve" smooth="yes"/>
      <point x="180" y="465"/>
      <point x="184" y="509"/>
      <point x="217" y="529" type="curve"/>
      <point x="258" y="496"/>
      <point x="247" y="464"/>
      <point x="334" y="464" type="curve" smooth="yes" name="hr02"/>
      <point x="369" y="464"/>
      <point x="414" y="473"/>
      <point x="445" y="473" type="curve"/>
    </contour>
    <contour>
      <point x="359" y="475" type="curve"/>
      <point x="333" y="475"/>
      <point x="307" y="478"/>
      <point x="281" y="478" type="curve"/>
      <point x="254" y="492"/>
      <point x="243" y="526"/>
      <point x="215" y="540" type="curve"/>
      <point x="186" y="522"/>
      <point x="159" y="483"/>
      <point x="149" y="478" type="curve"/>
      <point x="140" y="478"/>
      <point x="129" y="476"/>
      <point x="115" y="476" type="curve" smooth="yes"/>
      <point x="83" y="476"/>
      <point x="42" y="479"/>
      <point x="20" y="482" type="curve"/>
      <point x="77" y="559"/>
      <point x="153" y="615"/>
      <point x="220" y="682" type="curve"/>
      <point x="418" y="483" type="line"/>
      <point x="398" y="481"/>
      <point x="378" y="476"/>
    </contour>
  </outline>
</glyph>
<glyph name="underscore" format="1">
  <advance width="650"/>
  <unicode hex="005F"/>
  <outline>
    <contour>
      <point x="36" y="-43" type="line" name="hr01"/>
      <point x="36" y="-58"/>
      <point x="33" y="-75"/>
      <point x="33" y="-92" type="curve" smooth="yes"/>
      <point x="33" y="-109"/>
      <point x="34" y="-149"/>
      <point x="43" y="-153" type="curve"/>
      <point x="231" y="-153"/>
      <point x="419" y="-155"/>
      <point x="607" y="-155" type="curve" name="hr02"/>
      <point x="613" y="-142"/>
      <point x="614" y="-120"/>
      <point x="614" y="-96" type="curve" smooth="yes"/>
      <point x="614" y="-91"/>
      <point x="614" y="-86"/>
      <point x="614" y="-80" type="curve" smooth="yes"/>
      <point x="614" y="-63"/>
      <point x="615" y="-46"/>
      <point x="616" y="-32" type="curve"/>
      <point x="490" y="-32"/>
      <point x="359" y="-35"/>
      <point x="234" y="-35" type="curve" smooth="yes" name="hr03"/>
      <point x="198" y="-35"/>
      <point x="162" y="-33"/>
      <point x="126" y="-33" type="curve" smooth="yes" name="hr04"/>
      <point x="98" y="-33"/>
      <point x="69" y="-34"/>
      <point x="41" y="-37" type="curve"/>
    </contour>
    <contour>
      <point x="264" y="-44" type="curve" smooth="yes"/>
      <point x="377" y="-44"/>
      <point x="491" y="-42"/>
      <point x="605" y="-42" type="curve"/>
      <point x="601" y="-76"/>
      <point x="602" y="-111"/>
      <point x="602" y="-145" type="curve"/>
      <point x="548" y="-145"/>
      <point x="47" y="-146"/>
      <point x="47" y="-139" type="curve" smooth="yes"/>
      <point x="47" y="-132"/>
      <point x="48" y="-122"/>
      <point x="46" y="-115" type="curve"/>
      <point x="46" y="-46" type="line"/>
      <point x="76" y="-43"/>
      <point x="106" y="-42"/>
      <point x="136" y="-42" type="curve" smooth="yes"/>
      <point x="179" y="-42"/>
      <point x="222" y="-44"/>
    </contour>
  </outline>
</glyph>
<glyph name="grave" format="1">
  <advance width="255"/>
  <unicode hex="0060"/>
  <outline>
    <contour>
      <point x="79" y="694" type="line" smooth="yes" name="hr00"/>
      <point x="56" y="670"/>
      <point x="28" y="643"/>
      <point x="5" y="620" type="curve"/>
      <point x="10" y="616" type="line"/>
      <point x="35" y="586"/>
      <point x="92" y="553"/>
      <point x="111" y="521" type="curve"/>
      <point x="111" y="515"/>
      <point x="141" y="514"/>
      <point x="171" y="514" type="curve" smooth="yes"/>
      <point x="203" y="514"/>
      <point x="239" y="516"/>
      <point x="252" y="523" type="curve"/>
      <point x="252" y="531" type="line"/>
      <point x="236" y="543"/>
      <point x="223" y="559"/>
      <point x="210" y="573" type="curve" smooth="yes"/>
      <point x="171" y="615"/>
      <point x="127" y="663"/>
      <point x="81" y="697" type="curve"/>
    </contour>
    <contour>
      <point x="203" y="566" type="curve" smooth="yes"/>
      <point x="214" y="553"/>
      <point x="225" y="540"/>
      <point x="238" y="529" type="curve"/>
      <point x="222" y="525"/>
      <point x="192" y="523"/>
      <point x="167" y="523" type="curve" smooth="yes"/>
      <point x="145" y="523"/>
      <point x="125" y="525"/>
      <point x="118" y="527" type="curve"/>
      <point x="107" y="549"/>
      <point x="41" y="600"/>
      <point x="19" y="620" type="curve"/>
      <point x="82" y="683" type="line"/>
      <point x="126" y="650"/>
      <point x="165" y="607"/>
    </contour>
  </outline>
</glyph>
<glyph name="b" format="1">
  <advance width="464"/>
  <unicode hex="0062"/>
  <outline>
    <contour>
      <point x="172" y="692" type="curve" name="hr01"/>
      <point x="172" y="703" type="line"/>
      <point x="167" y="713"/>
      <point x="122" y="715"/>
      <point x="95" y="715" type="curve" smooth="yes"/>
      <point x="73" y="715"/>
      <point x="51" y="713"/>
      <point x="39" y="709" type="curve"/>
      <point x="36" y="703" type="line"/>
      <point x="36" y="491"/>
      <point x="25" y="281"/>
      <point x="25" y="69" type="curve" smooth="yes"/>
      <point x="25" y="36"/>
      <point x="27" y="0"/>
      <point x="35" y="-4" type="curve"/>
      <point x="63" y="-4"/>
      <point x="93" y="-7"/>
      <point x="121" y="-7" type="curve" smooth="yes" name="hr02"/>
      <point x="138" y="-7"/>
      <point x="155" y="-6"/>
      <point x="171" y="-3" type="curve"/>
      <point x="171" y="-1"/>
      <point x="173" y="0"/>
      <point x="174" y="0" type="curve" name="hr03"/>
      <point x="175" y="1" type="line"/>
      <point x="175" y="2"/>
      <point x="176" y="3"/>
      <point x="176" y="4" type="curve"/>
      <point x="176" y="29" type="line"/>
      <point x="177" y="32"/>
      <point x="175" y="40"/>
      <point x="178" y="43" type="curve"/>
      <point x="195" y="9"/>
      <point x="229" y="-5"/>
      <point x="265" y="-5" type="curve" smooth="yes" name="hr04"/>
      <point x="411" y="-5"/>
      <point x="449" y="136"/>
      <point x="449" y="266" type="curve" smooth="yes"/>
      <point x="449" y="336"/>
      <point x="446" y="432"/>
      <point x="389" y="478" type="curve" smooth="yes"/>
      <point x="357" y="504"/>
      <point x="309" y="507"/>
      <point x="270" y="507" type="curve" smooth="yes"/>
      <point x="240" y="507"/>
      <point x="201" y="505"/>
      <point x="175" y="489" type="curve"/>
      <point x="175" y="510"/>
      <point x="178" y="559"/>
      <point x="178" y="590" type="curve" smooth="yes"/>
      <point x="178" y="627"/>
      <point x="172" y="672"/>
    </contour>
    <contour>
      <point x="162" y="691" type="line" smooth="yes"/>
      <point x="162" y="686"/>
      <point x="161" y="676"/>
      <point x="161" y="665" type="curve" smooth="yes"/>
      <point x="163" y="628"/>
      <point x="166" y="560"/>
      <point x="166" y="512" type="curve" smooth="yes" name="hr05"/>
      <point x="166" y="498"/>
      <point x="165" y="485"/>
      <point x="165" y="476" type="curve"/>
      <point x="168" y="476"/>
      <point x="172" y="475"/>
      <point x="175" y="475" type="curve"/>
      <point x="190" y="495"/>
      <point x="235" y="497"/>
      <point x="262" y="497" type="curve" smooth="yes"/>
      <point x="314" y="497"/>
      <point x="375" y="493"/>
      <point x="404" y="446" type="curve" smooth="yes"/>
      <point x="428" y="406"/>
      <point x="439" y="338"/>
      <point x="439" y="271" type="curve" smooth="yes"/>
      <point x="439" y="88"/>
      <point x="378" y="7"/>
      <point x="255" y="7" type="curve" smooth="yes"/>
      <point x="205" y="7"/>
      <point x="200" y="34"/>
      <point x="179" y="55" type="curve"/>
      <point x="165" y="55"/>
      <point x="165" y="23"/>
      <point x="165" y="23" type="curve"/>
      <point x="165" y="17"/>
      <point x="166" y="11"/>
      <point x="166" y="6" type="curve"/>
      <point x="152" y="4"/>
      <point x="138" y="3"/>
      <point x="124" y="3" type="curve" smooth="yes"/>
      <point x="95" y="3"/>
      <point x="67" y="6"/>
      <point x="40" y="6" type="curve"/>
      <point x="37" y="44"/>
      <point x="36" y="83"/>
      <point x="36" y="122" type="curve" smooth="yes"/>
      <point x="36" y="315"/>
      <point x="46" y="507"/>
      <point x="46" y="700" type="curve"/>
      <point x="64" y="703"/>
      <point x="83" y="705"/>
      <point x="103" y="705" type="curve" smooth="yes"/>
      <point x="123" y="705"/>
      <point x="143" y="703"/>
      <point x="162" y="699" type="curve"/>
    </contour>
    <contour>
      <point x="327" y="315" type="line" smooth="yes"/>
      <point x="320" y="367"/>
      <point x="276" y="391"/>
      <point x="227" y="391" type="curve" smooth="yes"/>
      <point x="166" y="391"/>
      <point x="158" y="348"/>
      <point x="158" y="303" type="curve" smooth="yes"/>
      <point x="158" y="217"/>
      <point x="157" y="121"/>
      <point x="237" y="121" type="curve" smooth="yes"/>
      <point x="290" y="121"/>
      <point x="336" y="184"/>
      <point x="336" y="250" type="curve" smooth="yes"/>
      <point x="336" y="272"/>
      <point x="333" y="297"/>
      <point x="327" y="317" type="curve" smooth="yes"/>
    </contour>
    <contour>
      <point x="317" y="314" type="curve"/>
      <point x="322" y="300"/>
      <point x="320" y="284"/>
      <point x="324" y="270" type="curve" name="hr06"/>
      <point x="324" y="206"/>
      <point x="304" y="132"/>
      <point x="237" y="132" type="curve" smooth="yes"/>
      <point x="176" y="132"/>
      <point x="170" y="194"/>
      <point x="170" y="236" type="curve" smooth="yes"/>
      <point x="170" y="248"/>
      <point x="171" y="260"/>
      <point x="171" y="271" type="curve" smooth="yes"/>
      <point x="171" y="282"/>
      <point x="170" y="296"/>
      <point x="170" y="312" type="curve" smooth="yes"/>
      <point x="170" y="351"/>
      <point x="176" y="383"/>
      <point x="227" y="383" type="curve" smooth="yes"/>
      <point x="269" y="383"/>
      <point x="311" y="357"/>
    </contour>
    <contour>
      <point x="165" y="3" type="line"/>
      <point x="165" y="2" type="line"/>
    </contour>
  </outline>
</glyph>
<glyph name="d" format="1">
  <advance width="463"/>
  <unicode hex="0064"/>
  <outline>
    <contour>
      <point x="292" y="702" type="line" name="hr01"/>
      <point x="292" y="661"/>
      <point x="285" y="656"/>
      <point x="285" y="589" type="curve" smooth="yes"/>
      <point x="285" y="552"/>
      <point x="288" y="504"/>
      <point x="288" y="489" type="curve"/>
      <point x="264" y="507"/>
      <point x="222" y="507"/>
      <point x="193" y="507" type="curve" smooth="yes"/>
      <point x="158" y="507"/>
      <point x="117" y="504"/>
      <point x="87" y="487" type="curve" smooth="yes"/>
      <point x="27" y="452"/>
      <point x="16" y="359"/>
      <point x="16" y="288" type="curve" smooth="yes"/>
      <point x="16" y="168"/>
      <point x="32" y="-3"/>
      <point x="208" y="-3" type="curve" smooth="yes"/>
      <point x="241" y="-3"/>
      <point x="269" y="9"/>
      <point x="286" y="43" type="curve"/>
      <point x="286" y="42"/>
      <point x="287" y="41"/>
      <point x="287" y="41" type="curve"/>
      <point x="287" y="38"/>
      <point x="286" y="32"/>
      <point x="286" y="27" type="curve" smooth="yes"/>
      <point x="286" y="22"/>
      <point x="287" y="18"/>
      <point x="288" y="16" type="curve"/>
      <point x="288" y="4" type="line"/>
      <point x="293" y="-6"/>
      <point x="305" y="-8"/>
      <point x="334" y="-8" type="curve" smooth="yes" name="hr02"/>
      <point x="372" y="-8"/>
      <point x="427" y="-6"/>
      <point x="434" y="1" type="curve"/>
      <point x="436" y="53"/>
      <point x="436" y="105"/>
      <point x="436" y="157" type="curve" smooth="yes"/>
      <point x="436" y="339"/>
      <point x="428" y="522"/>
      <point x="428" y="704" type="curve"/>
      <point x="423" y="714"/>
      <point x="392" y="715"/>
      <point x="368" y="715" type="curve" smooth="yes"/>
      <point x="341" y="715"/>
      <point x="313" y="712"/>
      <point x="297" y="708" type="curve"/>
    </contour>
    <contour>
      <point x="418" y="700" type="curve"/>
      <point x="418" y="520"/>
      <point x="426" y="340"/>
      <point x="426" y="160" type="curve" smooth="yes"/>
      <point x="426" y="109"/>
      <point x="426" y="57"/>
      <point x="424" y="6" type="curve"/>
      <point x="396" y="6"/>
      <point x="367" y="3"/>
      <point x="339" y="3" type="curve" smooth="yes"/>
      <point x="327" y="3"/>
      <point x="298" y="1"/>
      <point x="298" y="13" type="curve" smooth="yes"/>
      <point x="298" y="31"/>
      <point x="299" y="40"/>
      <point x="286" y="55" type="curve"/>
      <point x="285" y="55" type="line"/>
      <point x="275" y="55"/>
      <point x="262" y="23"/>
      <point x="249" y="16" type="curve" smooth="yes"/>
      <point x="237" y="9"/>
      <point x="225" y="7"/>
      <point x="211" y="7" type="curve" smooth="yes"/>
      <point x="87" y="7"/>
      <point x="24" y="86"/>
      <point x="24" y="276" type="curve" smooth="yes"/>
      <point x="24" y="342"/>
      <point x="35" y="407"/>
      <point x="59" y="445" type="curve" smooth="yes"/>
      <point x="90" y="493"/>
      <point x="149" y="497"/>
      <point x="202" y="497" type="curve" smooth="yes"/>
      <point x="231" y="497"/>
      <point x="278" y="494"/>
      <point x="290" y="473" type="curve"/>
      <point x="293" y="473"/>
      <point x="296" y="474"/>
      <point x="299" y="475" type="curve"/>
      <point x="298" y="503"/>
      <point x="298" y="532"/>
      <point x="298" y="559" type="curve" smooth="yes"/>
      <point x="298" y="587"/>
      <point x="301" y="681"/>
      <point x="302" y="699" type="curve"/>
      <point x="320" y="703"/>
      <point x="339" y="704"/>
      <point x="358" y="704" type="curve" smooth="yes"/>
      <point x="378" y="704"/>
      <point x="399" y="702"/>
    </contour>
    <contour>
      <point x="137" y="316" type="curve"/>
      <point x="131" y="299"/>
      <point x="128" y="279"/>
      <point x="128" y="259" type="curve" smooth="yes" name="hr03"/>
      <point x="128" y="192"/>
      <point x="163" y="121"/>
      <point x="227" y="121" type="curve" smooth="yes"/>
      <point x="302" y="121"/>
      <point x="305" y="208"/>
      <point x="305" y="305" type="curve" smooth="yes"/>
      <point x="305" y="351"/>
      <point x="297" y="391"/>
      <point x="237" y="391" type="curve" smooth="yes"/>
      <point x="187" y="391"/>
      <point x="145" y="368"/>
    </contour>
    <contour>
      <point x="147" y="315" type="line" smooth="yes"/>
      <point x="153" y="358"/>
      <point x="194" y="383"/>
      <point x="235" y="383" type="curve" smooth="yes"/>
      <point x="293" y="383"/>
      <point x="294" y="348"/>
      <point x="294" y="295" type="curve" smooth="yes"/>
      <point x="294" y="208"/>
      <point x="292" y="131"/>
      <point x="230" y="131" type="curve" smooth="yes"/>
      <point x="175" y="131"/>
      <point x="138" y="188"/>
      <point x="138" y="257" type="curve" smooth="yes" name="hr04"/>
      <point x="138" y="277"/>
      <point x="141" y="297"/>
      <point x="147" y="313" type="curve"/>
    </contour>
  </outline>
</glyph>
<glyph name="e" format="1">
  <advance width="444"/>
  <unicode hex="0065"/>
  <outline>
    <contour>
      <point x="161" y="233" type="curve" name="hr01"/>
      <point x="161" y="244" type="line"/>
      <point x="170" y="241"/>
      <point x="181" y="240"/>
      <point x="193" y="240" type="curve" smooth="yes"/>
      <point x="217" y="240"/>
      <point x="233" y="242"/>
      <point x="251" y="242" type="curve" smooth="yes"/>
      <point x="298" y="242"/>
      <point x="412" y="242"/>
      <point x="429" y="259" type="curve"/>
      <point x="431" y="274"/>
      <point x="432" y="290"/>
      <point x="432" y="306" type="curve" smooth="yes"/>
      <point x="432" y="372"/>
      <point x="414" y="444"/>
      <point x="361" y="484" type="curve" smooth="yes"/>
      <point x="323" y="512"/>
      <point x="262" y="519"/>
      <point x="224" y="519" type="curve" smooth="yes"/>
      <point x="136" y="519"/>
      <point x="42" y="479"/>
      <point x="26" y="384" type="curve" smooth="yes"/>
      <point x="19" y="343"/>
      <point x="14" y="298"/>
      <point x="14" y="252" type="curve" smooth="yes" name="hr02"/>
      <point x="14" y="170"/>
      <point x="31" y="87"/>
      <point x="84" y="26" type="curve" smooth="yes"/>
      <point x="119" y="-14"/>
      <point x="177" y="-18"/>
      <point x="230" y="-18" type="curve" smooth="yes"/>
      <point x="243" y="-18"/>
      <point x="256" y="-18"/>
      <point x="268" y="-18" type="curve" smooth="yes"/>
      <point x="446" y="-18"/>
      <point x="409" y="95"/>
      <point x="427" y="188" type="curve"/>
      <point x="421" y="200"/>
      <point x="405" y="200"/>
      <point x="389" y="200" type="curve" smooth="yes" name="hr03"/>
      <point x="365" y="200"/>
      <point x="337" y="196"/>
      <point x="314" y="196" type="curve" smooth="yes"/>
      <point x="308" y="196"/>
      <point x="302" y="196"/>
      <point x="297" y="197" type="curve"/>
      <point x="291" y="191" type="line"/>
      <point x="291" y="156"/>
      <point x="284" y="110"/>
      <point x="233" y="110" type="curve" smooth="yes" name="hr04"/>
      <point x="173" y="110"/>
      <point x="161" y="179"/>
    </contour>
    <contour>
      <point x="151" y="232" type="line" smooth="yes"/>
      <point x="151" y="180"/>
      <point x="165" y="97"/>
      <point x="235" y="97" type="curve" smooth="yes" name="hr05"/>
      <point x="272" y="97"/>
      <point x="301" y="138"/>
      <point x="301" y="186" type="curve"/>
      <point x="304" y="186"/>
      <point x="308" y="185"/>
      <point x="311" y="185" type="curve" smooth="yes" name="hr06"/>
      <point x="332" y="185"/>
      <point x="362" y="190"/>
      <point x="387" y="190" type="curve" smooth="yes"/>
      <point x="398" y="190"/>
      <point x="408" y="189"/>
      <point x="416" y="186" type="curve"/>
      <point x="404" y="105"/>
      <point x="431" y="-8"/>
      <point x="274" y="-8" type="curve" smooth="yes"/>
      <point x="260" y="-8"/>
      <point x="245" y="-8"/>
      <point x="230" y="-8" type="curve" smooth="yes"/>
      <point x="178" y="-8"/>
      <point x="123" y="-4"/>
      <point x="91" y="33" type="curve" smooth="yes"/>
      <point x="32" y="99"/>
      <point x="25" y="192"/>
      <point x="25" y="278" type="curve" smooth="yes"/>
      <point x="25" y="324"/>
      <point x="27" y="387"/>
      <point x="50" y="427" type="curve" smooth="yes"/>
      <point x="85" y="487"/>
      <point x="154" y="510"/>
      <point x="221" y="510" type="curve" smooth="yes"/>
      <point x="266" y="510"/>
      <point x="328" y="503"/>
      <point x="361" y="471" type="curve" smooth="yes"/>
      <point x="406" y="428"/>
      <point x="421" y="366"/>
      <point x="421" y="305" type="curve" smooth="yes"/>
      <point x="421" y="291"/>
      <point x="420" y="277"/>
      <point x="419" y="263" type="curve"/>
      <point x="387" y="251"/>
      <point x="270" y="252"/>
      <point x="237" y="252" type="curve" smooth="yes"/>
      <point x="229" y="252"/>
      <point x="211" y="250"/>
      <point x="193" y="250" type="curve" smooth="yes"/>
      <point x="179" y="250"/>
      <point x="166" y="251"/>
      <point x="159" y="255" type="curve"/>
      <point x="156" y="254"/>
      <point x="154" y="252"/>
      <point x="151" y="250" type="curve"/>
    </contour>
    <contour>
      <point x="280" y="410" type="curve" smooth="yes"/>
      <point x="266" y="417"/>
      <point x="251" y="420"/>
      <point x="235" y="420" type="curve" smooth="yes"/>
      <point x="188" y="420"/>
      <point x="152" y="394"/>
      <point x="152" y="340" type="curve" smooth="yes"/>
      <point x="152" y="325"/>
      <point x="167" y="321"/>
      <point x="184" y="321" type="curve" smooth="yes"/>
      <point x="197" y="321"/>
      <point x="211" y="323"/>
      <point x="220" y="324" type="curve"/>
      <point x="275" y="324" type="line"/>
      <point x="280" y="322"/>
      <point x="290" y="320"/>
      <point x="300" y="320" type="curve" smooth="yes"/>
      <point x="308" y="320"/>
      <point x="321" y="322"/>
      <point x="321" y="329" type="curve" smooth="yes"/>
      <point x="321" y="362"/>
      <point x="311" y="394"/>
    </contour>
    <contour>
      <point x="275" y="401" type="curve" smooth="yes"/>
      <point x="302" y="388"/>
      <point x="311" y="360"/>
      <point x="311" y="332" type="curve"/>
      <point x="294" y="332"/>
      <point x="278" y="336"/>
      <point x="258" y="336" type="curve" smooth="yes" name="hr07"/>
      <point x="237" y="336"/>
      <point x="212" y="330"/>
      <point x="191" y="330" type="curve" smooth="yes"/>
      <point x="180" y="330"/>
      <point x="170" y="332"/>
      <point x="162" y="336" type="curve"/>
      <point x="162" y="383"/>
      <point x="193" y="412"/>
      <point x="232" y="412" type="curve" smooth="yes"/>
      <point x="246" y="412"/>
      <point x="260" y="408"/>
    </contour>
  </outline>
</glyph>
<glyph name="g" format="1">
  <advance width="467"/>
  <unicode hex="0067"/>
  <outline>
    <contour>
      <point x="379" y="-180" type="curve" smooth="yes" name="hr01"/>
      <point x="435" y="-140"/>
      <point x="430" y="-118"/>
      <point x="432" y="-57" type="curve" smooth="yes"/>
      <point x="434" y="14"/>
      <point x="438" y="84"/>
      <point x="438" y="155" type="curve" smooth="yes"/>
      <point x="438" y="318" type="line" smooth="yes"/>
      <point x="438" y="378"/>
      <point x="436" y="439"/>
      <point x="434" y="499" type="curve"/>
      <point x="428" y="505"/>
      <point x="406" y="507"/>
      <point x="384" y="507" type="curve" smooth="yes"/>
      <point x="368" y="507"/>
      <point x="353" y="506"/>
      <point x="344" y="506" type="curve" smooth="yes" name="hr02"/>
      <point x="336" y="506"/>
      <point x="328" y="506"/>
      <point x="320" y="506" type="curve" smooth="yes"/>
      <point x="301" y="506"/>
      <point x="285" y="503"/>
      <point x="285" y="482" type="curve" smooth="yes"/>
      <point x="285" y="479"/>
      <point x="286" y="476"/>
      <point x="287" y="473" type="curve"/>
      <point x="287" y="461" type="line"/>
      <point x="268" y="491"/>
      <point x="232" y="503"/>
      <point x="196" y="503" type="curve" smooth="yes" name="hr03"/>
      <point x="62" y="503"/>
      <point x="14" y="383"/>
      <point x="14" y="216" type="curve" smooth="yes"/>
      <point x="14" y="7"/>
      <point x="106" y="-6"/>
      <point x="210" y="-6" type="curve" smooth="yes"/>
      <point x="237" y="-6"/>
      <point x="264" y="-3"/>
      <point x="286" y="12" type="curve"/>
      <point x="286" y="10"/>
      <point x="285" y="8"/>
      <point x="285" y="6" type="curve" smooth="yes"/>
      <point x="285" y="-4"/>
      <point x="289" y="-12"/>
      <point x="289" y="-26" type="curve" smooth="yes"/>
      <point x="289" y="-72"/>
      <point x="263" y="-94"/>
      <point x="233" y="-94" type="curve" smooth="yes"/>
      <point x="208" y="-94"/>
      <point x="176" y="-76"/>
      <point x="176" y="-37" type="curve" name="hr04"/>
      <point x="164" y="-31"/>
      <point x="139" y="-29"/>
      <point x="112" y="-29" type="curve" smooth="yes" name="hr05"/>
      <point x="64" y="-29"/>
      <point x="38" y="-31"/>
      <point x="38" y="-57" type="curve" smooth="yes"/>
      <point x="38" y="-71"/>
      <point x="42" y="-85"/>
      <point x="46" y="-99" type="curve" smooth="yes"/>
      <point x="76" y="-212"/>
      <point x="200" y="-206"/>
      <point x="291" y="-206" type="curve" smooth="yes" name="hr06"/>
      <point x="322" y="-206"/>
      <point x="352" y="-199"/>
    </contour>
    <contour>
      <point x="308" y="-195" type="curve"/>
      <point x="294" y="-197"/>
      <point x="278" y="-196"/>
      <point x="263" y="-196" type="curve" smooth="yes"/>
      <point x="180" y="-196"/>
      <point x="83" y="-191"/>
      <point x="56" y="-96" type="curve" smooth="yes"/>
      <point x="52" y="-84"/>
      <point x="48" y="-71"/>
      <point x="48" y="-57" type="curve" smooth="yes"/>
      <point x="48" y="-37"/>
      <point x="74" y="-37"/>
      <point x="96" y="-37" type="curve" smooth="yes"/>
      <point x="121" y="-37"/>
      <point x="149" y="-42"/>
      <point x="168" y="-45" type="curve"/>
      <point x="168" y="-84"/>
      <point x="199" y="-104"/>
      <point x="230" y="-104" type="curve" smooth="yes" name="hr07"/>
      <point x="272" y="-104"/>
      <point x="300" y="-76"/>
      <point x="300" y="-19" type="curve" smooth="yes"/>
      <point x="300" y="-9"/>
      <point x="297" y="1"/>
      <point x="297" y="10" type="curve" smooth="yes"/>
      <point x="297" y="14"/>
      <point x="298" y="18"/>
      <point x="299" y="22" type="curve"/>
      <point x="296" y="24"/>
      <point x="293" y="26"/>
      <point x="291" y="28" type="curve"/>
      <point x="266" y="3"/>
      <point x="231" y="4"/>
      <point x="198" y="4" type="curve" smooth="yes" name="hr08"/>
      <point x="102" y="4"/>
      <point x="24" y="24"/>
      <point x="24" y="217" type="curve" smooth="yes"/>
      <point x="24" y="378"/>
      <point x="70" y="494"/>
      <point x="196" y="494" type="curve" smooth="yes"/>
      <point x="214" y="494"/>
      <point x="234" y="490"/>
      <point x="251" y="481" type="curve" smooth="yes"/>
      <point x="264" y="473"/>
      <point x="279" y="443"/>
      <point x="289" y="444" type="curve" smooth="yes"/>
      <point x="291" y="444" type="line"/>
      <point x="297" y="450"/>
      <point x="299" y="451"/>
      <point x="299" y="461" type="curve" smooth="yes"/>
      <point x="299" y="470"/>
      <point x="296" y="477"/>
      <point x="296" y="486" type="curve" smooth="yes"/>
      <point x="296" y="498"/>
      <point x="332" y="496"/>
      <point x="345" y="496" type="curve" smooth="yes"/>
      <point x="371" y="496"/>
      <point x="398" y="494"/>
      <point x="424" y="494" type="curve"/>
      <point x="427" y="435"/>
      <point x="428" y="375"/>
      <point x="428" y="315" type="curve" smooth="yes"/>
      <point x="428" y="156" type="line" smooth="yes"/>
      <point x="428" y="84"/>
      <point x="424" y="13"/>
      <point x="422" y="-56" type="curve" smooth="yes"/>
      <point x="420" y="-112"/>
      <point x="424" y="-136"/>
      <point x="373" y="-172" type="curve" smooth="yes"/>
      <point x="354" y="-186"/>
      <point x="331" y="-195"/>
    </contour>
    <contour>
      <point x="130" y="227" type="line" smooth="yes"/>
      <point x="130" y="173"/>
      <point x="161" y="107"/>
      <point x="230" y="107" type="curve" smooth="yes"/>
      <point x="297" y="107"/>
      <point x="303" y="140"/>
      <point x="303" y="208" type="curve" smooth="yes"/>
      <point x="303" y="312"/>
      <point x="300" y="379"/>
      <point x="216" y="379" type="curve"/>
      <point x="146" y="376"/>
      <point x="130" y="281"/>
      <point x="130" y="229" type="curve" smooth="yes"/>
    </contour>
    <contour>
      <point x="140" y="228" type="curve" smooth="yes" name="hr09"/>
      <point x="140" y="282"/>
      <point x="157" y="370"/>
      <point x="222" y="370" type="curve" smooth="yes"/>
      <point x="286" y="370"/>
      <point x="286" y="317"/>
      <point x="290" y="276" type="curve" smooth="yes"/>
      <point x="291" y="259"/>
      <point x="296" y="231"/>
      <point x="296" y="203" type="curve" smooth="yes"/>
      <point x="296" y="151"/>
      <point x="284" y="115"/>
      <point x="232" y="115" type="curve" smooth="yes"/>
      <point x="178" y="115"/>
      <point x="140" y="169"/>
    </contour>
  </outline>
</glyph>
<glyph name="i" format="1">
  <advance width="207"/>
  <unicode hex="0069"/>
  <outline>
    <contour>
      <point x="175" y="508" type="line" name="hr01"/>
      <point x="129" y="508"/>
      <point x="84" y="511"/>
      <point x="39" y="511" type="curve" name="hr02"/>
      <point x="37" y="509"/>
      <point x="36" y="507"/>
      <point x="34" y="505" type="curve"/>
      <point x="34" y="507"/>
      <point x="34" y="508"/>
      <point x="34" y="508" type="curve" name="hr03"/>
      <point x="29" y="508"/>
      <point x="28" y="372"/>
      <point x="28" y="371" type="curve" smooth="yes"/>
      <point x="28" y="281"/>
      <point x="31" y="192"/>
      <point x="31" y="103" type="curve" smooth="yes"/>
      <point x="31" y="69"/>
      <point x="31" y="35"/>
      <point x="28" y="1" type="curve"/>
      <point x="34" y="-5" type="line"/>
      <point x="39" y="-4"/>
      <point x="46" y="-4"/>
      <point x="53" y="-4" type="curve" smooth="yes"/>
      <point x="76" y="-4"/>
      <point x="107" y="-8"/>
      <point x="133" y="-8" type="curve" smooth="yes" name="hr04"/>
      <point x="151" y="-8"/>
      <point x="179" y="-5"/>
      <point x="179" y="6" type="curve"/>
      <point x="176" y="58"/>
      <point x="175" y="110"/>
      <point x="175" y="161" type="curve" smooth="yes"/>
      <point x="175" y="275"/>
      <point x="180" y="389"/>
      <point x="180" y="503" type="curve"/>
    </contour>
    <contour>
      <point x="169" y="8" type="curve"/>
      <point x="157" y="3"/>
      <point x="144" y="1"/>
      <point x="130" y="1" type="curve" smooth="yes"/>
      <point x="100" y="1"/>
      <point x="67" y="6"/>
      <point x="39" y="6" type="curve"/>
      <point x="41" y="45"/>
      <point x="42" y="83"/>
      <point x="42" y="122" type="curve" smooth="yes"/>
      <point x="42" y="202"/>
      <point x="39" y="281"/>
      <point x="39" y="361" type="curve" smooth="yes"/>
      <point x="39" y="408"/>
      <point x="40" y="454"/>
      <point x="44" y="501" type="curve"/>
      <point x="85" y="501"/>
      <point x="127" y="498"/>
      <point x="170" y="498" type="curve" name="hr05"/>
      <point x="170" y="386"/>
      <point x="165" y="274"/>
      <point x="165" y="161" type="curve" smooth="yes"/>
      <point x="165" y="110"/>
      <point x="166" y="59"/>
    </contour>
    <contour>
      <point x="171" y="723" type="line" name="hr06"/>
      <point x="125" y="724"/>
      <point x="80" y="725"/>
      <point x="35" y="726" type="curve" name="hr07"/>
      <point x="30" y="723"/>
      <point x="29" y="717"/>
      <point x="29" y="711" type="curve" smooth="yes"/>
      <point x="29" y="668"/>
      <point x="34" y="626"/>
      <point x="34" y="584" type="curve"/>
      <point x="43" y="574"/>
      <point x="94" y="573"/>
      <point x="122" y="573" type="curve" smooth="yes" name="hr08"/>
      <point x="139" y="573"/>
      <point x="179" y="576"/>
      <point x="179" y="590" type="curve" smooth="yes"/>
      <point x="179" y="601"/>
      <point x="180" y="620"/>
      <point x="180" y="638" type="curve" smooth="yes"/>
      <point x="180" y="657"/>
      <point x="179" y="675"/>
      <point x="176" y="684" type="curve"/>
      <point x="176" y="718" type="line"/>
    </contour>
    <contour>
      <point x="167" y="679" type="curve"/>
      <point x="167" y="650"/>
      <point x="169" y="621"/>
      <point x="169" y="592" type="curve"/>
      <point x="161" y="585"/>
      <point x="145" y="583"/>
      <point x="126" y="583" type="curve" smooth="yes" name="hr09"/>
      <point x="96" y="583"/>
      <point x="61" y="588"/>
      <point x="44" y="588" type="curve"/>
      <point x="44" y="625"/>
      <point x="39" y="661"/>
      <point x="39" y="698" type="curve" smooth="yes"/>
      <point x="39" y="704"/>
      <point x="40" y="710"/>
      <point x="40" y="716" type="curve"/>
      <point x="81" y="715"/>
      <point x="123" y="714"/>
      <point x="166" y="713" type="curve"/>
      <point x="165" y="707"/>
      <point x="165" y="701"/>
      <point x="165" y="695" type="curve" smooth="yes"/>
      <point x="165" y="689"/>
      <point x="165" y="684"/>
    </contour>
  </outline>
</glyph>
<glyph name="j" format="1">
  <advance width="204"/>
  <unicode hex="006A"/>
  <outline>
    <contour>
      <point x="33" y="496" type="line" name="hr01"/>
      <point x="33" y="327"/>
      <point x="29" y="158"/>
      <point x="29" y="-10" type="curve"/>
      <point x="0" y="-55"/>
      <point x="-94" y="-36"/>
      <point x="-125" y="-51" type="curve"/>
      <point x="-131" y="-71"/>
      <point x="-134" y="-96"/>
      <point x="-134" y="-124" type="curve" smooth="yes"/>
      <point x="-134" y="-146"/>
      <point x="-132" y="-186"/>
      <point x="-120" y="-192" type="curve"/>
      <point x="-105" y="-193"/>
      <point x="-90" y="-193"/>
      <point x="-75" y="-193" type="curve" smooth="yes"/>
      <point x="-11" y="-193"/>
      <point x="100" y="-186"/>
      <point x="149" y="-119" type="curve" smooth="yes"/>
      <point x="163" y="-100"/>
      <point x="163" y="-74"/>
      <point x="166" y="-52" type="curve" smooth="yes"/>
      <point x="175" y="21"/>
      <point x="174" y="95"/>
      <point x="174" y="169" type="curve" smooth="yes"/>
      <point x="174" y="214"/>
      <point x="173" y="258"/>
      <point x="173" y="302" type="curve" smooth="yes"/>
      <point x="173" y="353"/>
      <point x="177" y="409"/>
      <point x="177" y="465" type="curve" smooth="yes"/>
      <point x="177" y="486"/>
      <point x="174" y="506"/>
      <point x="154" y="506" type="curve" smooth="yes"/>
      <point x="127" y="506"/>
      <point x="93" y="498"/>
      <point x="65" y="498" type="curve" smooth="yes"/>
      <point x="56" y="498"/>
      <point x="47" y="499"/>
      <point x="39" y="502" type="curve"/>
    </contour>
    <contour>
      <point x="163" y="495" type="curve"/>
      <point x="165" y="483"/>
      <point x="166" y="469"/>
      <point x="166" y="456" type="curve" smooth="yes"/>
      <point x="166" y="397"/>
      <point x="162" y="339"/>
      <point x="162" y="280" type="curve" smooth="yes"/>
      <point x="162" y="228"/>
      <point x="163" y="176"/>
      <point x="163" y="124" type="curve" smooth="yes"/>
      <point x="163" y="50"/>
      <point x="161" y="-24"/>
      <point x="149" y="-98" type="curve"/>
      <point x="113" y="-170"/>
      <point x="10" y="-183"/>
      <point x="-70" y="-183" type="curve" smooth="yes"/>
      <point x="-87" y="-183"/>
      <point x="-102" y="-183"/>
      <point x="-116" y="-182" type="curve"/>
      <point x="-121" y="-168"/>
      <point x="-125" y="-145"/>
      <point x="-125" y="-120" type="curve" smooth="yes"/>
      <point x="-125" y="-98"/>
      <point x="-122" y="-75"/>
      <point x="-117" y="-57" type="curve"/>
      <point x="-73" y="-57"/>
      <point x="17" y="-55"/>
      <point x="38" y="-15" type="curve" smooth="yes"/>
      <point x="42" y="-7"/>
      <point x="40" y="74"/>
      <point x="40" y="79" type="curve" smooth="yes"/>
      <point x="40" y="178" type="line" smooth="yes"/>
      <point x="40" y="283"/>
      <point x="43" y="386"/>
      <point x="43" y="490" type="curve"/>
      <point x="49" y="489"/>
      <point x="56" y="488"/>
      <point x="64" y="488" type="curve" smooth="yes"/>
      <point x="91" y="488"/>
      <point x="122" y="496"/>
      <point x="150" y="496" type="curve" smooth="yes"/>
      <point x="154" y="496"/>
      <point x="159" y="495"/>
    </contour>
    <contour>
      <point x="165" y="723" type="line" name="hr02"/>
      <point x="120" y="724"/>
      <point x="76" y="725"/>
      <point x="32" y="726" type="curve" name="hr03"/>
      <point x="27" y="723"/>
      <point x="26" y="717"/>
      <point x="26" y="711" type="curve" smooth="yes"/>
      <point x="26" y="668"/>
      <point x="31" y="626"/>
      <point x="31" y="584" type="curve"/>
      <point x="40" y="574"/>
      <point x="91" y="573"/>
      <point x="117" y="573" type="curve" smooth="yes" name="hr04"/>
      <point x="159" y="573"/>
      <point x="174" y="580"/>
      <point x="174" y="609" type="curve"/>
      <point x="170" y="718" type="line"/>
    </contour>
    <contour>
      <point x="161" y="679" type="curve"/>
      <point x="161" y="650"/>
      <point x="163" y="621"/>
      <point x="163" y="592" type="curve"/>
      <point x="163" y="591" type="line"/>
      <point x="150" y="585"/>
      <point x="135" y="583"/>
      <point x="118" y="583" type="curve" smooth="yes" name="hr05"/>
      <point x="92" y="583"/>
      <point x="63" y="588"/>
      <point x="41" y="588" type="curve"/>
      <point x="41" y="625"/>
      <point x="36" y="661"/>
      <point x="36" y="698" type="curve" smooth="yes"/>
      <point x="36" y="704"/>
      <point x="37" y="710"/>
      <point x="37" y="716" type="curve"/>
      <point x="77" y="715"/>
      <point x="118" y="714"/>
      <point x="160" y="713" type="curve"/>
      <point x="159" y="707"/>
      <point x="159" y="701"/>
      <point x="159" y="695" type="curve" smooth="yes"/>
      <point x="159" y="689"/>
      <point x="159" y="684"/>
    </contour>
  </outline>
</glyph>
<glyph name="k" format="1">
  <advance width="435"/>
  <unicode hex="006B"/>
  <outline>
    <contour>
      <point x="179" y="507" type="curve" name="hr01"/>
      <point x="179" y="726" type="line"/>
      <point x="171" y="740"/>
      <point x="112" y="734"/>
      <point x="96" y="734" type="curve" smooth="yes"/>
      <point x="70" y="734"/>
      <point x="41" y="733"/>
      <point x="33" y="725" type="curve"/>
      <point x="33" y="564"/>
      <point x="28" y="402"/>
      <point x="28" y="241" type="curve" smooth="yes"/>
      <point x="28" y="160"/>
      <point x="30" y="80"/>
      <point x="33" y="-1" type="curve"/>
      <point x="55" y="-12"/>
      <point x="86" y="-9"/>
      <point x="120" y="-9" type="curve" smooth="yes"/>
      <point x="141" y="-9"/>
      <point x="163" y="-8"/>
      <point x="175" y="-2" type="curve" name="hr02"/>
      <point x="181" y="22"/>
      <point x="182" y="46"/>
      <point x="182" y="71" type="curve" smooth="yes"/>
      <point x="182" y="107"/>
      <point x="179" y="143"/>
      <point x="179" y="177" type="curve"/>
      <point x="208" y="137"/>
      <point x="229" y="91"/>
      <point x="250" y="47" type="curve" smooth="yes"/>
      <point x="265" y="14"/>
      <point x="262" y="-11"/>
      <point x="324" y="-11" type="curve" smooth="yes" name="hr03"/>
      <point x="368" y="-11"/>
      <point x="441" y="-8"/>
      <point x="448" y="2" type="curve"/>
      <point x="394" y="102"/>
      <point x="333" y="196"/>
      <point x="275" y="293" type="curve"/>
      <point x="329" y="367"/>
      <point x="388" y="437"/>
      <point x="438" y="514" type="curve"/>
      <point x="436" y="517"/>
      <point x="435" y="519"/>
      <point x="434" y="522" type="curve"/>
      <point x="403" y="522"/>
      <point x="367" y="516"/>
      <point x="333" y="516" type="curve" smooth="yes"/>
      <point x="313" y="516"/>
      <point x="294" y="518"/>
      <point x="277" y="525" type="curve"/>
      <point x="236" y="484"/>
      <point x="215" y="429"/>
      <point x="177" y="387" type="curve"/>
      <point x="176" y="397"/>
      <point x="175" y="408"/>
      <point x="175" y="418" type="curve" smooth="yes"/>
      <point x="175" y="448"/>
      <point x="179" y="478"/>
    </contour>
    <contour>
      <point x="169" y="506" type="line" smooth="yes"/>
      <point x="169" y="474"/>
      <point x="165" y="440"/>
      <point x="165" y="408" type="curve" smooth="yes"/>
      <point x="165" y="393"/>
      <point x="166" y="377"/>
      <point x="177" y="373" type="curve"/>
      <point x="196" y="391"/>
      <point x="211" y="413"/>
      <point x="226" y="436" type="curve"/>
      <point x="244" y="454"/>
      <point x="258" y="491"/>
      <point x="277" y="514" type="curve"/>
      <point x="292" y="508"/>
      <point x="309" y="506"/>
      <point x="328" y="506" type="curve" smooth="yes"/>
      <point x="360" y="506"/>
      <point x="396" y="512"/>
      <point x="425" y="512" type="curve" name="hr04"/>
      <point x="376" y="437"/>
      <point x="318" y="368"/>
      <point x="265" y="295" type="curve"/>
      <point x="265" y="291" type="line"/>
      <point x="322" y="195"/>
      <point x="382" y="103"/>
      <point x="435" y="5" type="curve"/>
      <point x="402" y="5"/>
      <point x="366" y="-2"/>
      <point x="332" y="-2" type="curve" smooth="yes"/>
      <point x="316" y="-2"/>
      <point x="300" y="-1"/>
      <point x="285" y="4" type="curve"/>
      <point x="245" y="66"/>
      <point x="221" y="136"/>
      <point x="178" y="196" type="curve"/>
      <point x="175" y="195"/>
      <point x="172" y="193"/>
      <point x="169" y="192" type="curve"/>
      <point x="169" y="155"/>
      <point x="173" y="116"/>
      <point x="173" y="78" type="curve" smooth="yes"/>
      <point x="173" y="53"/>
      <point x="171" y="29"/>
      <point x="166" y="5" type="curve"/>
      <point x="139" y="4"/>
      <point x="110" y="2"/>
      <point x="82" y="2" type="curve" smooth="yes"/>
      <point x="69" y="2"/>
      <point x="55" y="2"/>
      <point x="43" y="4" type="curve"/>
      <point x="40" y="84"/>
      <point x="38" y="163"/>
      <point x="38" y="243" type="curve" smooth="yes"/>
      <point x="38" y="402"/>
      <point x="43" y="562"/>
      <point x="43" y="721" type="curve"/>
      <point x="71" y="721"/>
      <point x="102" y="724"/>
      <point x="132" y="724" type="curve" smooth="yes"/>
      <point x="144" y="724"/>
      <point x="157" y="724"/>
      <point x="169" y="722" type="curve"/>
    </contour>
  </outline>
</glyph>
<glyph name="l" format="1">
  <advance width="206"/>
  <unicode hex="006C"/>
  <outline>
    <contour>
      <point x="175" y="729" type="line" name="hr01"/>
      <point x="129" y="730"/>
      <point x="84" y="731"/>
      <point x="39" y="732" type="curve"/>
      <point x="37" y="731"/>
      <point x="35" y="732"/>
      <point x="33" y="731" type="curve"/>
      <point x="26" y="669"/>
      <point x="25" y="603"/>
      <point x="25" y="541" type="curve" smooth="yes"/>
      <point x="25" y="424"/>
      <point x="33" y="307"/>
      <point x="33" y="190" type="curve" smooth="yes"/>
      <point x="33" y="127"/>
      <point x="29" y="59"/>
      <point x="26" y="-4" type="curve"/>
      <point x="62" y="-4"/>
      <point x="100" y="-8"/>
      <point x="132" y="-8" type="curve" smooth="yes" name="hr02"/>
      <point x="150" y="-8"/>
      <point x="179" y="-5"/>
      <point x="179" y="6" type="curve"/>
      <point x="175" y="40"/>
      <point x="173" y="75"/>
      <point x="173" y="110" type="curve" smooth="yes"/>
      <point x="173" y="316"/>
      <point x="183" y="523"/>
      <point x="183" y="728" type="curve"/>
    </contour>
    <contour>
      <point x="165" y="228" type="curve" smooth="yes"/>
      <point x="165" y="187"/>
      <point x="163" y="146"/>
      <point x="163" y="105" type="curve" smooth="yes"/>
      <point x="163" y="72"/>
      <point x="164" y="40"/>
      <point x="168" y="8" type="curve"/>
      <point x="157" y="3"/>
      <point x="144" y="1"/>
      <point x="130" y="1" type="curve" smooth="yes"/>
      <point x="105" y="1"/>
      <point x="77" y="7"/>
      <point x="53" y="7" type="curve" smooth="yes"/>
      <point x="48" y="7"/>
      <point x="43" y="6"/>
      <point x="38" y="6" type="curve"/>
      <point x="41" y="68"/>
      <point x="43" y="130"/>
      <point x="43" y="192" type="curve" smooth="yes"/>
      <point x="43" y="311"/>
      <point x="34" y="430"/>
      <point x="34" y="548" type="curve" smooth="yes"/>
      <point x="34" y="606"/>
      <point x="36" y="664"/>
      <point x="43" y="722" type="curve"/>
      <point x="170" y="719" type="line"/>
      <point x="170" y="555"/>
      <point x="165" y="391"/>
    </contour>
  </outline>
</glyph>
